G04 #@! TF.FileFunction,Legend,Top*
%FSLAX46Y46*%
G04 Gerber Fmt 4.6, Leading zero omitted, Abs format (unit mm)*
G04 Created by KiCad (PCBNEW 4.0.4+e1-6308~48~ubuntu16.04.1-stable) date Wed Oct 26 20:07:28 2016*
%MOMM*%
%LPD*%
G01*
G04 APERTURE LIST*
%ADD10C,0.101600*%
%ADD11C,0.150000*%
G04 APERTURE END LIST*
D10*
D11*
X197954565Y-122851246D02*
X197388880Y-122285561D01*
X197604379Y-122070061D01*
X197685191Y-122043123D01*
X197739066Y-122043123D01*
X197819878Y-122070061D01*
X197900690Y-122150873D01*
X197927628Y-122231685D01*
X197927628Y-122285560D01*
X197900690Y-122366372D01*
X197685190Y-122581872D01*
X198331688Y-122150873D02*
X198601062Y-121881499D01*
X198439438Y-122366373D02*
X198062315Y-121612126D01*
X198816562Y-121989249D01*
X199301435Y-121504376D02*
X198978186Y-121827625D01*
X199139810Y-121666001D02*
X198574125Y-121100315D01*
X198601062Y-121235001D01*
X198601062Y-121342752D01*
X198574125Y-121423563D01*
X199005123Y-120777066D02*
X199005123Y-120723191D01*
X199032061Y-120642379D01*
X199166748Y-120507692D01*
X199247560Y-120480755D01*
X199301435Y-120480754D01*
X199382247Y-120507692D01*
X199436122Y-120561566D01*
X199489997Y-120669316D01*
X199489997Y-121315814D01*
X199840183Y-120965628D01*
X197954565Y-120311246D02*
X197388880Y-119745561D01*
X197604379Y-119530061D01*
X197685191Y-119503123D01*
X197739066Y-119503123D01*
X197819878Y-119530061D01*
X197900690Y-119610873D01*
X197927628Y-119691685D01*
X197927628Y-119745560D01*
X197900690Y-119826372D01*
X197685190Y-120041872D01*
X198331688Y-119610873D02*
X198601062Y-119341499D01*
X198439438Y-119826373D02*
X198062315Y-119072126D01*
X198816562Y-119449249D01*
X199301435Y-118964376D02*
X198978186Y-119287625D01*
X199139810Y-119126001D02*
X198574125Y-118560315D01*
X198601062Y-118695001D01*
X198601062Y-118802752D01*
X198574125Y-118883563D01*
X198924312Y-118210128D02*
X199274498Y-117859942D01*
X199301435Y-118264004D01*
X199382247Y-118183191D01*
X199463059Y-118156254D01*
X199516934Y-118156253D01*
X199597747Y-118183191D01*
X199732434Y-118317878D01*
X199759371Y-118398690D01*
X199759371Y-118452566D01*
X199732434Y-118533377D01*
X199570809Y-118695002D01*
X199489997Y-118721939D01*
X199436122Y-118721939D01*
X197954565Y-117771246D02*
X197388880Y-117205561D01*
X197604379Y-116990061D01*
X197685191Y-116963123D01*
X197739066Y-116963123D01*
X197819878Y-116990061D01*
X197900690Y-117070873D01*
X197927628Y-117151685D01*
X197927628Y-117205560D01*
X197900690Y-117286372D01*
X197685190Y-117501872D01*
X198331688Y-117070873D02*
X198601062Y-116801499D01*
X198439438Y-117286373D02*
X198062315Y-116532126D01*
X198816562Y-116909249D01*
X199301435Y-116424376D02*
X198978186Y-116747625D01*
X199139810Y-116586001D02*
X198574125Y-116020315D01*
X198601062Y-116155001D01*
X198601062Y-116262752D01*
X198574125Y-116343563D01*
X199409184Y-115562379D02*
X199786308Y-115939503D01*
X199058999Y-115481567D02*
X199328372Y-116020315D01*
X199678558Y-115670128D01*
X197954565Y-115231246D02*
X197388880Y-114665561D01*
X197604379Y-114450061D01*
X197685191Y-114423123D01*
X197739066Y-114423123D01*
X197819878Y-114450061D01*
X197900690Y-114530873D01*
X197927628Y-114611685D01*
X197927628Y-114665560D01*
X197900690Y-114746372D01*
X197685190Y-114961872D01*
X198331688Y-114530873D02*
X198601062Y-114261499D01*
X198439438Y-114746373D02*
X198062315Y-113992126D01*
X198816562Y-114369249D01*
X199301435Y-113884376D02*
X198978186Y-114207625D01*
X199139810Y-114046001D02*
X198574125Y-113480315D01*
X198601062Y-113615001D01*
X198601062Y-113722752D01*
X198574125Y-113803563D01*
X199247561Y-112806880D02*
X198978186Y-113076254D01*
X199220623Y-113372565D01*
X199220623Y-113318690D01*
X199247561Y-113237878D01*
X199382247Y-113103191D01*
X199463059Y-113076254D01*
X199516934Y-113076253D01*
X199597747Y-113103191D01*
X199732434Y-113237878D01*
X199759371Y-113318690D01*
X199759371Y-113372566D01*
X199732434Y-113453377D01*
X199597747Y-113588064D01*
X199516934Y-113615002D01*
X199463059Y-113615001D01*
X198350939Y-112421872D02*
X197785254Y-111856186D01*
X198000753Y-111640687D01*
X198081566Y-111613749D01*
X198135440Y-111613749D01*
X198216253Y-111640687D01*
X198297064Y-111721499D01*
X198324002Y-111802311D01*
X198324002Y-111856185D01*
X198297064Y-111936998D01*
X198081565Y-112152497D01*
X198728063Y-111721499D02*
X198997437Y-111452125D01*
X198835812Y-111936999D02*
X198458689Y-111182751D01*
X199212936Y-111559874D01*
X199159061Y-110967252D02*
X199078249Y-110994190D01*
X199024374Y-110994189D01*
X198943562Y-110967252D01*
X198916625Y-110940315D01*
X198889687Y-110859502D01*
X198889687Y-110805628D01*
X198916625Y-110724815D01*
X199024374Y-110617066D01*
X199105186Y-110590128D01*
X199159061Y-110590128D01*
X199239874Y-110617066D01*
X199266811Y-110644003D01*
X199293748Y-110724815D01*
X199293748Y-110778690D01*
X199266811Y-110859502D01*
X199159061Y-110967252D01*
X199132123Y-111048064D01*
X199132123Y-111101939D01*
X199159061Y-111182751D01*
X199266811Y-111290501D01*
X199347623Y-111317438D01*
X199401498Y-111317439D01*
X199482310Y-111290501D01*
X199590060Y-111182751D01*
X199616997Y-111101939D01*
X199616997Y-111048064D01*
X199590060Y-110967252D01*
X199482310Y-110859502D01*
X199401498Y-110832564D01*
X199347623Y-110832565D01*
X199266811Y-110859502D01*
X198350939Y-109754872D02*
X197785254Y-109189186D01*
X198000753Y-108973687D01*
X198081566Y-108946749D01*
X198135440Y-108946749D01*
X198216253Y-108973687D01*
X198297064Y-109054499D01*
X198324002Y-109135311D01*
X198324002Y-109189185D01*
X198297064Y-109269998D01*
X198081565Y-109485497D01*
X198728063Y-109054499D02*
X198997437Y-108785125D01*
X198835812Y-109269999D02*
X198458689Y-108515751D01*
X199212936Y-108892874D01*
X199428435Y-108677376D02*
X199536185Y-108569626D01*
X199563123Y-108488814D01*
X199563122Y-108434939D01*
X199536185Y-108300252D01*
X199455373Y-108165565D01*
X199239874Y-107950066D01*
X199159061Y-107923128D01*
X199105186Y-107923128D01*
X199024374Y-107950066D01*
X198916625Y-108057815D01*
X198889687Y-108138628D01*
X198889687Y-108192502D01*
X198916625Y-108273315D01*
X199051312Y-108408001D01*
X199132123Y-108434939D01*
X199185999Y-108434939D01*
X199266811Y-108408001D01*
X199374561Y-108300252D01*
X199401498Y-108219440D01*
X199401498Y-108165564D01*
X199374561Y-108084753D01*
X197954565Y-107611246D02*
X197388880Y-107045561D01*
X197604379Y-106830061D01*
X197685191Y-106803123D01*
X197739066Y-106803123D01*
X197819878Y-106830061D01*
X197900690Y-106910873D01*
X197927628Y-106991685D01*
X197927628Y-107045560D01*
X197900690Y-107126372D01*
X197685190Y-107341872D01*
X198331688Y-106910873D02*
X198601062Y-106641499D01*
X198439438Y-107126373D02*
X198062315Y-106372126D01*
X198816562Y-106749249D01*
X199301435Y-106264376D02*
X198978186Y-106587625D01*
X199139810Y-106426001D02*
X198574125Y-105860315D01*
X198601062Y-105995001D01*
X198601062Y-106102752D01*
X198574125Y-106183563D01*
X199085936Y-105348504D02*
X199139811Y-105294629D01*
X199220623Y-105267692D01*
X199274497Y-105267692D01*
X199355310Y-105294629D01*
X199489997Y-105375442D01*
X199624684Y-105510128D01*
X199705496Y-105644815D01*
X199732433Y-105725628D01*
X199732434Y-105779503D01*
X199705496Y-105860315D01*
X199651621Y-105914190D01*
X199570810Y-105941127D01*
X199516934Y-105941127D01*
X199436122Y-105914190D01*
X199301435Y-105833377D01*
X199166748Y-105698690D01*
X199085936Y-105564004D01*
X199058998Y-105483191D01*
X199058999Y-105429316D01*
X199085936Y-105348504D01*
X198081565Y-104944246D02*
X197515880Y-104378561D01*
X197731379Y-104163061D01*
X197812191Y-104136123D01*
X197866066Y-104136123D01*
X197946878Y-104163061D01*
X198027690Y-104243873D01*
X198054628Y-104324685D01*
X198054628Y-104378560D01*
X198027690Y-104459372D01*
X197812190Y-104674872D01*
X198458688Y-104243873D02*
X198728062Y-103974499D01*
X198566438Y-104459373D02*
X198189315Y-103705126D01*
X198943562Y-104082249D01*
X199428435Y-103597376D02*
X199105186Y-103920625D01*
X199266810Y-103759001D02*
X198701125Y-103193315D01*
X198728062Y-103328001D01*
X198728062Y-103435752D01*
X198701125Y-103516563D01*
X199967183Y-103058628D02*
X199643934Y-103381877D01*
X199805558Y-103220253D02*
X199239873Y-102654567D01*
X199266810Y-102789253D01*
X199266810Y-102897004D01*
X199239873Y-102977815D01*
X197954565Y-102531246D02*
X197388880Y-101965561D01*
X197604379Y-101750061D01*
X197685191Y-101723123D01*
X197739066Y-101723123D01*
X197819878Y-101750061D01*
X197900690Y-101830873D01*
X197927628Y-101911685D01*
X197927628Y-101965560D01*
X197900690Y-102046372D01*
X197685190Y-102261872D01*
X198331688Y-101830873D02*
X198601062Y-101561499D01*
X198439438Y-102046373D02*
X198062315Y-101292126D01*
X198816562Y-101669249D01*
X199301435Y-101184376D02*
X198978186Y-101507625D01*
X199139810Y-101346001D02*
X198574125Y-100780315D01*
X198601062Y-100915001D01*
X198601062Y-101022752D01*
X198574125Y-101103563D01*
X199005123Y-100457066D02*
X199005123Y-100403191D01*
X199032061Y-100322379D01*
X199166748Y-100187692D01*
X199247560Y-100160755D01*
X199301435Y-100160754D01*
X199382247Y-100187692D01*
X199436122Y-100241566D01*
X199489997Y-100349316D01*
X199489997Y-100995814D01*
X199840183Y-100645628D01*
X198081565Y-99991246D02*
X197515880Y-99425561D01*
X197731379Y-99210061D01*
X197812191Y-99183123D01*
X197866066Y-99183123D01*
X197946878Y-99210061D01*
X198027690Y-99290873D01*
X198054628Y-99371685D01*
X198054628Y-99425560D01*
X198027690Y-99506372D01*
X197812190Y-99721872D01*
X198458688Y-99290873D02*
X198728062Y-99021499D01*
X198566438Y-99506373D02*
X198189315Y-98752126D01*
X198943562Y-99129249D01*
X199428435Y-98644376D02*
X199105186Y-98967625D01*
X199266810Y-98806001D02*
X198701125Y-98240315D01*
X198728062Y-98375001D01*
X198728062Y-98482752D01*
X198701125Y-98563563D01*
X199374561Y-97566880D02*
X199105186Y-97836254D01*
X199347623Y-98132565D01*
X199347623Y-98078690D01*
X199374561Y-97997878D01*
X199509247Y-97863191D01*
X199590059Y-97836254D01*
X199643934Y-97836253D01*
X199724747Y-97863191D01*
X199859434Y-97997878D01*
X199886371Y-98078690D01*
X199886371Y-98132566D01*
X199859434Y-98213377D01*
X199724747Y-98348064D01*
X199643934Y-98375002D01*
X199590059Y-98375001D01*
X198437533Y-96968278D02*
X197871848Y-96402592D01*
X198087347Y-96187093D01*
X198168159Y-96160155D01*
X198222034Y-96160155D01*
X198302846Y-96187093D01*
X198383658Y-96267905D01*
X198410596Y-96348717D01*
X198410596Y-96402592D01*
X198383658Y-96483404D01*
X198168159Y-96698903D01*
X198895469Y-95917719D02*
X199003219Y-95863843D01*
X199057094Y-95863844D01*
X199137905Y-95890781D01*
X199218718Y-95971594D01*
X199245655Y-96052405D01*
X199245656Y-96106281D01*
X199218718Y-96187093D01*
X199003219Y-96402592D01*
X198437533Y-95836907D01*
X198626095Y-95648345D01*
X198706907Y-95621408D01*
X198760782Y-95621407D01*
X198841595Y-95648345D01*
X198895469Y-95702219D01*
X198922407Y-95783032D01*
X198922406Y-95836907D01*
X198895469Y-95917719D01*
X198706907Y-96106281D01*
X199434216Y-95217346D02*
X199811341Y-95594470D01*
X199084031Y-95136535D02*
X199353405Y-95675282D01*
X199703591Y-95325096D01*
X198437533Y-94428278D02*
X197871848Y-93862592D01*
X198087347Y-93647093D01*
X198168159Y-93620155D01*
X198222034Y-93620155D01*
X198302846Y-93647093D01*
X198383658Y-93727905D01*
X198410596Y-93808717D01*
X198410596Y-93862592D01*
X198383658Y-93943404D01*
X198168159Y-94158903D01*
X198895469Y-93377719D02*
X199003219Y-93323843D01*
X199057094Y-93323844D01*
X199137905Y-93350781D01*
X199218718Y-93431594D01*
X199245655Y-93512405D01*
X199245656Y-93566281D01*
X199218718Y-93647093D01*
X199003219Y-93862592D01*
X198437533Y-93296907D01*
X198626095Y-93108345D01*
X198706907Y-93081408D01*
X198760782Y-93081407D01*
X198841595Y-93108345D01*
X198895469Y-93162219D01*
X198922407Y-93243032D01*
X198922406Y-93296907D01*
X198895469Y-93377719D01*
X198706907Y-93566281D01*
X199272593Y-92461847D02*
X199003219Y-92731222D01*
X199245655Y-93027532D01*
X199245655Y-92973658D01*
X199272593Y-92892846D01*
X199407280Y-92758159D01*
X199488092Y-92731222D01*
X199541967Y-92731221D01*
X199622779Y-92758159D01*
X199757466Y-92892846D01*
X199784403Y-92973657D01*
X199784403Y-93027533D01*
X199757466Y-93108345D01*
X199622779Y-93243032D01*
X199541967Y-93269970D01*
X199488092Y-93269969D01*
X184340532Y-82120973D02*
X183963409Y-82875220D01*
X184717657Y-82498097D01*
X184340532Y-83252343D02*
X184906218Y-82686658D01*
X185040905Y-82821345D01*
X185094780Y-82929095D01*
X185094781Y-83036844D01*
X185067843Y-83117657D01*
X184987030Y-83252343D01*
X184906218Y-83333156D01*
X184771531Y-83413968D01*
X184690719Y-83440905D01*
X184582969Y-83440905D01*
X184475219Y-83387030D01*
X184340532Y-83252343D01*
X184906218Y-83818029D02*
X185471903Y-83252343D01*
X185606590Y-83387030D01*
X185660465Y-83494780D01*
X185660466Y-83602530D01*
X185633528Y-83683342D01*
X185552716Y-83818029D01*
X185471903Y-83898841D01*
X185337216Y-83979654D01*
X185256405Y-84006591D01*
X185148654Y-84006591D01*
X185040905Y-83952716D01*
X184906218Y-83818029D01*
X198310533Y-92015278D02*
X197744848Y-91449592D01*
X197960347Y-91234093D01*
X198041159Y-91207155D01*
X198095034Y-91207155D01*
X198175846Y-91234093D01*
X198256658Y-91314905D01*
X198283596Y-91395717D01*
X198283596Y-91449592D01*
X198256658Y-91530404D01*
X198041159Y-91745903D01*
X198768469Y-90964719D02*
X198876219Y-90910843D01*
X198930094Y-90910844D01*
X199010905Y-90937781D01*
X199091718Y-91018594D01*
X199118655Y-91099405D01*
X199118656Y-91153281D01*
X199091718Y-91234093D01*
X198876219Y-91449592D01*
X198310533Y-90883907D01*
X198499095Y-90695345D01*
X198579907Y-90668408D01*
X198633782Y-90668407D01*
X198714595Y-90695345D01*
X198768469Y-90749219D01*
X198795407Y-90830032D01*
X198795406Y-90883907D01*
X198768469Y-90964719D01*
X198579907Y-91153281D01*
X199118655Y-90075785D02*
X199010905Y-90183535D01*
X198983968Y-90264346D01*
X198983968Y-90318221D01*
X199010905Y-90452908D01*
X199091718Y-90587595D01*
X199307217Y-90803095D01*
X199388029Y-90830032D01*
X199441904Y-90830032D01*
X199522716Y-90803095D01*
X199630466Y-90695345D01*
X199657403Y-90614533D01*
X199657403Y-90560657D01*
X199630466Y-90479846D01*
X199495779Y-90345159D01*
X199414967Y-90318221D01*
X199361092Y-90318222D01*
X199280280Y-90345159D01*
X199172530Y-90452908D01*
X199145592Y-90533721D01*
X199145592Y-90587595D01*
X199172530Y-90668408D01*
X198310533Y-89475278D02*
X197744848Y-88909592D01*
X197960347Y-88694093D01*
X198041159Y-88667155D01*
X198095034Y-88667155D01*
X198175846Y-88694093D01*
X198256658Y-88774905D01*
X198283596Y-88855717D01*
X198283596Y-88909592D01*
X198256658Y-88990404D01*
X198041159Y-89205903D01*
X198768469Y-88424719D02*
X198876219Y-88370843D01*
X198930094Y-88370844D01*
X199010905Y-88397781D01*
X199091718Y-88478594D01*
X199118655Y-88559405D01*
X199118656Y-88613281D01*
X199091718Y-88694093D01*
X198876219Y-88909592D01*
X198310533Y-88343907D01*
X198499095Y-88155345D01*
X198579907Y-88128408D01*
X198633782Y-88128407D01*
X198714595Y-88155345D01*
X198768469Y-88209219D01*
X198795407Y-88290032D01*
X198795406Y-88343907D01*
X198768469Y-88424719D01*
X198579907Y-88613281D01*
X198822344Y-87832096D02*
X199199468Y-87454973D01*
X199522716Y-88263095D01*
X197169504Y-87737683D02*
X197277254Y-87683808D01*
X197331129Y-87683809D01*
X197411941Y-87710746D01*
X197492753Y-87791558D01*
X197519690Y-87872370D01*
X197519691Y-87926245D01*
X197492753Y-88007058D01*
X197277254Y-88222557D01*
X196711569Y-87656872D01*
X196900131Y-87468310D01*
X196980942Y-87441372D01*
X197034817Y-87441372D01*
X197115630Y-87468310D01*
X197169504Y-87522184D01*
X197196442Y-87602996D01*
X197196442Y-87656872D01*
X197169504Y-87737683D01*
X196980942Y-87926245D01*
X197385004Y-86983437D02*
X197492753Y-86875687D01*
X197573566Y-86848749D01*
X197681315Y-86848749D01*
X197816001Y-86929561D01*
X198004563Y-87118123D01*
X198085376Y-87252810D01*
X198085377Y-87360560D01*
X198058439Y-87441372D01*
X197950689Y-87549122D01*
X197869877Y-87576059D01*
X197762127Y-87576059D01*
X197627440Y-87495247D01*
X197438878Y-87306685D01*
X197358066Y-87171998D01*
X197358066Y-87064248D01*
X197385004Y-86983437D01*
X197977626Y-86390814D02*
X198085376Y-86283064D01*
X198166188Y-86256126D01*
X198273937Y-86256126D01*
X198408624Y-86336939D01*
X198597186Y-86525501D01*
X198677999Y-86660188D01*
X198677999Y-86767937D01*
X198651061Y-86848750D01*
X198543312Y-86956499D01*
X198462500Y-86983437D01*
X198354750Y-86983437D01*
X198220063Y-86902624D01*
X198031501Y-86714062D01*
X197950688Y-86579375D01*
X197950689Y-86471626D01*
X197977626Y-86390814D01*
X198381687Y-85986753D02*
X198704936Y-85663504D01*
X199108997Y-86390814D02*
X198543312Y-85825128D01*
X199001247Y-85367193D02*
X199055123Y-85313317D01*
X199135934Y-85286380D01*
X199189809Y-85286380D01*
X199270622Y-85313317D01*
X199405309Y-85394130D01*
X199539996Y-85528817D01*
X199620808Y-85663504D01*
X199647745Y-85744316D01*
X199647745Y-85798191D01*
X199620808Y-85879003D01*
X199566933Y-85932878D01*
X199486121Y-85959815D01*
X199432245Y-85959815D01*
X199351434Y-85932878D01*
X199216747Y-85852066D01*
X199082060Y-85717379D01*
X199001247Y-85582692D01*
X198974310Y-85501880D01*
X198974310Y-85448004D01*
X199001247Y-85367193D01*
X198310533Y-85792278D02*
X197744848Y-85226592D01*
X197960347Y-85011093D01*
X198041159Y-84984155D01*
X198095034Y-84984155D01*
X198175846Y-85011093D01*
X198256658Y-85091905D01*
X198283596Y-85172717D01*
X198283596Y-85226592D01*
X198256658Y-85307404D01*
X198041159Y-85522903D01*
X198768469Y-84741719D02*
X198876219Y-84687843D01*
X198930094Y-84687844D01*
X199010905Y-84714781D01*
X199091718Y-84795594D01*
X199118655Y-84876405D01*
X199118656Y-84930281D01*
X199091718Y-85011093D01*
X198876219Y-85226592D01*
X198310533Y-84660907D01*
X198499095Y-84472345D01*
X198579907Y-84445408D01*
X198633782Y-84445407D01*
X198714595Y-84472345D01*
X198768469Y-84526219D01*
X198795407Y-84607032D01*
X198795406Y-84660907D01*
X198768469Y-84741719D01*
X198579907Y-84930281D01*
X199199468Y-84256846D02*
X199118655Y-84283784D01*
X199064780Y-84283783D01*
X198983968Y-84256846D01*
X198957031Y-84229908D01*
X198930093Y-84149096D01*
X198930093Y-84095222D01*
X198957031Y-84014409D01*
X199064781Y-83906659D01*
X199145592Y-83879722D01*
X199199468Y-83879722D01*
X199280280Y-83906659D01*
X199307217Y-83933597D01*
X199334154Y-84014408D01*
X199334154Y-84068284D01*
X199307217Y-84149096D01*
X199199468Y-84256846D01*
X199172530Y-84337658D01*
X199172530Y-84391532D01*
X199199468Y-84472345D01*
X199307217Y-84580095D01*
X199388029Y-84607032D01*
X199441904Y-84607032D01*
X199522716Y-84580095D01*
X199630466Y-84472345D01*
X199657403Y-84391533D01*
X199657403Y-84337657D01*
X199630466Y-84256846D01*
X199522716Y-84149096D01*
X199441904Y-84122158D01*
X199388029Y-84122159D01*
X199307217Y-84149096D01*
X198183533Y-84522278D02*
X197617848Y-83956592D01*
X197833347Y-83741093D01*
X197914159Y-83714155D01*
X197968034Y-83714155D01*
X198048846Y-83741093D01*
X198129658Y-83821905D01*
X198156596Y-83902717D01*
X198156596Y-83956592D01*
X198129658Y-84037404D01*
X197914159Y-84252903D01*
X198641469Y-83471719D02*
X198749219Y-83417843D01*
X198803094Y-83417844D01*
X198883905Y-83444781D01*
X198964718Y-83525594D01*
X198991655Y-83606405D01*
X198991656Y-83660281D01*
X198964718Y-83741093D01*
X198749219Y-83956592D01*
X198183533Y-83390907D01*
X198372095Y-83202345D01*
X198452907Y-83175408D01*
X198506782Y-83175407D01*
X198587595Y-83202345D01*
X198641469Y-83256219D01*
X198668407Y-83337032D01*
X198668406Y-83390907D01*
X198641469Y-83471719D01*
X198452907Y-83660281D01*
X199341841Y-83363970D02*
X199449591Y-83256220D01*
X199476529Y-83175408D01*
X199476528Y-83121532D01*
X199449592Y-82986846D01*
X199368779Y-82852159D01*
X199153280Y-82636659D01*
X199072468Y-82609722D01*
X199018592Y-82609722D01*
X198937781Y-82636659D01*
X198830031Y-82744409D01*
X198803093Y-82825222D01*
X198803093Y-82879096D01*
X198830031Y-82959908D01*
X198964718Y-83094595D01*
X199045530Y-83121532D01*
X199099405Y-83121533D01*
X199180217Y-83094595D01*
X199287967Y-82986846D01*
X199314904Y-82906034D01*
X199314904Y-82852158D01*
X199287967Y-82771346D01*
X181432238Y-82861143D02*
X182041762Y-82861143D01*
X197669095Y-82753333D02*
X196869095Y-83020000D01*
X197669095Y-83286667D01*
X196869095Y-83553333D02*
X197669095Y-83553333D01*
X197669095Y-83743809D01*
X197631000Y-83858095D01*
X197554810Y-83934286D01*
X197478619Y-83972381D01*
X197326238Y-84010476D01*
X197211952Y-84010476D01*
X197059571Y-83972381D01*
X196983381Y-83934286D01*
X196907190Y-83858095D01*
X196869095Y-83743809D01*
X196869095Y-83553333D01*
X196869095Y-84353333D02*
X197669095Y-84353333D01*
X197669095Y-84543809D01*
X197631000Y-84658095D01*
X197554810Y-84734286D01*
X197478619Y-84772381D01*
X197326238Y-84810476D01*
X197211952Y-84810476D01*
X197059571Y-84772381D01*
X196983381Y-84734286D01*
X196907190Y-84658095D01*
X196869095Y-84543809D01*
X196869095Y-84353333D01*
X193059000Y-83210477D02*
X193097095Y-83134286D01*
X193097095Y-83020001D01*
X193059000Y-82905715D01*
X192982810Y-82829524D01*
X192906619Y-82791429D01*
X192754238Y-82753334D01*
X192639952Y-82753334D01*
X192487571Y-82791429D01*
X192411381Y-82829524D01*
X192335190Y-82905715D01*
X192297095Y-83020001D01*
X192297095Y-83096191D01*
X192335190Y-83210477D01*
X192373286Y-83248572D01*
X192639952Y-83248572D01*
X192639952Y-83096191D01*
X192297095Y-83591429D02*
X193097095Y-83591429D01*
X192297095Y-84048572D01*
X193097095Y-84048572D01*
X192297095Y-84429524D02*
X193097095Y-84429524D01*
X193097095Y-84620000D01*
X193059000Y-84734286D01*
X192982810Y-84810477D01*
X192906619Y-84848572D01*
X192754238Y-84886667D01*
X192639952Y-84886667D01*
X192487571Y-84848572D01*
X192411381Y-84810477D01*
X192335190Y-84734286D01*
X192297095Y-84620000D01*
X192297095Y-84429524D01*
X195129190Y-82772476D02*
X195091095Y-82886762D01*
X195091095Y-83077238D01*
X195129190Y-83153428D01*
X195167286Y-83191524D01*
X195243476Y-83229619D01*
X195319667Y-83229619D01*
X195395857Y-83191524D01*
X195433952Y-83153428D01*
X195472048Y-83077238D01*
X195510143Y-82924857D01*
X195548238Y-82848666D01*
X195586333Y-82810571D01*
X195662524Y-82772476D01*
X195738714Y-82772476D01*
X195814905Y-82810571D01*
X195853000Y-82848666D01*
X195891095Y-82924857D01*
X195891095Y-83115333D01*
X195853000Y-83229619D01*
X195891095Y-83496286D02*
X195091095Y-83686762D01*
X195662524Y-83839143D01*
X195091095Y-83991524D01*
X195891095Y-84182000D01*
X195167286Y-84943905D02*
X195129190Y-84905810D01*
X195091095Y-84791524D01*
X195091095Y-84715334D01*
X195129190Y-84601048D01*
X195205381Y-84524857D01*
X195281571Y-84486762D01*
X195433952Y-84448667D01*
X195548238Y-84448667D01*
X195700619Y-84486762D01*
X195776810Y-84524857D01*
X195853000Y-84601048D01*
X195891095Y-84715334D01*
X195891095Y-84791524D01*
X195853000Y-84905810D01*
X195814905Y-84943905D01*
X195091095Y-85667715D02*
X195091095Y-85286762D01*
X195891095Y-85286762D01*
X195091095Y-85934381D02*
X195891095Y-85934381D01*
X195091095Y-86391524D02*
X195548238Y-86048667D01*
X195891095Y-86391524D02*
X195433952Y-85934381D01*
X190646095Y-82746953D02*
X191446095Y-82746953D01*
X191446095Y-82937429D01*
X191408000Y-83051715D01*
X191331810Y-83127906D01*
X191255619Y-83166001D01*
X191103238Y-83204096D01*
X190988952Y-83204096D01*
X190836571Y-83166001D01*
X190760381Y-83127906D01*
X190684190Y-83051715D01*
X190646095Y-82937429D01*
X190646095Y-82746953D01*
X190646095Y-83546953D02*
X191446095Y-83546953D01*
X191446095Y-84080286D02*
X191446095Y-84232667D01*
X191408000Y-84308858D01*
X191331810Y-84385048D01*
X191179429Y-84423143D01*
X190912762Y-84423143D01*
X190760381Y-84385048D01*
X190684190Y-84308858D01*
X190646095Y-84232667D01*
X190646095Y-84080286D01*
X190684190Y-84004096D01*
X190760381Y-83927905D01*
X190912762Y-83889810D01*
X191179429Y-83889810D01*
X191331810Y-83927905D01*
X191408000Y-84004096D01*
X191446095Y-84080286D01*
X187598095Y-82759714D02*
X188398095Y-82759714D01*
X187598095Y-83216857D01*
X188398095Y-83216857D01*
X187598095Y-84054952D02*
X187979048Y-83788285D01*
X187598095Y-83597809D02*
X188398095Y-83597809D01*
X188398095Y-83902571D01*
X188360000Y-83978762D01*
X188321905Y-84016857D01*
X188245714Y-84054952D01*
X188131429Y-84054952D01*
X188055238Y-84016857D01*
X188017143Y-83978762D01*
X187979048Y-83902571D01*
X187979048Y-83597809D01*
X187636190Y-84359714D02*
X187598095Y-84474000D01*
X187598095Y-84664476D01*
X187636190Y-84740666D01*
X187674286Y-84778762D01*
X187750476Y-84816857D01*
X187826667Y-84816857D01*
X187902857Y-84778762D01*
X187940952Y-84740666D01*
X187979048Y-84664476D01*
X188017143Y-84512095D01*
X188055238Y-84435904D01*
X188093333Y-84397809D01*
X188169524Y-84359714D01*
X188245714Y-84359714D01*
X188321905Y-84397809D01*
X188360000Y-84435904D01*
X188398095Y-84512095D01*
X188398095Y-84702571D01*
X188360000Y-84816857D01*
X188398095Y-85045428D02*
X188398095Y-85502571D01*
X187598095Y-85274000D02*
X188398095Y-85274000D01*
X186112190Y-82715238D02*
X186074095Y-82829524D01*
X186074095Y-83020000D01*
X186112190Y-83096190D01*
X186150286Y-83134286D01*
X186226476Y-83172381D01*
X186302667Y-83172381D01*
X186378857Y-83134286D01*
X186416952Y-83096190D01*
X186455048Y-83020000D01*
X186493143Y-82867619D01*
X186531238Y-82791428D01*
X186569333Y-82753333D01*
X186645524Y-82715238D01*
X186721714Y-82715238D01*
X186797905Y-82753333D01*
X186836000Y-82791428D01*
X186874095Y-82867619D01*
X186874095Y-83058095D01*
X186836000Y-83172381D01*
X186874095Y-83439048D02*
X186074095Y-83629524D01*
X186645524Y-83781905D01*
X186074095Y-83934286D01*
X186874095Y-84124762D01*
X186874095Y-84581905D02*
X186874095Y-84734286D01*
X186836000Y-84810477D01*
X186759810Y-84886667D01*
X186607429Y-84924762D01*
X186340762Y-84924762D01*
X186188381Y-84886667D01*
X186112190Y-84810477D01*
X186074095Y-84734286D01*
X186074095Y-84581905D01*
X186112190Y-84505715D01*
X186188381Y-84429524D01*
X186340762Y-84391429D01*
X186607429Y-84391429D01*
X186759810Y-84429524D01*
X186836000Y-84505715D01*
X186874095Y-84581905D01*
X181432238Y-80194143D02*
X182041762Y-80194143D01*
X181737000Y-80498905D02*
X181737000Y-79889381D01*
X184890845Y-84376159D02*
X184863907Y-84295347D01*
X184783095Y-84214535D01*
X184675346Y-84160660D01*
X184567596Y-84160659D01*
X184486784Y-84187597D01*
X184352097Y-84268410D01*
X184271284Y-84349222D01*
X184190472Y-84483909D01*
X184163535Y-84564721D01*
X184163535Y-84672471D01*
X184217410Y-84780221D01*
X184271284Y-84834095D01*
X184379034Y-84887970D01*
X184432909Y-84887970D01*
X184621470Y-84699408D01*
X184513721Y-84591659D01*
X184621470Y-85184281D02*
X185187156Y-84618596D01*
X184944719Y-85507530D01*
X185510405Y-84941845D01*
X185214093Y-85776904D02*
X185779778Y-85211219D01*
X185914465Y-85345905D01*
X185968341Y-85453655D01*
X185968341Y-85561405D01*
X185941403Y-85642217D01*
X185860591Y-85776904D01*
X185779778Y-85857716D01*
X185645092Y-85938529D01*
X185564280Y-85965466D01*
X185456530Y-85965466D01*
X185348780Y-85911591D01*
X185214093Y-85776904D01*
X184067348Y-86154159D02*
X184633033Y-85588473D01*
X184848532Y-85803973D01*
X184875470Y-85884785D01*
X184875470Y-85938659D01*
X184848532Y-86019472D01*
X184767721Y-86100284D01*
X184686908Y-86127222D01*
X184633034Y-86127222D01*
X184552222Y-86100284D01*
X184336722Y-85884784D01*
X185010157Y-86989218D02*
X184956282Y-86989219D01*
X184848532Y-86935343D01*
X184794658Y-86881469D01*
X184740783Y-86773719D01*
X184740783Y-86665969D01*
X184767720Y-86585157D01*
X184848532Y-86450470D01*
X184929345Y-86369658D01*
X185064032Y-86288846D01*
X185144844Y-86261908D01*
X185252594Y-86261908D01*
X185360343Y-86315784D01*
X185414218Y-86369658D01*
X185468093Y-86477408D01*
X185468093Y-86531282D01*
X185495030Y-87581841D02*
X185171781Y-87258592D01*
X185333405Y-87420216D02*
X185899091Y-86854531D01*
X185764405Y-86881468D01*
X185656654Y-86881468D01*
X185575843Y-86854531D01*
X186249278Y-87204718D02*
X186599464Y-87554904D01*
X186195403Y-87581841D01*
X186276215Y-87662654D01*
X186303152Y-87743465D01*
X186303153Y-87797341D01*
X186276215Y-87878153D01*
X186141528Y-88012840D01*
X186060716Y-88039777D01*
X186006841Y-88039777D01*
X185926029Y-88012840D01*
X185764404Y-87851215D01*
X185737467Y-87770403D01*
X185737468Y-87716528D01*
X183701722Y-87947533D02*
X184267408Y-87381848D01*
X184482907Y-87597347D01*
X184509845Y-87678159D01*
X184509845Y-87732034D01*
X184482907Y-87812846D01*
X184402095Y-87893658D01*
X184321283Y-87920596D01*
X184267408Y-87920596D01*
X184186596Y-87893658D01*
X183971097Y-87678159D01*
X184752281Y-88405469D02*
X184806157Y-88513219D01*
X184806156Y-88567094D01*
X184779219Y-88647905D01*
X184698406Y-88728718D01*
X184617595Y-88755655D01*
X184563719Y-88755656D01*
X184482907Y-88728718D01*
X184267408Y-88513219D01*
X184833093Y-87947533D01*
X185021655Y-88136095D01*
X185048592Y-88216907D01*
X185048593Y-88270782D01*
X185021655Y-88351595D01*
X184967781Y-88405469D01*
X184886968Y-88432407D01*
X184833093Y-88432406D01*
X184752281Y-88405469D01*
X184563719Y-88216907D01*
X185344904Y-88459344D02*
X185695090Y-88809530D01*
X185291029Y-88836468D01*
X185371841Y-88917280D01*
X185398778Y-88998092D01*
X185398779Y-89051967D01*
X185371841Y-89132779D01*
X185237154Y-89267466D01*
X185156343Y-89294403D01*
X185102467Y-89294403D01*
X185021655Y-89267466D01*
X184860030Y-89105841D01*
X184833093Y-89025030D01*
X184833094Y-88971154D01*
X183686348Y-120952159D02*
X184252033Y-120386473D01*
X184467532Y-120601973D01*
X184494470Y-120682785D01*
X184494470Y-120736659D01*
X184467532Y-120817472D01*
X184386721Y-120898284D01*
X184305908Y-120925222D01*
X184252034Y-120925222D01*
X184171222Y-120898284D01*
X183955722Y-120682784D01*
X184736907Y-121410095D02*
X184790782Y-121517844D01*
X184790781Y-121571719D01*
X184763844Y-121652531D01*
X184683032Y-121733343D01*
X184602220Y-121760281D01*
X184548345Y-121760281D01*
X184467532Y-121733343D01*
X184252033Y-121517844D01*
X184817719Y-120952159D01*
X185006281Y-121140721D01*
X185033218Y-121221532D01*
X185033219Y-121275408D01*
X185006281Y-121356220D01*
X184952406Y-121410095D01*
X184871594Y-121437032D01*
X184817719Y-121437032D01*
X184736907Y-121410095D01*
X184548345Y-121221532D01*
X185114030Y-122379841D02*
X184790781Y-122056592D01*
X184952405Y-122218216D02*
X185518091Y-121652531D01*
X185383405Y-121679468D01*
X185275654Y-121679468D01*
X185194843Y-121652531D01*
X185652778Y-122918589D02*
X185329530Y-122595341D01*
X185491154Y-122756965D02*
X186056839Y-122191279D01*
X185922153Y-122218216D01*
X185814403Y-122218216D01*
X185733591Y-122191279D01*
X183686348Y-118412159D02*
X184252033Y-117846473D01*
X184467532Y-118061973D01*
X184494470Y-118142785D01*
X184494470Y-118196659D01*
X184467532Y-118277472D01*
X184386721Y-118358284D01*
X184305908Y-118385222D01*
X184252034Y-118385222D01*
X184171222Y-118358284D01*
X183955722Y-118142784D01*
X184736907Y-118870095D02*
X184790782Y-118977844D01*
X184790781Y-119031719D01*
X184763844Y-119112531D01*
X184683032Y-119193343D01*
X184602220Y-119220281D01*
X184548345Y-119220281D01*
X184467532Y-119193343D01*
X184252033Y-118977844D01*
X184817719Y-118412159D01*
X185006281Y-118600721D01*
X185033218Y-118681532D01*
X185033219Y-118735408D01*
X185006281Y-118816220D01*
X184952406Y-118870095D01*
X184871594Y-118897032D01*
X184817719Y-118897032D01*
X184736907Y-118870095D01*
X184548345Y-118681532D01*
X185114030Y-119839841D02*
X184790781Y-119516592D01*
X184952405Y-119678216D02*
X185518091Y-119112531D01*
X185383405Y-119139468D01*
X185275654Y-119139468D01*
X185194843Y-119112531D01*
X186029902Y-119624342D02*
X186083777Y-119678217D01*
X186110714Y-119759029D01*
X186110714Y-119812903D01*
X186083777Y-119893716D01*
X186002965Y-120028403D01*
X185868278Y-120163090D01*
X185733591Y-120243903D01*
X185652778Y-120270839D01*
X185598903Y-120270840D01*
X185518092Y-120243903D01*
X185464216Y-120190027D01*
X185437279Y-120109216D01*
X185437279Y-120055340D01*
X185464216Y-119974528D01*
X185545029Y-119839841D01*
X185679716Y-119705154D01*
X185814403Y-119624342D01*
X185895215Y-119597404D01*
X185949090Y-119597405D01*
X186029902Y-119624342D01*
X183701722Y-115887533D02*
X184267408Y-115321848D01*
X184482907Y-115537347D01*
X184509845Y-115618159D01*
X184509845Y-115672034D01*
X184482907Y-115752846D01*
X184402095Y-115833658D01*
X184321283Y-115860596D01*
X184267408Y-115860596D01*
X184186596Y-115833658D01*
X183971097Y-115618159D01*
X184752281Y-116345469D02*
X184806157Y-116453219D01*
X184806156Y-116507094D01*
X184779219Y-116587905D01*
X184698406Y-116668718D01*
X184617595Y-116695655D01*
X184563719Y-116695656D01*
X184482907Y-116668718D01*
X184267408Y-116453219D01*
X184833093Y-115887533D01*
X185021655Y-116076095D01*
X185048592Y-116156907D01*
X185048593Y-116210782D01*
X185021655Y-116291595D01*
X184967781Y-116345469D01*
X184886968Y-116372407D01*
X184833093Y-116372406D01*
X184752281Y-116345469D01*
X184563719Y-116156907D01*
X185317967Y-116480156D02*
X185371841Y-116480156D01*
X185452654Y-116507094D01*
X185587341Y-116641781D01*
X185614278Y-116722592D01*
X185614278Y-116776468D01*
X185587341Y-116857280D01*
X185533466Y-116911154D01*
X185425716Y-116965030D01*
X184779219Y-116965030D01*
X185129405Y-117315216D01*
X183701722Y-113347533D02*
X184267408Y-112781848D01*
X184482907Y-112997347D01*
X184509845Y-113078159D01*
X184509845Y-113132034D01*
X184482907Y-113212846D01*
X184402095Y-113293658D01*
X184321283Y-113320596D01*
X184267408Y-113320596D01*
X184186596Y-113293658D01*
X183971097Y-113078159D01*
X184752281Y-113805469D02*
X184806157Y-113913219D01*
X184806156Y-113967094D01*
X184779219Y-114047905D01*
X184698406Y-114128718D01*
X184617595Y-114155655D01*
X184563719Y-114155656D01*
X184482907Y-114128718D01*
X184267408Y-113913219D01*
X184833093Y-113347533D01*
X185021655Y-113536095D01*
X185048592Y-113616907D01*
X185048593Y-113670782D01*
X185021655Y-113751595D01*
X184967781Y-113805469D01*
X184886968Y-113832407D01*
X184833093Y-113832406D01*
X184752281Y-113805469D01*
X184563719Y-113616907D01*
X185129405Y-114775216D02*
X184806156Y-114451967D01*
X184967780Y-114613591D02*
X185533465Y-114047905D01*
X185398779Y-114074843D01*
X185291029Y-114074843D01*
X185210217Y-114047905D01*
X183701722Y-110807533D02*
X184267408Y-110241848D01*
X184482907Y-110457347D01*
X184509845Y-110538159D01*
X184509845Y-110592034D01*
X184482907Y-110672846D01*
X184402095Y-110753658D01*
X184321283Y-110780596D01*
X184267408Y-110780596D01*
X184186596Y-110753658D01*
X183971097Y-110538159D01*
X184752281Y-111265469D02*
X184806157Y-111373219D01*
X184806156Y-111427094D01*
X184779219Y-111507905D01*
X184698406Y-111588718D01*
X184617595Y-111615655D01*
X184563719Y-111615656D01*
X184482907Y-111588718D01*
X184267408Y-111373219D01*
X184833093Y-110807533D01*
X185021655Y-110996095D01*
X185048592Y-111076907D01*
X185048593Y-111130782D01*
X185021655Y-111211595D01*
X184967781Y-111265469D01*
X184886968Y-111292407D01*
X184833093Y-111292406D01*
X184752281Y-111265469D01*
X184563719Y-111076907D01*
X185506528Y-111480968D02*
X185560403Y-111534843D01*
X185587341Y-111615655D01*
X185587341Y-111669530D01*
X185560403Y-111750343D01*
X185479591Y-111885030D01*
X185344904Y-112019716D01*
X185210217Y-112100529D01*
X185129405Y-112127465D01*
X185075530Y-112127466D01*
X184994718Y-112100529D01*
X184940843Y-112046654D01*
X184913905Y-111965842D01*
X184913905Y-111911966D01*
X184940843Y-111831154D01*
X185021655Y-111696468D01*
X185156342Y-111561781D01*
X185291029Y-111480968D01*
X185371841Y-111454030D01*
X185425716Y-111454031D01*
X185506528Y-111480968D01*
X183742128Y-108307939D02*
X184307814Y-107742254D01*
X184523313Y-107957753D01*
X184550251Y-108038566D01*
X184550251Y-108092440D01*
X184523313Y-108173253D01*
X184442501Y-108254064D01*
X184361689Y-108281002D01*
X184307815Y-108281002D01*
X184227002Y-108254064D01*
X184011503Y-108038565D01*
X184442501Y-108685063D02*
X184711875Y-108954437D01*
X184227001Y-108792812D02*
X184981249Y-108415689D01*
X184604126Y-109169936D01*
X185304498Y-108738938D02*
X185681621Y-109116061D01*
X184873499Y-109439310D01*
X183742128Y-105767939D02*
X184307814Y-105202254D01*
X184523313Y-105417753D01*
X184550251Y-105498566D01*
X184550251Y-105552440D01*
X184523313Y-105633253D01*
X184442501Y-105714064D01*
X184361689Y-105741002D01*
X184307815Y-105741002D01*
X184227002Y-105714064D01*
X184011503Y-105498565D01*
X184442501Y-106145063D02*
X184711875Y-106414437D01*
X184227001Y-106252812D02*
X184981249Y-105875689D01*
X184604126Y-106629936D01*
X185600809Y-106495249D02*
X185493059Y-106387499D01*
X185412247Y-106360562D01*
X185358373Y-106360562D01*
X185223685Y-106387499D01*
X185088999Y-106468312D01*
X184873499Y-106683811D01*
X184846562Y-106764623D01*
X184846561Y-106818498D01*
X184873499Y-106899310D01*
X184981249Y-107007060D01*
X185062061Y-107033997D01*
X185115936Y-107033997D01*
X185196748Y-107007060D01*
X185331435Y-106872373D01*
X185358373Y-106791561D01*
X185358372Y-106737685D01*
X185331435Y-106656874D01*
X185223685Y-106549124D01*
X185142873Y-106522186D01*
X185088999Y-106522186D01*
X185008186Y-106549124D01*
X183742128Y-103227939D02*
X184307814Y-102662254D01*
X184523313Y-102877753D01*
X184550251Y-102958566D01*
X184550251Y-103012440D01*
X184523313Y-103093253D01*
X184442501Y-103174064D01*
X184361689Y-103201002D01*
X184307815Y-103201002D01*
X184227002Y-103174064D01*
X184011503Y-102958565D01*
X184442501Y-103605063D02*
X184711875Y-103874437D01*
X184227001Y-103712812D02*
X184981249Y-103335689D01*
X184604126Y-104089936D01*
X185627747Y-103982187D02*
X185358372Y-103712812D01*
X185062061Y-103955249D01*
X185115936Y-103955249D01*
X185196748Y-103982187D01*
X185331435Y-104116874D01*
X185358372Y-104197685D01*
X185358373Y-104251561D01*
X185331435Y-104332373D01*
X185196748Y-104467060D01*
X185115936Y-104493997D01*
X185062061Y-104493997D01*
X184981249Y-104467060D01*
X184846562Y-104332373D01*
X184819624Y-104251561D01*
X184819625Y-104197685D01*
X183742128Y-100687939D02*
X184307814Y-100122254D01*
X184523313Y-100337753D01*
X184550251Y-100418566D01*
X184550251Y-100472440D01*
X184523313Y-100553253D01*
X184442501Y-100634064D01*
X184361689Y-100661002D01*
X184307815Y-100661002D01*
X184227002Y-100634064D01*
X184011503Y-100418565D01*
X184442501Y-101065063D02*
X184711875Y-101334437D01*
X184227001Y-101172812D02*
X184981249Y-100795689D01*
X184604126Y-101549936D01*
X185412247Y-101603810D02*
X185035123Y-101980934D01*
X185493059Y-101253625D02*
X184954312Y-101522999D01*
X185304498Y-101873185D01*
X183742128Y-98147939D02*
X184307814Y-97582254D01*
X184523313Y-97797753D01*
X184550251Y-97878566D01*
X184550251Y-97932440D01*
X184523313Y-98013253D01*
X184442501Y-98094064D01*
X184361689Y-98121002D01*
X184307815Y-98121002D01*
X184227002Y-98094064D01*
X184011503Y-97878565D01*
X184442501Y-98525063D02*
X184711875Y-98794437D01*
X184227001Y-98632812D02*
X184981249Y-98255689D01*
X184604126Y-99009936D01*
X185304498Y-98578938D02*
X185654684Y-98929124D01*
X185250623Y-98956061D01*
X185331435Y-99036874D01*
X185358372Y-99117685D01*
X185358373Y-99171561D01*
X185331435Y-99252373D01*
X185196748Y-99387060D01*
X185115936Y-99413997D01*
X185062061Y-99413997D01*
X184981249Y-99387060D01*
X184819624Y-99225435D01*
X184792687Y-99144623D01*
X184792688Y-99090748D01*
X183742128Y-95607939D02*
X184307814Y-95042254D01*
X184523313Y-95257753D01*
X184550251Y-95338566D01*
X184550251Y-95392440D01*
X184523313Y-95473253D01*
X184442501Y-95554064D01*
X184361689Y-95581002D01*
X184307815Y-95581002D01*
X184227002Y-95554064D01*
X184011503Y-95338565D01*
X184442501Y-95985063D02*
X184711875Y-96254437D01*
X184227001Y-96092812D02*
X184981249Y-95715689D01*
X184604126Y-96469936D01*
X185277561Y-96119750D02*
X185331435Y-96119750D01*
X185412247Y-96146688D01*
X185546934Y-96281374D01*
X185573872Y-96362186D01*
X185573872Y-96416061D01*
X185546934Y-96496874D01*
X185493060Y-96550748D01*
X185385310Y-96604623D01*
X184738812Y-96604623D01*
X185088999Y-96954810D01*
X183742128Y-90527939D02*
X184307814Y-89962254D01*
X184523313Y-90177753D01*
X184550251Y-90258566D01*
X184550251Y-90312440D01*
X184523313Y-90393253D01*
X184442501Y-90474064D01*
X184361689Y-90501002D01*
X184307815Y-90501002D01*
X184227002Y-90474064D01*
X184011503Y-90258565D01*
X184442501Y-90905063D02*
X184711875Y-91174437D01*
X184227001Y-91012812D02*
X184981249Y-90635689D01*
X184604126Y-91389936D01*
X185466122Y-91120562D02*
X185519997Y-91174437D01*
X185546934Y-91255249D01*
X185546934Y-91309123D01*
X185519997Y-91389936D01*
X185439185Y-91524623D01*
X185304498Y-91659310D01*
X185169811Y-91740123D01*
X185088999Y-91767059D01*
X185035123Y-91767060D01*
X184954312Y-91740123D01*
X184900437Y-91686247D01*
X184873499Y-91605436D01*
X184873499Y-91551560D01*
X184900437Y-91470748D01*
X184981249Y-91336061D01*
X185115936Y-91201374D01*
X185250623Y-91120562D01*
X185331435Y-91093624D01*
X185385310Y-91093625D01*
X185466122Y-91120562D01*
X183742128Y-93067939D02*
X184307814Y-92502254D01*
X184523313Y-92717753D01*
X184550251Y-92798566D01*
X184550251Y-92852440D01*
X184523313Y-92933253D01*
X184442501Y-93014064D01*
X184361689Y-93041002D01*
X184307815Y-93041002D01*
X184227002Y-93014064D01*
X184011503Y-92798565D01*
X184442501Y-93445063D02*
X184711875Y-93714437D01*
X184227001Y-93552812D02*
X184981249Y-93175689D01*
X184604126Y-93929936D01*
X185088999Y-94414810D02*
X184765750Y-94091561D01*
X184927374Y-94253185D02*
X185493059Y-93687499D01*
X185358373Y-93714437D01*
X185250623Y-93714437D01*
X185169811Y-93687499D01*
X191770000Y-92663476D02*
X191451802Y-92981674D01*
X196896524Y-97790000D02*
X196525293Y-98161231D01*
X191770000Y-102916524D02*
X192141231Y-102545293D01*
X186643476Y-97790000D02*
X187014707Y-97418769D01*
X191770000Y-92663476D02*
X192141231Y-93034707D01*
X186643476Y-97790000D02*
X187014707Y-98161231D01*
X191770000Y-102916524D02*
X191398769Y-102545293D01*
X196896524Y-97790000D02*
X196525293Y-97418769D01*
X191451802Y-92981674D02*
X190479530Y-92009402D01*
X193837564Y-119670000D02*
G75*
G03X193837564Y-119670000I-2015564J0D01*
G01*
X194072000Y-116420000D02*
X189572000Y-116420000D01*
X195322000Y-120420000D02*
X195322000Y-118920000D01*
X189572000Y-122920000D02*
X194072000Y-122920000D01*
X188322000Y-118920000D02*
X188322000Y-120420000D01*
X191550000Y-90375000D02*
X192050000Y-90375000D01*
X192050000Y-89325000D02*
X191550000Y-89325000D01*
X192020000Y-105139000D02*
X191520000Y-105139000D01*
X191520000Y-106189000D02*
X192020000Y-106189000D01*
X190170000Y-109970000D02*
X192870000Y-109970000D01*
X190170000Y-108470000D02*
X192870000Y-108470000D01*
X191670000Y-109370000D02*
X191670000Y-109120000D01*
X191670000Y-109120000D02*
X191520000Y-109270000D01*
X191420000Y-108870000D02*
X191420000Y-109570000D01*
X191770000Y-109220000D02*
X192120000Y-109220000D01*
X191420000Y-109220000D02*
X191770000Y-108870000D01*
X191770000Y-108870000D02*
X191770000Y-109570000D01*
X191770000Y-109570000D02*
X191420000Y-109220000D01*
X195861118Y-92621386D02*
X195288698Y-93193806D01*
X195255026Y-93294821D01*
X195255026Y-93362164D01*
X195288698Y-93463179D01*
X195423386Y-93597867D01*
X195524401Y-93631539D01*
X195591744Y-93631539D01*
X195692759Y-93597867D01*
X196265179Y-93025447D01*
X196265179Y-94439661D02*
X195861118Y-94035599D01*
X196063148Y-94237630D02*
X196770255Y-93530523D01*
X196601896Y-93564195D01*
X196467210Y-93564195D01*
X196366194Y-93530523D01*
X190444619Y-116149381D02*
X190111285Y-115673190D01*
X189873190Y-116149381D02*
X189873190Y-115149381D01*
X190254143Y-115149381D01*
X190349381Y-115197000D01*
X190397000Y-115244619D01*
X190444619Y-115339857D01*
X190444619Y-115482714D01*
X190397000Y-115577952D01*
X190349381Y-115625571D01*
X190254143Y-115673190D01*
X189873190Y-115673190D01*
X190873190Y-115625571D02*
X191206524Y-115625571D01*
X191349381Y-116149381D02*
X190873190Y-116149381D01*
X190873190Y-115149381D01*
X191349381Y-115149381D01*
X191730333Y-116101762D02*
X191873190Y-116149381D01*
X192111286Y-116149381D01*
X192206524Y-116101762D01*
X192254143Y-116054143D01*
X192301762Y-115958905D01*
X192301762Y-115863667D01*
X192254143Y-115768429D01*
X192206524Y-115720810D01*
X192111286Y-115673190D01*
X191920809Y-115625571D01*
X191825571Y-115577952D01*
X191777952Y-115530333D01*
X191730333Y-115435095D01*
X191730333Y-115339857D01*
X191777952Y-115244619D01*
X191825571Y-115197000D01*
X191920809Y-115149381D01*
X192158905Y-115149381D01*
X192301762Y-115197000D01*
X192730333Y-115625571D02*
X193063667Y-115625571D01*
X193206524Y-116149381D02*
X192730333Y-116149381D01*
X192730333Y-115149381D01*
X193206524Y-115149381D01*
X193492238Y-115149381D02*
X194063667Y-115149381D01*
X193777952Y-116149381D02*
X193777952Y-115149381D01*
X191603334Y-91765381D02*
X191270000Y-91289190D01*
X191031905Y-91765381D02*
X191031905Y-90765381D01*
X191412858Y-90765381D01*
X191508096Y-90813000D01*
X191555715Y-90860619D01*
X191603334Y-90955857D01*
X191603334Y-91098714D01*
X191555715Y-91193952D01*
X191508096Y-91241571D01*
X191412858Y-91289190D01*
X191031905Y-91289190D01*
X191984286Y-90860619D02*
X192031905Y-90813000D01*
X192127143Y-90765381D01*
X192365239Y-90765381D01*
X192460477Y-90813000D01*
X192508096Y-90860619D01*
X192555715Y-90955857D01*
X192555715Y-91051095D01*
X192508096Y-91193952D01*
X191936667Y-91765381D01*
X192555715Y-91765381D01*
X191603334Y-107513381D02*
X191270000Y-107037190D01*
X191031905Y-107513381D02*
X191031905Y-106513381D01*
X191412858Y-106513381D01*
X191508096Y-106561000D01*
X191555715Y-106608619D01*
X191603334Y-106703857D01*
X191603334Y-106846714D01*
X191555715Y-106941952D01*
X191508096Y-106989571D01*
X191412858Y-107037190D01*
X191031905Y-107037190D01*
X191936667Y-106513381D02*
X192555715Y-106513381D01*
X192222381Y-106894333D01*
X192365239Y-106894333D01*
X192460477Y-106941952D01*
X192508096Y-106989571D01*
X192555715Y-107084810D01*
X192555715Y-107322905D01*
X192508096Y-107418143D01*
X192460477Y-107465762D01*
X192365239Y-107513381D01*
X192079524Y-107513381D01*
X191984286Y-107465762D01*
X191936667Y-107418143D01*
X191031905Y-111323381D02*
X191031905Y-110323381D01*
X191270000Y-110323381D01*
X191412858Y-110371000D01*
X191508096Y-110466238D01*
X191555715Y-110561476D01*
X191603334Y-110751952D01*
X191603334Y-110894810D01*
X191555715Y-111085286D01*
X191508096Y-111180524D01*
X191412858Y-111275762D01*
X191270000Y-111323381D01*
X191031905Y-111323381D01*
X192555715Y-111323381D02*
X191984286Y-111323381D01*
X192270000Y-111323381D02*
X192270000Y-110323381D01*
X192174762Y-110466238D01*
X192079524Y-110561476D01*
X191984286Y-110609095D01*
M02*
