G04 #@! TF.FileFunction,Copper,L1,Top,Signal*
%FSLAX46Y46*%
G04 Gerber Fmt 4.6, Leading zero omitted, Abs format (unit mm)*
G04 Created by KiCad (PCBNEW 4.0.4+e1-6308~48~ubuntu16.04.1-stable) date Wed Oct 26 20:21:12 2016*
%MOMM*%
%LPD*%
G01*
G04 APERTURE LIST*
%ADD10C,0.101600*%
%ADD11R,1.727200X2.032000*%
%ADD12O,1.727200X2.032000*%
%ADD13R,1.600200X2.400300*%
%ADD14C,2.000000*%
%ADD15R,2.032000X1.727200*%
%ADD16O,2.032000X1.727200*%
%ADD17R,0.400000X0.600000*%
%ADD18R,1.198880X1.198880*%
%ADD19C,0.762000*%
%ADD20C,0.254000*%
%ADD21C,0.400000*%
%ADD22C,0.500000*%
G04 APERTURE END LIST*
D10*
D11*
X198120000Y-81280000D03*
D12*
X195580000Y-81280000D03*
X193040000Y-81280000D03*
X190500000Y-81280000D03*
X187960000Y-81280000D03*
X185420000Y-81280000D03*
D13*
X189519560Y-85300000D03*
X194020440Y-85300000D03*
D10*
G36*
X190090621Y-92398311D02*
X190267398Y-92221534D01*
X191186637Y-93140773D01*
X191009860Y-93317550D01*
X190090621Y-92398311D01*
X190090621Y-92398311D01*
G37*
G36*
X189737068Y-92751864D02*
X189913845Y-92575087D01*
X190833084Y-93494326D01*
X190656307Y-93671103D01*
X189737068Y-92751864D01*
X189737068Y-92751864D01*
G37*
G36*
X189383514Y-93105418D02*
X189560291Y-92928641D01*
X190479530Y-93847880D01*
X190302753Y-94024657D01*
X189383514Y-93105418D01*
X189383514Y-93105418D01*
G37*
G36*
X189029961Y-93458971D02*
X189206738Y-93282194D01*
X190125977Y-94201433D01*
X189949200Y-94378210D01*
X189029961Y-93458971D01*
X189029961Y-93458971D01*
G37*
G36*
X188676408Y-93812524D02*
X188853185Y-93635747D01*
X189772424Y-94554986D01*
X189595647Y-94731763D01*
X188676408Y-93812524D01*
X188676408Y-93812524D01*
G37*
G36*
X188322854Y-94166078D02*
X188499631Y-93989301D01*
X189418870Y-94908540D01*
X189242093Y-95085317D01*
X188322854Y-94166078D01*
X188322854Y-94166078D01*
G37*
G36*
X187969301Y-94519631D02*
X188146078Y-94342854D01*
X189065317Y-95262093D01*
X188888540Y-95438870D01*
X187969301Y-94519631D01*
X187969301Y-94519631D01*
G37*
G36*
X187615747Y-94873185D02*
X187792524Y-94696408D01*
X188711763Y-95615647D01*
X188534986Y-95792424D01*
X187615747Y-94873185D01*
X187615747Y-94873185D01*
G37*
G36*
X187262194Y-95226738D02*
X187438971Y-95049961D01*
X188358210Y-95969200D01*
X188181433Y-96145977D01*
X187262194Y-95226738D01*
X187262194Y-95226738D01*
G37*
G36*
X186908641Y-95580291D02*
X187085418Y-95403514D01*
X188004657Y-96322753D01*
X187827880Y-96499530D01*
X186908641Y-95580291D01*
X186908641Y-95580291D01*
G37*
G36*
X186555087Y-95933845D02*
X186731864Y-95757068D01*
X187651103Y-96676307D01*
X187474326Y-96853084D01*
X186555087Y-95933845D01*
X186555087Y-95933845D01*
G37*
G36*
X186201534Y-96287398D02*
X186378311Y-96110621D01*
X187297550Y-97029860D01*
X187120773Y-97206637D01*
X186201534Y-96287398D01*
X186201534Y-96287398D01*
G37*
G36*
X186378311Y-99469379D02*
X186201534Y-99292602D01*
X187120773Y-98373363D01*
X187297550Y-98550140D01*
X186378311Y-99469379D01*
X186378311Y-99469379D01*
G37*
G36*
X186731864Y-99822932D02*
X186555087Y-99646155D01*
X187474326Y-98726916D01*
X187651103Y-98903693D01*
X186731864Y-99822932D01*
X186731864Y-99822932D01*
G37*
G36*
X187085418Y-100176486D02*
X186908641Y-99999709D01*
X187827880Y-99080470D01*
X188004657Y-99257247D01*
X187085418Y-100176486D01*
X187085418Y-100176486D01*
G37*
G36*
X187438971Y-100530039D02*
X187262194Y-100353262D01*
X188181433Y-99434023D01*
X188358210Y-99610800D01*
X187438971Y-100530039D01*
X187438971Y-100530039D01*
G37*
G36*
X187792524Y-100883592D02*
X187615747Y-100706815D01*
X188534986Y-99787576D01*
X188711763Y-99964353D01*
X187792524Y-100883592D01*
X187792524Y-100883592D01*
G37*
G36*
X188146078Y-101237146D02*
X187969301Y-101060369D01*
X188888540Y-100141130D01*
X189065317Y-100317907D01*
X188146078Y-101237146D01*
X188146078Y-101237146D01*
G37*
G36*
X188499631Y-101590699D02*
X188322854Y-101413922D01*
X189242093Y-100494683D01*
X189418870Y-100671460D01*
X188499631Y-101590699D01*
X188499631Y-101590699D01*
G37*
G36*
X188853185Y-101944253D02*
X188676408Y-101767476D01*
X189595647Y-100848237D01*
X189772424Y-101025014D01*
X188853185Y-101944253D01*
X188853185Y-101944253D01*
G37*
G36*
X189206738Y-102297806D02*
X189029961Y-102121029D01*
X189949200Y-101201790D01*
X190125977Y-101378567D01*
X189206738Y-102297806D01*
X189206738Y-102297806D01*
G37*
G36*
X189560291Y-102651359D02*
X189383514Y-102474582D01*
X190302753Y-101555343D01*
X190479530Y-101732120D01*
X189560291Y-102651359D01*
X189560291Y-102651359D01*
G37*
G36*
X189913845Y-103004913D02*
X189737068Y-102828136D01*
X190656307Y-101908897D01*
X190833084Y-102085674D01*
X189913845Y-103004913D01*
X189913845Y-103004913D01*
G37*
G36*
X190267398Y-103358466D02*
X190090621Y-103181689D01*
X191009860Y-102262450D01*
X191186637Y-102439227D01*
X190267398Y-103358466D01*
X190267398Y-103358466D01*
G37*
G36*
X192353363Y-102439227D02*
X192530140Y-102262450D01*
X193449379Y-103181689D01*
X193272602Y-103358466D01*
X192353363Y-102439227D01*
X192353363Y-102439227D01*
G37*
G36*
X192706916Y-102085674D02*
X192883693Y-101908897D01*
X193802932Y-102828136D01*
X193626155Y-103004913D01*
X192706916Y-102085674D01*
X192706916Y-102085674D01*
G37*
G36*
X193060470Y-101732120D02*
X193237247Y-101555343D01*
X194156486Y-102474582D01*
X193979709Y-102651359D01*
X193060470Y-101732120D01*
X193060470Y-101732120D01*
G37*
G36*
X193414023Y-101378567D02*
X193590800Y-101201790D01*
X194510039Y-102121029D01*
X194333262Y-102297806D01*
X193414023Y-101378567D01*
X193414023Y-101378567D01*
G37*
G36*
X193767576Y-101025014D02*
X193944353Y-100848237D01*
X194863592Y-101767476D01*
X194686815Y-101944253D01*
X193767576Y-101025014D01*
X193767576Y-101025014D01*
G37*
G36*
X194121130Y-100671460D02*
X194297907Y-100494683D01*
X195217146Y-101413922D01*
X195040369Y-101590699D01*
X194121130Y-100671460D01*
X194121130Y-100671460D01*
G37*
G36*
X194474683Y-100317907D02*
X194651460Y-100141130D01*
X195570699Y-101060369D01*
X195393922Y-101237146D01*
X194474683Y-100317907D01*
X194474683Y-100317907D01*
G37*
G36*
X194828237Y-99964353D02*
X195005014Y-99787576D01*
X195924253Y-100706815D01*
X195747476Y-100883592D01*
X194828237Y-99964353D01*
X194828237Y-99964353D01*
G37*
G36*
X195181790Y-99610800D02*
X195358567Y-99434023D01*
X196277806Y-100353262D01*
X196101029Y-100530039D01*
X195181790Y-99610800D01*
X195181790Y-99610800D01*
G37*
G36*
X195535343Y-99257247D02*
X195712120Y-99080470D01*
X196631359Y-99999709D01*
X196454582Y-100176486D01*
X195535343Y-99257247D01*
X195535343Y-99257247D01*
G37*
G36*
X195888897Y-98903693D02*
X196065674Y-98726916D01*
X196984913Y-99646155D01*
X196808136Y-99822932D01*
X195888897Y-98903693D01*
X195888897Y-98903693D01*
G37*
G36*
X196242450Y-98550140D02*
X196419227Y-98373363D01*
X197338466Y-99292602D01*
X197161689Y-99469379D01*
X196242450Y-98550140D01*
X196242450Y-98550140D01*
G37*
G36*
X196419227Y-97206637D02*
X196242450Y-97029860D01*
X197161689Y-96110621D01*
X197338466Y-96287398D01*
X196419227Y-97206637D01*
X196419227Y-97206637D01*
G37*
G36*
X196065674Y-96853084D02*
X195888897Y-96676307D01*
X196808136Y-95757068D01*
X196984913Y-95933845D01*
X196065674Y-96853084D01*
X196065674Y-96853084D01*
G37*
G36*
X195712120Y-96499530D02*
X195535343Y-96322753D01*
X196454582Y-95403514D01*
X196631359Y-95580291D01*
X195712120Y-96499530D01*
X195712120Y-96499530D01*
G37*
G36*
X195358567Y-96145977D02*
X195181790Y-95969200D01*
X196101029Y-95049961D01*
X196277806Y-95226738D01*
X195358567Y-96145977D01*
X195358567Y-96145977D01*
G37*
G36*
X195005014Y-95792424D02*
X194828237Y-95615647D01*
X195747476Y-94696408D01*
X195924253Y-94873185D01*
X195005014Y-95792424D01*
X195005014Y-95792424D01*
G37*
G36*
X194651460Y-95438870D02*
X194474683Y-95262093D01*
X195393922Y-94342854D01*
X195570699Y-94519631D01*
X194651460Y-95438870D01*
X194651460Y-95438870D01*
G37*
G36*
X194297907Y-95085317D02*
X194121130Y-94908540D01*
X195040369Y-93989301D01*
X195217146Y-94166078D01*
X194297907Y-95085317D01*
X194297907Y-95085317D01*
G37*
G36*
X193944353Y-94731763D02*
X193767576Y-94554986D01*
X194686815Y-93635747D01*
X194863592Y-93812524D01*
X193944353Y-94731763D01*
X193944353Y-94731763D01*
G37*
G36*
X193590800Y-94378210D02*
X193414023Y-94201433D01*
X194333262Y-93282194D01*
X194510039Y-93458971D01*
X193590800Y-94378210D01*
X193590800Y-94378210D01*
G37*
G36*
X193237247Y-94024657D02*
X193060470Y-93847880D01*
X193979709Y-92928641D01*
X194156486Y-93105418D01*
X193237247Y-94024657D01*
X193237247Y-94024657D01*
G37*
G36*
X192883693Y-93671103D02*
X192706916Y-93494326D01*
X193626155Y-92575087D01*
X193802932Y-92751864D01*
X192883693Y-93671103D01*
X192883693Y-93671103D01*
G37*
G36*
X192530140Y-93317550D02*
X192353363Y-93140773D01*
X193272602Y-92221534D01*
X193449379Y-92398311D01*
X192530140Y-93317550D01*
X192530140Y-93317550D01*
G37*
D14*
X195072000Y-117420000D03*
X195072000Y-121920000D03*
X188572000Y-117420000D03*
X188572000Y-121920000D03*
D15*
X182880000Y-81280000D03*
D16*
X182880000Y-83820000D03*
X182880000Y-86360000D03*
X182880000Y-88900000D03*
X182880000Y-91440000D03*
X182880000Y-93980000D03*
X182880000Y-96520000D03*
X182880000Y-99060000D03*
X182880000Y-101600000D03*
X182880000Y-104140000D03*
X182880000Y-106680000D03*
X182880000Y-109220000D03*
X182880000Y-111760000D03*
X182880000Y-114300000D03*
X182880000Y-116840000D03*
X182880000Y-119380000D03*
X182880000Y-121920000D03*
D15*
X200660000Y-81280000D03*
D16*
X200660000Y-83820000D03*
X200660000Y-86360000D03*
X200660000Y-88900000D03*
X200660000Y-91440000D03*
X200660000Y-93980000D03*
X200660000Y-96520000D03*
X200660000Y-99060000D03*
X200660000Y-101600000D03*
X200660000Y-104140000D03*
X200660000Y-106680000D03*
X200660000Y-109220000D03*
X200660000Y-111760000D03*
X200660000Y-114300000D03*
X200660000Y-116840000D03*
X200660000Y-119380000D03*
X200660000Y-121920000D03*
D17*
X192250000Y-89850000D03*
X191350000Y-89850000D03*
X191320000Y-105664000D03*
X192220000Y-105664000D03*
D18*
X192819020Y-109220000D03*
X190720980Y-109220000D03*
D19*
X188700000Y-97300000D03*
X193025000Y-87325000D03*
X195525000Y-88450000D03*
X191850000Y-100730000D03*
X191810000Y-94250000D03*
X188620400Y-109220000D03*
X195834000Y-86614000D03*
X192531994Y-95758000D03*
X190410000Y-96960000D03*
X197800000Y-97850000D03*
X198200000Y-100150000D03*
X184775000Y-91200000D03*
X186075000Y-84675000D03*
X194680000Y-97350000D03*
X188484781Y-98523522D03*
X193701990Y-96062294D03*
X185950000Y-88625000D03*
X187850000Y-86580000D03*
X191680000Y-86530000D03*
X186000000Y-89700000D03*
X189700000Y-90500000D03*
X195326000Y-106680000D03*
X195790000Y-97820000D03*
X190120000Y-95740000D03*
X194919600Y-109220000D03*
D20*
X188700000Y-96487767D02*
X188700000Y-96761185D01*
X187810202Y-95597969D02*
X188700000Y-96487767D01*
X188700000Y-96761185D02*
X188700000Y-97300000D01*
D21*
X187050000Y-87330000D02*
X188100000Y-88380000D01*
X188100000Y-88380000D02*
X188100000Y-88600000D01*
D20*
X188170000Y-88450000D02*
X188170000Y-88595000D01*
D22*
X188170000Y-88595000D02*
X188425000Y-88850000D01*
X188425000Y-88850000D02*
X195125000Y-88850000D01*
X195125000Y-88850000D02*
X195525000Y-88450000D01*
D21*
X193025000Y-87325000D02*
X193450000Y-87325000D01*
X193450000Y-87325000D02*
X194175000Y-88050000D01*
X194175000Y-88050000D02*
X195775000Y-88050000D01*
X195775000Y-88050000D02*
X195775000Y-88200000D01*
X195775000Y-88200000D02*
X195525000Y-88450000D01*
X191900000Y-88075000D02*
X191900000Y-87900000D01*
X192471201Y-87328799D02*
X193021201Y-87328799D01*
X191900000Y-87900000D02*
X192471201Y-87328799D01*
D22*
X192500000Y-87950000D02*
X192325000Y-88125000D01*
X192325000Y-88125000D02*
X192100000Y-88125000D01*
X192100000Y-88125000D02*
X192150000Y-88175000D01*
X192150000Y-88175000D02*
X192925000Y-88175000D01*
X192900000Y-87850000D02*
X192125000Y-87850000D01*
D20*
X192125000Y-87850000D02*
X191900000Y-88075000D01*
D22*
X192950000Y-88150000D02*
X193825000Y-88150000D01*
X193825000Y-88150000D02*
X193900000Y-88225000D01*
X193900000Y-88225000D02*
X193775000Y-88225000D01*
X193775000Y-88225000D02*
X193300000Y-87750000D01*
D20*
X193375000Y-87850000D02*
X193375000Y-87825000D01*
X193375000Y-87825000D02*
X193300000Y-87750000D01*
X192925000Y-88175000D02*
X192950000Y-88150000D01*
X192938815Y-87950000D02*
X192500000Y-87950000D01*
X193025000Y-87325000D02*
X193025000Y-87863815D01*
D22*
X193025000Y-87325000D02*
X192644001Y-87705999D01*
D21*
X187048799Y-87328799D02*
X187795000Y-88075000D01*
X187795000Y-88075000D02*
X191900000Y-88075000D01*
X188170000Y-88450000D02*
X195500000Y-88450000D01*
X191850000Y-100730000D02*
X191850000Y-104275000D01*
X191850000Y-104275000D02*
X191325000Y-104800000D01*
X191325000Y-104800000D02*
X191325000Y-105575000D01*
D20*
X193021201Y-87328799D02*
X193025000Y-87325000D01*
X192250000Y-89975000D02*
X192250000Y-92118171D01*
X192250000Y-92118171D02*
X192901371Y-92769542D01*
D21*
X198120000Y-81280000D02*
X198120000Y-82550000D01*
X198120000Y-82550000D02*
X197000000Y-83670000D01*
X197000000Y-86975000D02*
X195525000Y-88450000D01*
X197000000Y-83670000D02*
X197000000Y-86975000D01*
D20*
X182880000Y-81280000D02*
X183032400Y-81280000D01*
D21*
X183032400Y-81280000D02*
X184970000Y-83217600D01*
X184970000Y-83217600D02*
X184970000Y-85250000D01*
X184970000Y-85250000D02*
X187048799Y-87328799D01*
D20*
X187048799Y-87328799D02*
X187048799Y-87371377D01*
X191850000Y-101268815D02*
X191850000Y-100730000D01*
X190638629Y-102810458D02*
X191850000Y-101599087D01*
X191850000Y-101599087D02*
X191850000Y-101268815D01*
X192901371Y-92769542D02*
X192900458Y-92769542D01*
X192900458Y-92769542D02*
X191810000Y-93860000D01*
X191810000Y-93860000D02*
X191810000Y-94250000D01*
X190720980Y-109220000D02*
X188620400Y-109220000D01*
X195834000Y-86075185D02*
X195834000Y-86614000D01*
X193040000Y-81280000D02*
X193040000Y-81432400D01*
X193040000Y-81432400D02*
X195834000Y-84226400D01*
X195834000Y-84226400D02*
X195834000Y-86075185D01*
X192531994Y-97551994D02*
X192531994Y-96296815D01*
X193724595Y-98744595D02*
X192531994Y-97551994D01*
X195906576Y-98744595D02*
X193724595Y-98744595D01*
X196436905Y-99274924D02*
X195906576Y-98744595D01*
X192531994Y-96296815D02*
X192531994Y-95758000D01*
X192531994Y-95219185D02*
X192531994Y-95758000D01*
X192531994Y-93846025D02*
X192531994Y-95219185D01*
X193254924Y-93123095D02*
X192531994Y-93846025D01*
X190809740Y-101932241D02*
X190809740Y-97359740D01*
X190285076Y-102456905D02*
X190809740Y-101932241D01*
X190809740Y-97359740D02*
X190790999Y-97340999D01*
X190790999Y-97340999D02*
X190410000Y-96960000D01*
X188163755Y-95244416D02*
X189879339Y-96960000D01*
X189879339Y-96960000D02*
X190410000Y-96960000D01*
X197800000Y-97668171D02*
X197800000Y-97850000D01*
X196790458Y-96658629D02*
X197800000Y-97668171D01*
X196083351Y-99628478D02*
X196613680Y-100158807D01*
X196613680Y-100158807D02*
X198191193Y-100158807D01*
X198191193Y-100158807D02*
X198200000Y-100150000D01*
X184826447Y-91200000D02*
X184775000Y-91200000D01*
X188517309Y-94890862D02*
X184826447Y-91200000D01*
X186455999Y-84294001D02*
X186075000Y-84675000D01*
X187960000Y-82790000D02*
X186455999Y-84294001D01*
X187960000Y-81280000D02*
X187960000Y-82790000D01*
X188572000Y-117420000D02*
X189986213Y-117420000D01*
X189986213Y-117420000D02*
X195072000Y-117420000D01*
X194684873Y-97350000D02*
X194680000Y-97350000D01*
X196083351Y-95951522D02*
X194684873Y-97350000D01*
X187456649Y-95951522D02*
X182945127Y-91440000D01*
X182945127Y-91440000D02*
X182880000Y-91440000D01*
X187103095Y-96298095D02*
X184805000Y-94000000D01*
X184805000Y-94000000D02*
X182900000Y-94000000D01*
X182900000Y-94000000D02*
X182880000Y-93980000D01*
X186749542Y-96658629D02*
X185848913Y-95758000D01*
X185848913Y-95758000D02*
X183642000Y-95758000D01*
X183642000Y-95758000D02*
X182880000Y-96520000D01*
X186749542Y-98921371D02*
X185721913Y-99949000D01*
X185721913Y-99949000D02*
X183769000Y-99949000D01*
X183769000Y-99949000D02*
X182880000Y-99060000D01*
X187103095Y-99274924D02*
X187075076Y-99274924D01*
X187075076Y-99274924D02*
X185943790Y-100406210D01*
X185943790Y-100406210D02*
X184073790Y-100406210D01*
X184073790Y-100406210D02*
X182880000Y-101600000D01*
X188484781Y-98600346D02*
X188484781Y-98523522D01*
X187456649Y-99628478D02*
X188484781Y-98600346D01*
X187456649Y-99628478D02*
X182945127Y-104140000D01*
X182945127Y-104140000D02*
X182880000Y-104140000D01*
X183032400Y-106680000D02*
X182880000Y-106680000D01*
X184226210Y-103566023D02*
X184226210Y-105486190D01*
X187810202Y-99982031D02*
X184226210Y-103566023D01*
X184226210Y-105486190D02*
X183032400Y-106680000D01*
X183032400Y-109220000D02*
X182880000Y-109220000D01*
X184683421Y-103815918D02*
X184683421Y-107568979D01*
X188163755Y-100335584D02*
X184683421Y-103815918D01*
X184683421Y-107568979D02*
X183032400Y-109220000D01*
X198628844Y-105709505D02*
X198628844Y-109881244D01*
X200507600Y-111760000D02*
X200660000Y-111760000D01*
X198628844Y-109881244D02*
X200507600Y-111760000D01*
X194315584Y-101396245D02*
X198628844Y-105709505D01*
X200507600Y-109220000D02*
X200660000Y-109220000D01*
X199086055Y-107798455D02*
X200507600Y-109220000D01*
X199086055Y-105459608D02*
X199086055Y-107798455D01*
X194669138Y-101042691D02*
X199086055Y-105459608D01*
X195022691Y-100689138D02*
X200660000Y-106326447D01*
X200660000Y-106326447D02*
X200660000Y-106680000D01*
X195376245Y-100335584D02*
X195385584Y-100335584D01*
X195385584Y-100335584D02*
X199190000Y-104140000D01*
X199190000Y-104140000D02*
X200660000Y-104140000D01*
X195729798Y-99982031D02*
X197347767Y-101600000D01*
X197347767Y-101600000D02*
X200660000Y-101600000D01*
X199390000Y-97942400D02*
X200507600Y-99060000D01*
X196967234Y-95774747D02*
X197688535Y-95774747D01*
X196436905Y-96305076D02*
X196967234Y-95774747D01*
X197688535Y-95774747D02*
X199390000Y-97476212D01*
X199390000Y-97476212D02*
X199390000Y-97942400D01*
X200507600Y-99060000D02*
X200660000Y-99060000D01*
X188517309Y-100689138D02*
X188510862Y-100689138D01*
X188510862Y-100689138D02*
X185140632Y-104059368D01*
X185140632Y-104059368D02*
X185140632Y-109651768D01*
X185140632Y-109651768D02*
X183032400Y-111760000D01*
X183032400Y-111760000D02*
X182880000Y-111760000D01*
X188870862Y-101042691D02*
X188857309Y-101042691D01*
X188857309Y-101042691D02*
X185650000Y-104250000D01*
X185650000Y-104250000D02*
X185650000Y-111550000D01*
X185650000Y-111550000D02*
X182900000Y-114300000D01*
X182900000Y-114300000D02*
X182880000Y-114300000D01*
X183032400Y-116840000D02*
X182880000Y-116840000D01*
X186135578Y-113736822D02*
X183032400Y-116840000D01*
X189224416Y-101396245D02*
X186135578Y-104485083D01*
X186135578Y-104485083D02*
X186135578Y-113736822D01*
X195729798Y-95597969D02*
X196260127Y-95067640D01*
X196260127Y-95067640D02*
X199055240Y-95067640D01*
X199055240Y-95067640D02*
X200507600Y-96520000D01*
X200507600Y-96520000D02*
X200660000Y-96520000D01*
X195376245Y-95244416D02*
X196640661Y-93980000D01*
X196640661Y-93980000D02*
X200660000Y-93980000D01*
X195022691Y-94890862D02*
X198473553Y-91440000D01*
X198473553Y-91440000D02*
X200660000Y-91440000D01*
X194669138Y-94537309D02*
X200306447Y-88900000D01*
X200306447Y-88900000D02*
X200660000Y-88900000D01*
X193962031Y-93830202D02*
X198442789Y-89349444D01*
X198442789Y-89349444D02*
X198442789Y-85884811D01*
X198442789Y-85884811D02*
X200507600Y-83820000D01*
X200507600Y-83820000D02*
X200660000Y-83820000D01*
X193608478Y-93476649D02*
X197985578Y-89099549D01*
X197985578Y-84414422D02*
X199980000Y-82420000D01*
X197985578Y-89099549D02*
X197985578Y-84414422D01*
X199980000Y-82420000D02*
X199980000Y-81810000D01*
X200130000Y-81810000D02*
X200660000Y-81280000D01*
X199980000Y-81810000D02*
X200130000Y-81810000D01*
X186592789Y-115819611D02*
X183032400Y-119380000D01*
X183032400Y-119380000D02*
X182880000Y-119380000D01*
X186592789Y-104734978D02*
X186592789Y-115819611D01*
X189577969Y-101749798D02*
X186592789Y-104734978D01*
X189931522Y-102103351D02*
X187050000Y-104984873D01*
X187050000Y-104984873D02*
X187050000Y-117902400D01*
X183032400Y-121920000D02*
X182880000Y-121920000D01*
X187050000Y-117902400D02*
X183032400Y-121920000D01*
X192901371Y-102810458D02*
X196800000Y-106709087D01*
X196800000Y-106709087D02*
X196800000Y-118212400D01*
X196800000Y-118212400D02*
X200507600Y-121920000D01*
X200507600Y-121920000D02*
X200660000Y-121920000D01*
X197257211Y-116129611D02*
X200507600Y-119380000D01*
X200507600Y-119380000D02*
X200660000Y-119380000D01*
X193254924Y-102456905D02*
X197257211Y-106459192D01*
X197257211Y-106459192D02*
X197257211Y-116129611D01*
X200507600Y-116840000D02*
X200660000Y-116840000D01*
X197714422Y-114046822D02*
X200507600Y-116840000D01*
X197714422Y-106209295D02*
X197714422Y-114046822D01*
X193608478Y-102103351D02*
X197714422Y-106209295D01*
X200507600Y-114300000D02*
X200660000Y-114300000D01*
X198171633Y-111964033D02*
X200507600Y-114300000D01*
X193962031Y-101749798D02*
X198171633Y-105959400D01*
X198171633Y-105959400D02*
X198171633Y-111964033D01*
X190285076Y-93123095D02*
X187568413Y-90406432D01*
X187568413Y-90406432D02*
X187568413Y-88968413D01*
X187568413Y-88968413D02*
X184960000Y-86360000D01*
X184960000Y-86360000D02*
X184150000Y-86360000D01*
X184150000Y-86360000D02*
X182880000Y-86360000D01*
X194315584Y-94183755D02*
X193701990Y-94797349D01*
X193701990Y-95523479D02*
X193701990Y-96062294D01*
X193701990Y-94797349D02*
X193701990Y-95523479D01*
X194315584Y-94183755D02*
X198900000Y-89599339D01*
X198900000Y-89599339D02*
X198900000Y-87967600D01*
X198900000Y-87967600D02*
X200507600Y-86360000D01*
X200507600Y-86360000D02*
X200660000Y-86360000D01*
X186330999Y-89005999D02*
X185950000Y-88625000D01*
X187011202Y-89686202D02*
X186330999Y-89005999D01*
X187011202Y-90556329D02*
X187011202Y-89686202D01*
X189931522Y-93476649D02*
X187011202Y-90556329D01*
X188070000Y-86360000D02*
X187850000Y-86580000D01*
X189519560Y-86360000D02*
X188070000Y-86360000D01*
X194020440Y-86360000D02*
X191850000Y-86360000D01*
X191850000Y-86360000D02*
X191680000Y-86530000D01*
X189577969Y-93830202D02*
X186000000Y-90252233D01*
X186000000Y-90252233D02*
X186000000Y-90238815D01*
X186000000Y-90238815D02*
X186000000Y-89700000D01*
X189224416Y-94183755D02*
X185040661Y-90000000D01*
X185040661Y-90000000D02*
X184500000Y-90000000D01*
X184500000Y-90000000D02*
X184482400Y-90017600D01*
X184482400Y-90017600D02*
X184150000Y-90017600D01*
X184150000Y-90017600D02*
X183032400Y-88900000D01*
X183032400Y-88900000D02*
X182880000Y-88900000D01*
X189700000Y-90500000D02*
X189700000Y-90475000D01*
X189700000Y-90475000D02*
X190325000Y-89850000D01*
X190325000Y-89850000D02*
X191300000Y-89850000D01*
X190638629Y-92769542D02*
X189975000Y-92105913D01*
X189975000Y-92105913D02*
X189975000Y-90775000D01*
X189975000Y-90775000D02*
X189700000Y-90500000D01*
X192250000Y-105675000D02*
X194321000Y-105675000D01*
X194321000Y-105675000D02*
X194945001Y-106299001D01*
X194945001Y-106299001D02*
X195326000Y-106680000D01*
X196790458Y-98921371D02*
X196790458Y-98920458D01*
X196790458Y-98920458D02*
X195790000Y-97920000D01*
X195790000Y-97920000D02*
X195790000Y-97820000D01*
X190073553Y-95740000D02*
X190120000Y-95740000D01*
X188870862Y-94537309D02*
X190073553Y-95740000D01*
X192819020Y-109220000D02*
X194919600Y-109220000D01*
G36*
X193685106Y-118344943D02*
X194144637Y-118805278D01*
X194745352Y-119054716D01*
X195395795Y-119055284D01*
X195996943Y-118806894D01*
X196177773Y-118626380D01*
X196261185Y-118751215D01*
X199051865Y-121541895D01*
X198976655Y-121920000D01*
X199090729Y-122493489D01*
X199251433Y-122734000D01*
X196513776Y-122734000D01*
X196717908Y-122184539D01*
X196693856Y-121534540D01*
X196491387Y-121045736D01*
X196224532Y-120947073D01*
X195251605Y-121920000D01*
X195265748Y-121934143D01*
X195086143Y-122113748D01*
X195072000Y-122099605D01*
X195057858Y-122113748D01*
X194878253Y-121934143D01*
X194892395Y-121920000D01*
X193919468Y-120947073D01*
X193652613Y-121045736D01*
X193426092Y-121655461D01*
X193450144Y-122305460D01*
X193627651Y-122734000D01*
X190013776Y-122734000D01*
X190217908Y-122184539D01*
X190193856Y-121534540D01*
X189991387Y-121045736D01*
X189724532Y-120947073D01*
X188751605Y-121920000D01*
X188765748Y-121934143D01*
X188586143Y-122113748D01*
X188572000Y-122099605D01*
X188557858Y-122113748D01*
X188378253Y-121934143D01*
X188392395Y-121920000D01*
X187419468Y-120947073D01*
X187152613Y-121045736D01*
X186926092Y-121655461D01*
X186950144Y-122305460D01*
X187127651Y-122734000D01*
X184288567Y-122734000D01*
X184449271Y-122493489D01*
X184563345Y-121920000D01*
X184488135Y-121541895D01*
X185262562Y-120767468D01*
X187599073Y-120767468D01*
X188572000Y-121740395D01*
X189544927Y-120767468D01*
X194099073Y-120767468D01*
X195072000Y-121740395D01*
X196044927Y-120767468D01*
X195946264Y-120500613D01*
X195336539Y-120274092D01*
X194686540Y-120298144D01*
X194197736Y-120500613D01*
X194099073Y-120767468D01*
X189544927Y-120767468D01*
X189446264Y-120500613D01*
X188836539Y-120274092D01*
X188186540Y-120298144D01*
X187697736Y-120500613D01*
X187599073Y-120767468D01*
X185262562Y-120767468D01*
X187434878Y-118595152D01*
X187644637Y-118805278D01*
X188245352Y-119054716D01*
X188895795Y-119055284D01*
X189496943Y-118806894D01*
X189957278Y-118347363D01*
X190025943Y-118182000D01*
X193617779Y-118182000D01*
X193685106Y-118344943D01*
X193685106Y-118344943D01*
G37*
X193685106Y-118344943D02*
X194144637Y-118805278D01*
X194745352Y-119054716D01*
X195395795Y-119055284D01*
X195996943Y-118806894D01*
X196177773Y-118626380D01*
X196261185Y-118751215D01*
X199051865Y-121541895D01*
X198976655Y-121920000D01*
X199090729Y-122493489D01*
X199251433Y-122734000D01*
X196513776Y-122734000D01*
X196717908Y-122184539D01*
X196693856Y-121534540D01*
X196491387Y-121045736D01*
X196224532Y-120947073D01*
X195251605Y-121920000D01*
X195265748Y-121934143D01*
X195086143Y-122113748D01*
X195072000Y-122099605D01*
X195057858Y-122113748D01*
X194878253Y-121934143D01*
X194892395Y-121920000D01*
X193919468Y-120947073D01*
X193652613Y-121045736D01*
X193426092Y-121655461D01*
X193450144Y-122305460D01*
X193627651Y-122734000D01*
X190013776Y-122734000D01*
X190217908Y-122184539D01*
X190193856Y-121534540D01*
X189991387Y-121045736D01*
X189724532Y-120947073D01*
X188751605Y-121920000D01*
X188765748Y-121934143D01*
X188586143Y-122113748D01*
X188572000Y-122099605D01*
X188557858Y-122113748D01*
X188378253Y-121934143D01*
X188392395Y-121920000D01*
X187419468Y-120947073D01*
X187152613Y-121045736D01*
X186926092Y-121655461D01*
X186950144Y-122305460D01*
X187127651Y-122734000D01*
X184288567Y-122734000D01*
X184449271Y-122493489D01*
X184563345Y-121920000D01*
X184488135Y-121541895D01*
X185262562Y-120767468D01*
X187599073Y-120767468D01*
X188572000Y-121740395D01*
X189544927Y-120767468D01*
X194099073Y-120767468D01*
X195072000Y-121740395D01*
X196044927Y-120767468D01*
X195946264Y-120500613D01*
X195336539Y-120274092D01*
X194686540Y-120298144D01*
X194197736Y-120500613D01*
X194099073Y-120767468D01*
X189544927Y-120767468D01*
X189446264Y-120500613D01*
X188836539Y-120274092D01*
X188186540Y-120298144D01*
X187697736Y-120500613D01*
X187599073Y-120767468D01*
X185262562Y-120767468D01*
X187434878Y-118595152D01*
X187644637Y-118805278D01*
X188245352Y-119054716D01*
X188895795Y-119055284D01*
X189496943Y-118806894D01*
X189957278Y-118347363D01*
X190025943Y-118182000D01*
X193617779Y-118182000D01*
X193685106Y-118344943D01*
G36*
X191015000Y-103929132D02*
X190734566Y-104209566D01*
X190553561Y-104480459D01*
X190490000Y-104800000D01*
X190490000Y-105277879D01*
X190472560Y-105364000D01*
X190472560Y-105964000D01*
X190516838Y-106199317D01*
X190655910Y-106415441D01*
X190868110Y-106560431D01*
X191120000Y-106611440D01*
X191520000Y-106611440D01*
X191755317Y-106567162D01*
X191766979Y-106559658D01*
X191768110Y-106560431D01*
X192020000Y-106611440D01*
X192420000Y-106611440D01*
X192655317Y-106567162D01*
X192857594Y-106437000D01*
X194005370Y-106437000D01*
X194309946Y-106741576D01*
X194309824Y-106881208D01*
X194464175Y-107254766D01*
X194749731Y-107540821D01*
X195123018Y-107695824D01*
X195527208Y-107696176D01*
X195900766Y-107541825D01*
X196038000Y-107404830D01*
X196038000Y-116073427D01*
X195999363Y-116034722D01*
X195398648Y-115785284D01*
X194748205Y-115784716D01*
X194147057Y-116033106D01*
X193686722Y-116492637D01*
X193618057Y-116658000D01*
X190026221Y-116658000D01*
X189958894Y-116495057D01*
X189499363Y-116034722D01*
X188898648Y-115785284D01*
X188248205Y-115784716D01*
X187812000Y-115964953D01*
X187812000Y-109505750D01*
X189486540Y-109505750D01*
X189486540Y-109945750D01*
X189583213Y-110179139D01*
X189761842Y-110357767D01*
X189995231Y-110454440D01*
X190435230Y-110454440D01*
X190593980Y-110295690D01*
X190593980Y-109347000D01*
X189645290Y-109347000D01*
X189486540Y-109505750D01*
X187812000Y-109505750D01*
X187812000Y-108494250D01*
X189486540Y-108494250D01*
X189486540Y-108934250D01*
X189645290Y-109093000D01*
X190593980Y-109093000D01*
X190593980Y-108144310D01*
X190847980Y-108144310D01*
X190847980Y-109093000D01*
X190867980Y-109093000D01*
X190867980Y-109347000D01*
X190847980Y-109347000D01*
X190847980Y-110295690D01*
X191006730Y-110454440D01*
X191446729Y-110454440D01*
X191680118Y-110357767D01*
X191762331Y-110275555D01*
X191967690Y-110415871D01*
X192219580Y-110466880D01*
X193418460Y-110466880D01*
X193653777Y-110422602D01*
X193869901Y-110283530D01*
X194014891Y-110071330D01*
X194032981Y-109982000D01*
X194244682Y-109982000D01*
X194343331Y-110080821D01*
X194716618Y-110235824D01*
X195120808Y-110236176D01*
X195494366Y-110081825D01*
X195780421Y-109796269D01*
X195935424Y-109422982D01*
X195935776Y-109018792D01*
X195781425Y-108645234D01*
X195495869Y-108359179D01*
X195122582Y-108204176D01*
X194718392Y-108203824D01*
X194344834Y-108358175D01*
X194244835Y-108458000D01*
X194035312Y-108458000D01*
X194021622Y-108385243D01*
X193882550Y-108169119D01*
X193670350Y-108024129D01*
X193418460Y-107973120D01*
X192219580Y-107973120D01*
X191984263Y-108017398D01*
X191768139Y-108156470D01*
X191762544Y-108164659D01*
X191680118Y-108082233D01*
X191446729Y-107985560D01*
X191006730Y-107985560D01*
X190847980Y-108144310D01*
X190593980Y-108144310D01*
X190435230Y-107985560D01*
X189995231Y-107985560D01*
X189761842Y-108082233D01*
X189583213Y-108260861D01*
X189486540Y-108494250D01*
X187812000Y-108494250D01*
X187812000Y-105300503D01*
X189564836Y-103547668D01*
X189574590Y-103551708D01*
X189632812Y-103639498D01*
X189809589Y-103816275D01*
X190007292Y-103951360D01*
X190258454Y-104005844D01*
X190511025Y-103958320D01*
X190725207Y-103816275D01*
X191015000Y-103526482D01*
X191015000Y-103929132D01*
X191015000Y-103929132D01*
G37*
X191015000Y-103929132D02*
X190734566Y-104209566D01*
X190553561Y-104480459D01*
X190490000Y-104800000D01*
X190490000Y-105277879D01*
X190472560Y-105364000D01*
X190472560Y-105964000D01*
X190516838Y-106199317D01*
X190655910Y-106415441D01*
X190868110Y-106560431D01*
X191120000Y-106611440D01*
X191520000Y-106611440D01*
X191755317Y-106567162D01*
X191766979Y-106559658D01*
X191768110Y-106560431D01*
X192020000Y-106611440D01*
X192420000Y-106611440D01*
X192655317Y-106567162D01*
X192857594Y-106437000D01*
X194005370Y-106437000D01*
X194309946Y-106741576D01*
X194309824Y-106881208D01*
X194464175Y-107254766D01*
X194749731Y-107540821D01*
X195123018Y-107695824D01*
X195527208Y-107696176D01*
X195900766Y-107541825D01*
X196038000Y-107404830D01*
X196038000Y-116073427D01*
X195999363Y-116034722D01*
X195398648Y-115785284D01*
X194748205Y-115784716D01*
X194147057Y-116033106D01*
X193686722Y-116492637D01*
X193618057Y-116658000D01*
X190026221Y-116658000D01*
X189958894Y-116495057D01*
X189499363Y-116034722D01*
X188898648Y-115785284D01*
X188248205Y-115784716D01*
X187812000Y-115964953D01*
X187812000Y-109505750D01*
X189486540Y-109505750D01*
X189486540Y-109945750D01*
X189583213Y-110179139D01*
X189761842Y-110357767D01*
X189995231Y-110454440D01*
X190435230Y-110454440D01*
X190593980Y-110295690D01*
X190593980Y-109347000D01*
X189645290Y-109347000D01*
X189486540Y-109505750D01*
X187812000Y-109505750D01*
X187812000Y-108494250D01*
X189486540Y-108494250D01*
X189486540Y-108934250D01*
X189645290Y-109093000D01*
X190593980Y-109093000D01*
X190593980Y-108144310D01*
X190847980Y-108144310D01*
X190847980Y-109093000D01*
X190867980Y-109093000D01*
X190867980Y-109347000D01*
X190847980Y-109347000D01*
X190847980Y-110295690D01*
X191006730Y-110454440D01*
X191446729Y-110454440D01*
X191680118Y-110357767D01*
X191762331Y-110275555D01*
X191967690Y-110415871D01*
X192219580Y-110466880D01*
X193418460Y-110466880D01*
X193653777Y-110422602D01*
X193869901Y-110283530D01*
X194014891Y-110071330D01*
X194032981Y-109982000D01*
X194244682Y-109982000D01*
X194343331Y-110080821D01*
X194716618Y-110235824D01*
X195120808Y-110236176D01*
X195494366Y-110081825D01*
X195780421Y-109796269D01*
X195935424Y-109422982D01*
X195935776Y-109018792D01*
X195781425Y-108645234D01*
X195495869Y-108359179D01*
X195122582Y-108204176D01*
X194718392Y-108203824D01*
X194344834Y-108358175D01*
X194244835Y-108458000D01*
X194035312Y-108458000D01*
X194021622Y-108385243D01*
X193882550Y-108169119D01*
X193670350Y-108024129D01*
X193418460Y-107973120D01*
X192219580Y-107973120D01*
X191984263Y-108017398D01*
X191768139Y-108156470D01*
X191762544Y-108164659D01*
X191680118Y-108082233D01*
X191446729Y-107985560D01*
X191006730Y-107985560D01*
X190847980Y-108144310D01*
X190593980Y-108144310D01*
X190435230Y-107985560D01*
X189995231Y-107985560D01*
X189761842Y-108082233D01*
X189583213Y-108260861D01*
X189486540Y-108494250D01*
X187812000Y-108494250D01*
X187812000Y-105300503D01*
X189564836Y-103547668D01*
X189574590Y-103551708D01*
X189632812Y-103639498D01*
X189809589Y-103816275D01*
X190007292Y-103951360D01*
X190258454Y-104005844D01*
X190511025Y-103958320D01*
X190725207Y-103816275D01*
X191015000Y-103526482D01*
X191015000Y-103929132D01*
G36*
X190793824Y-94451208D02*
X190948175Y-94824766D01*
X191233731Y-95110821D01*
X191607018Y-95265824D01*
X192011208Y-95266176D01*
X192384766Y-95111825D01*
X192670821Y-94826269D01*
X192806035Y-94500639D01*
X192888312Y-94556857D01*
X192956214Y-94659242D01*
X192965595Y-94668623D01*
X192939990Y-94797349D01*
X192939990Y-95387376D01*
X192841169Y-95486025D01*
X192686166Y-95859312D01*
X192685814Y-96263502D01*
X192840165Y-96637060D01*
X193125721Y-96923115D01*
X193499008Y-97078118D01*
X193692716Y-97078287D01*
X193664176Y-97147018D01*
X193663824Y-97551208D01*
X193818175Y-97924766D01*
X194103731Y-98210821D01*
X194477018Y-98365824D01*
X194881208Y-98366176D01*
X194911235Y-98353769D01*
X194928175Y-98394766D01*
X195204949Y-98672023D01*
X195077534Y-98799438D01*
X195003143Y-98908312D01*
X194900758Y-98976214D01*
X194723981Y-99152991D01*
X194649590Y-99261865D01*
X194547205Y-99329767D01*
X194370428Y-99506544D01*
X194296037Y-99615419D01*
X194193651Y-99683321D01*
X194016874Y-99860098D01*
X193942483Y-99968972D01*
X193840098Y-100036874D01*
X193663321Y-100213651D01*
X193588930Y-100322526D01*
X193486544Y-100390428D01*
X193309767Y-100567205D01*
X193235376Y-100676079D01*
X193132991Y-100743981D01*
X192956214Y-100920758D01*
X192881823Y-101029632D01*
X192804358Y-101081007D01*
X192865824Y-100932982D01*
X192866176Y-100528792D01*
X192711825Y-100155234D01*
X192426269Y-99869179D01*
X192052982Y-99714176D01*
X191648792Y-99713824D01*
X191275234Y-99868175D01*
X190989179Y-100153731D01*
X190834176Y-100527018D01*
X190833824Y-100931208D01*
X190988175Y-101304766D01*
X191015000Y-101331638D01*
X191015000Y-101356456D01*
X191005314Y-101366142D01*
X190995562Y-101362102D01*
X190937339Y-101274311D01*
X190760562Y-101097534D01*
X190651688Y-101023143D01*
X190583786Y-100920758D01*
X190407009Y-100743981D01*
X190298135Y-100669590D01*
X190230233Y-100567205D01*
X190053456Y-100390428D01*
X189944581Y-100316037D01*
X189876679Y-100213651D01*
X189699902Y-100036874D01*
X189591028Y-99962483D01*
X189523126Y-99860098D01*
X189346349Y-99683321D01*
X189237474Y-99608930D01*
X189169572Y-99506544D01*
X189051641Y-99388613D01*
X189059547Y-99385347D01*
X189345602Y-99099791D01*
X189500605Y-98726504D01*
X189500957Y-98322314D01*
X189387957Y-98048832D01*
X189560821Y-97876269D01*
X189715824Y-97502982D01*
X189716176Y-97098792D01*
X189561825Y-96725234D01*
X189462000Y-96625235D01*
X189462000Y-96518947D01*
X189543731Y-96600821D01*
X189917018Y-96755824D01*
X190321208Y-96756176D01*
X190694766Y-96601825D01*
X190980821Y-96316269D01*
X191135824Y-95942982D01*
X191136176Y-95538792D01*
X190981825Y-95165234D01*
X190696269Y-94879179D01*
X190461383Y-94781645D01*
X190583786Y-94659242D01*
X190658177Y-94550368D01*
X190760562Y-94482466D01*
X190793826Y-94449202D01*
X190793824Y-94451208D01*
X190793824Y-94451208D01*
G37*
X190793824Y-94451208D02*
X190948175Y-94824766D01*
X191233731Y-95110821D01*
X191607018Y-95265824D01*
X192011208Y-95266176D01*
X192384766Y-95111825D01*
X192670821Y-94826269D01*
X192806035Y-94500639D01*
X192888312Y-94556857D01*
X192956214Y-94659242D01*
X192965595Y-94668623D01*
X192939990Y-94797349D01*
X192939990Y-95387376D01*
X192841169Y-95486025D01*
X192686166Y-95859312D01*
X192685814Y-96263502D01*
X192840165Y-96637060D01*
X193125721Y-96923115D01*
X193499008Y-97078118D01*
X193692716Y-97078287D01*
X193664176Y-97147018D01*
X193663824Y-97551208D01*
X193818175Y-97924766D01*
X194103731Y-98210821D01*
X194477018Y-98365824D01*
X194881208Y-98366176D01*
X194911235Y-98353769D01*
X194928175Y-98394766D01*
X195204949Y-98672023D01*
X195077534Y-98799438D01*
X195003143Y-98908312D01*
X194900758Y-98976214D01*
X194723981Y-99152991D01*
X194649590Y-99261865D01*
X194547205Y-99329767D01*
X194370428Y-99506544D01*
X194296037Y-99615419D01*
X194193651Y-99683321D01*
X194016874Y-99860098D01*
X193942483Y-99968972D01*
X193840098Y-100036874D01*
X193663321Y-100213651D01*
X193588930Y-100322526D01*
X193486544Y-100390428D01*
X193309767Y-100567205D01*
X193235376Y-100676079D01*
X193132991Y-100743981D01*
X192956214Y-100920758D01*
X192881823Y-101029632D01*
X192804358Y-101081007D01*
X192865824Y-100932982D01*
X192866176Y-100528792D01*
X192711825Y-100155234D01*
X192426269Y-99869179D01*
X192052982Y-99714176D01*
X191648792Y-99713824D01*
X191275234Y-99868175D01*
X190989179Y-100153731D01*
X190834176Y-100527018D01*
X190833824Y-100931208D01*
X190988175Y-101304766D01*
X191015000Y-101331638D01*
X191015000Y-101356456D01*
X191005314Y-101366142D01*
X190995562Y-101362102D01*
X190937339Y-101274311D01*
X190760562Y-101097534D01*
X190651688Y-101023143D01*
X190583786Y-100920758D01*
X190407009Y-100743981D01*
X190298135Y-100669590D01*
X190230233Y-100567205D01*
X190053456Y-100390428D01*
X189944581Y-100316037D01*
X189876679Y-100213651D01*
X189699902Y-100036874D01*
X189591028Y-99962483D01*
X189523126Y-99860098D01*
X189346349Y-99683321D01*
X189237474Y-99608930D01*
X189169572Y-99506544D01*
X189051641Y-99388613D01*
X189059547Y-99385347D01*
X189345602Y-99099791D01*
X189500605Y-98726504D01*
X189500957Y-98322314D01*
X189387957Y-98048832D01*
X189560821Y-97876269D01*
X189715824Y-97502982D01*
X189716176Y-97098792D01*
X189561825Y-96725234D01*
X189462000Y-96625235D01*
X189462000Y-96518947D01*
X189543731Y-96600821D01*
X189917018Y-96755824D01*
X190321208Y-96756176D01*
X190694766Y-96601825D01*
X190980821Y-96316269D01*
X191135824Y-95942982D01*
X191136176Y-95538792D01*
X190981825Y-95165234D01*
X190696269Y-94879179D01*
X190461383Y-94781645D01*
X190583786Y-94659242D01*
X190658177Y-94550368D01*
X190760562Y-94482466D01*
X190793826Y-94449202D01*
X190793824Y-94451208D01*
G36*
X193167000Y-81153000D02*
X193187000Y-81153000D01*
X193187000Y-81407000D01*
X193167000Y-81407000D01*
X193167000Y-82766217D01*
X193399026Y-82887358D01*
X193414791Y-82884709D01*
X193942036Y-82630732D01*
X194313539Y-82214931D01*
X194520330Y-82524415D01*
X195006511Y-82849271D01*
X195580000Y-82963345D01*
X196153489Y-82849271D01*
X196639670Y-82524415D01*
X196649243Y-82510087D01*
X196653238Y-82531317D01*
X196772491Y-82716641D01*
X196409566Y-83079566D01*
X196228561Y-83350459D01*
X196165000Y-83670000D01*
X196165000Y-86629132D01*
X195579132Y-87215000D01*
X194520868Y-87215000D01*
X194453458Y-87147590D01*
X194820540Y-87147590D01*
X195055857Y-87103312D01*
X195271981Y-86964240D01*
X195416971Y-86752040D01*
X195467980Y-86500150D01*
X195467980Y-84099850D01*
X195423702Y-83864533D01*
X195284630Y-83648409D01*
X195072430Y-83503419D01*
X194820540Y-83452410D01*
X193220340Y-83452410D01*
X192985023Y-83496688D01*
X192768899Y-83635760D01*
X192623909Y-83847960D01*
X192572900Y-84099850D01*
X192572900Y-85598000D01*
X192084852Y-85598000D01*
X191882982Y-85514176D01*
X191478792Y-85513824D01*
X191105234Y-85668175D01*
X190967100Y-85806068D01*
X190967100Y-84099850D01*
X190922822Y-83864533D01*
X190783750Y-83648409D01*
X190571550Y-83503419D01*
X190319660Y-83452410D01*
X188719460Y-83452410D01*
X188484143Y-83496688D01*
X188268019Y-83635760D01*
X188123029Y-83847960D01*
X188072020Y-84099850D01*
X188072020Y-85572081D01*
X188052982Y-85564176D01*
X187648792Y-85563824D01*
X187275234Y-85718175D01*
X186989179Y-86003731D01*
X186964363Y-86063495D01*
X186499699Y-85598831D01*
X186649766Y-85536825D01*
X186935821Y-85251269D01*
X187090824Y-84877982D01*
X187090947Y-84736683D01*
X188498816Y-83328815D01*
X188597834Y-83180623D01*
X188663996Y-83081605D01*
X188722000Y-82790000D01*
X188722000Y-82723312D01*
X189019670Y-82524415D01*
X189230000Y-82209634D01*
X189440330Y-82524415D01*
X189926511Y-82849271D01*
X190500000Y-82963345D01*
X191073489Y-82849271D01*
X191559670Y-82524415D01*
X191766461Y-82214931D01*
X192137964Y-82630732D01*
X192665209Y-82884709D01*
X192680974Y-82887358D01*
X192913000Y-82766217D01*
X192913000Y-81407000D01*
X192893000Y-81407000D01*
X192893000Y-81153000D01*
X192913000Y-81153000D01*
X192913000Y-81133000D01*
X193167000Y-81133000D01*
X193167000Y-81153000D01*
X193167000Y-81153000D01*
G37*
X193167000Y-81153000D02*
X193187000Y-81153000D01*
X193187000Y-81407000D01*
X193167000Y-81407000D01*
X193167000Y-82766217D01*
X193399026Y-82887358D01*
X193414791Y-82884709D01*
X193942036Y-82630732D01*
X194313539Y-82214931D01*
X194520330Y-82524415D01*
X195006511Y-82849271D01*
X195580000Y-82963345D01*
X196153489Y-82849271D01*
X196639670Y-82524415D01*
X196649243Y-82510087D01*
X196653238Y-82531317D01*
X196772491Y-82716641D01*
X196409566Y-83079566D01*
X196228561Y-83350459D01*
X196165000Y-83670000D01*
X196165000Y-86629132D01*
X195579132Y-87215000D01*
X194520868Y-87215000D01*
X194453458Y-87147590D01*
X194820540Y-87147590D01*
X195055857Y-87103312D01*
X195271981Y-86964240D01*
X195416971Y-86752040D01*
X195467980Y-86500150D01*
X195467980Y-84099850D01*
X195423702Y-83864533D01*
X195284630Y-83648409D01*
X195072430Y-83503419D01*
X194820540Y-83452410D01*
X193220340Y-83452410D01*
X192985023Y-83496688D01*
X192768899Y-83635760D01*
X192623909Y-83847960D01*
X192572900Y-84099850D01*
X192572900Y-85598000D01*
X192084852Y-85598000D01*
X191882982Y-85514176D01*
X191478792Y-85513824D01*
X191105234Y-85668175D01*
X190967100Y-85806068D01*
X190967100Y-84099850D01*
X190922822Y-83864533D01*
X190783750Y-83648409D01*
X190571550Y-83503419D01*
X190319660Y-83452410D01*
X188719460Y-83452410D01*
X188484143Y-83496688D01*
X188268019Y-83635760D01*
X188123029Y-83847960D01*
X188072020Y-84099850D01*
X188072020Y-85572081D01*
X188052982Y-85564176D01*
X187648792Y-85563824D01*
X187275234Y-85718175D01*
X186989179Y-86003731D01*
X186964363Y-86063495D01*
X186499699Y-85598831D01*
X186649766Y-85536825D01*
X186935821Y-85251269D01*
X187090824Y-84877982D01*
X187090947Y-84736683D01*
X188498816Y-83328815D01*
X188597834Y-83180623D01*
X188663996Y-83081605D01*
X188722000Y-82790000D01*
X188722000Y-82723312D01*
X189019670Y-82524415D01*
X189230000Y-82209634D01*
X189440330Y-82524415D01*
X189926511Y-82849271D01*
X190500000Y-82963345D01*
X191073489Y-82849271D01*
X191559670Y-82524415D01*
X191766461Y-82214931D01*
X192137964Y-82630732D01*
X192665209Y-82884709D01*
X192680974Y-82887358D01*
X192913000Y-82766217D01*
X192913000Y-81407000D01*
X192893000Y-81407000D01*
X192893000Y-81153000D01*
X192913000Y-81153000D01*
X192913000Y-81133000D01*
X193167000Y-81133000D01*
X193167000Y-81153000D01*
G36*
X183007000Y-83693000D02*
X183027000Y-83693000D01*
X183027000Y-83947000D01*
X183007000Y-83947000D01*
X183007000Y-83967000D01*
X182753000Y-83967000D01*
X182753000Y-83947000D01*
X182733000Y-83947000D01*
X182733000Y-83693000D01*
X182753000Y-83693000D01*
X182753000Y-83673000D01*
X183007000Y-83673000D01*
X183007000Y-83693000D01*
X183007000Y-83693000D01*
G37*
X183007000Y-83693000D02*
X183027000Y-83693000D01*
X183027000Y-83947000D01*
X183007000Y-83947000D01*
X183007000Y-83967000D01*
X182753000Y-83967000D01*
X182753000Y-83947000D01*
X182733000Y-83947000D01*
X182733000Y-83693000D01*
X182753000Y-83693000D01*
X182753000Y-83673000D01*
X183007000Y-83673000D01*
X183007000Y-83693000D01*
M02*
