G04 #@! TF.FileFunction,Soldermask,Top*
%FSLAX46Y46*%
G04 Gerber Fmt 4.6, Leading zero omitted, Abs format (unit mm)*
G04 Created by KiCad (PCBNEW 4.0.4+e1-6308~48~ubuntu16.04.1-stable) date Wed Oct 26 20:21:12 2016*
%MOMM*%
%LPD*%
G01*
G04 APERTURE LIST*
%ADD10C,0.101600*%
%ADD11C,0.076200*%
%ADD12C,0.150000*%
%ADD13C,0.127000*%
%ADD14R,2.127200X2.432000*%
%ADD15O,2.127200X2.432000*%
%ADD16R,2.000200X2.800300*%
%ADD17C,2.400000*%
%ADD18R,2.432000X2.127200*%
%ADD19O,2.432000X2.127200*%
%ADD20R,0.800000X1.000000*%
%ADD21R,1.598880X1.598880*%
G04 APERTURE END LIST*
D10*
X192157000Y-114560000D02*
X192317000Y-114040000D01*
X192197000Y-114340000D02*
X192157000Y-114560000D01*
X192077000Y-114060000D02*
X192197000Y-114340000D01*
X191857000Y-113760000D02*
X192077000Y-114060000D01*
X191767000Y-113330000D02*
X191857000Y-113760000D01*
X192137000Y-113340000D02*
X192137000Y-113170000D01*
X192157000Y-113440000D02*
X192137000Y-113340000D01*
X192107000Y-113530000D02*
X192157000Y-113440000D01*
X191987000Y-113560000D02*
X192107000Y-113530000D01*
X191867000Y-113430000D02*
X191987000Y-113560000D01*
X191797000Y-113240000D02*
X191867000Y-113430000D01*
X192317000Y-113240000D02*
X192227000Y-113110000D01*
X192447000Y-113270000D02*
X192317000Y-113240000D01*
X192557000Y-113230000D02*
X192447000Y-113270000D01*
X192597000Y-113130000D02*
X192557000Y-113230000D01*
X192597000Y-112990000D02*
X192597000Y-113130000D01*
X192497000Y-112850000D02*
X192597000Y-112990000D01*
X192317000Y-112740000D02*
X192497000Y-112850000D01*
X192417000Y-112710000D02*
X192317000Y-112710000D01*
X192567000Y-112700000D02*
X192417000Y-112710000D01*
X192667000Y-112630000D02*
X192567000Y-112700000D01*
X192647000Y-112480000D02*
X192667000Y-112630000D01*
X192537000Y-112380000D02*
X192647000Y-112480000D01*
X192167000Y-112390000D02*
X192537000Y-112380000D01*
X192287000Y-112260000D02*
X192197000Y-112400000D01*
X192307000Y-112150000D02*
X192287000Y-112260000D01*
X192257000Y-112040000D02*
X192307000Y-112150000D01*
X192087000Y-112010000D02*
X192257000Y-112040000D01*
X191927000Y-112070000D02*
X192087000Y-112010000D01*
X191837000Y-112340000D02*
X191927000Y-112070000D01*
X191737000Y-113250000D02*
X191727000Y-113220000D01*
X191767000Y-113230000D02*
X191737000Y-113250000D01*
X191747000Y-113250000D02*
X191767000Y-113230000D01*
X191727000Y-113360000D02*
X191747000Y-113250000D01*
X191667000Y-113470000D02*
X191727000Y-113360000D01*
X191547000Y-113510000D02*
X191667000Y-113470000D01*
X191437000Y-113470000D02*
X191547000Y-113510000D01*
X191427000Y-113280000D02*
X191437000Y-113470000D01*
X191507000Y-113080000D02*
X191427000Y-113280000D01*
X191237000Y-113120000D02*
X191487000Y-113060000D01*
X191117000Y-113040000D02*
X191237000Y-113120000D01*
X191077000Y-112910000D02*
X191117000Y-113040000D01*
X191167000Y-112760000D02*
X191077000Y-112910000D01*
X191437000Y-112710000D02*
X191167000Y-112760000D01*
X191217000Y-112590000D02*
X191427000Y-112640000D01*
X191107000Y-112420000D02*
X191217000Y-112590000D01*
X191217000Y-112230000D02*
X191107000Y-112420000D01*
X191497000Y-112160000D02*
X191217000Y-112230000D01*
X191767000Y-112300000D02*
X191497000Y-112160000D01*
D11*
X191937000Y-112970000D02*
X192057000Y-112880000D01*
X191807000Y-112980000D02*
X191937000Y-112970000D01*
X191687000Y-112910000D02*
X191807000Y-112980000D01*
D12*
X191768623Y-112690000D02*
G75*
G03X191768623Y-112690000I-31623J0D01*
G01*
D13*
X192287000Y-112770000D02*
G75*
G03X192287000Y-112770000I-410000J0D01*
G01*
D12*
X192048623Y-112690000D02*
G75*
G03X192048623Y-112690000I-31623J0D01*
G01*
D14*
X198120000Y-81280000D03*
D15*
X195580000Y-81280000D03*
X193040000Y-81280000D03*
X190500000Y-81280000D03*
X187960000Y-81280000D03*
X185420000Y-81280000D03*
D16*
X189519560Y-85300000D03*
X194020440Y-85300000D03*
D10*
G36*
X189991626Y-92398311D02*
X190267398Y-92122539D01*
X191285632Y-93140773D01*
X191009860Y-93416545D01*
X189991626Y-92398311D01*
X189991626Y-92398311D01*
G37*
G36*
X189638073Y-92751864D02*
X189913845Y-92476092D01*
X190932079Y-93494326D01*
X190656307Y-93770098D01*
X189638073Y-92751864D01*
X189638073Y-92751864D01*
G37*
G36*
X189284519Y-93105418D02*
X189560291Y-92829646D01*
X190578525Y-93847880D01*
X190302753Y-94123652D01*
X189284519Y-93105418D01*
X189284519Y-93105418D01*
G37*
G36*
X188930966Y-93458971D02*
X189206738Y-93183199D01*
X190224972Y-94201433D01*
X189949200Y-94477205D01*
X188930966Y-93458971D01*
X188930966Y-93458971D01*
G37*
G36*
X188577413Y-93812524D02*
X188853185Y-93536752D01*
X189871419Y-94554986D01*
X189595647Y-94830758D01*
X188577413Y-93812524D01*
X188577413Y-93812524D01*
G37*
G36*
X188223859Y-94166078D02*
X188499631Y-93890306D01*
X189517865Y-94908540D01*
X189242093Y-95184312D01*
X188223859Y-94166078D01*
X188223859Y-94166078D01*
G37*
G36*
X187870306Y-94519631D02*
X188146078Y-94243859D01*
X189164312Y-95262093D01*
X188888540Y-95537865D01*
X187870306Y-94519631D01*
X187870306Y-94519631D01*
G37*
G36*
X187516752Y-94873185D02*
X187792524Y-94597413D01*
X188810758Y-95615647D01*
X188534986Y-95891419D01*
X187516752Y-94873185D01*
X187516752Y-94873185D01*
G37*
G36*
X187163199Y-95226738D02*
X187438971Y-94950966D01*
X188457205Y-95969200D01*
X188181433Y-96244972D01*
X187163199Y-95226738D01*
X187163199Y-95226738D01*
G37*
G36*
X186809646Y-95580291D02*
X187085418Y-95304519D01*
X188103652Y-96322753D01*
X187827880Y-96598525D01*
X186809646Y-95580291D01*
X186809646Y-95580291D01*
G37*
G36*
X186456092Y-95933845D02*
X186731864Y-95658073D01*
X187750098Y-96676307D01*
X187474326Y-96952079D01*
X186456092Y-95933845D01*
X186456092Y-95933845D01*
G37*
G36*
X186102539Y-96287398D02*
X186378311Y-96011626D01*
X187396545Y-97029860D01*
X187120773Y-97305632D01*
X186102539Y-96287398D01*
X186102539Y-96287398D01*
G37*
G36*
X186378311Y-99568374D02*
X186102539Y-99292602D01*
X187120773Y-98274368D01*
X187396545Y-98550140D01*
X186378311Y-99568374D01*
X186378311Y-99568374D01*
G37*
G36*
X186731864Y-99921927D02*
X186456092Y-99646155D01*
X187474326Y-98627921D01*
X187750098Y-98903693D01*
X186731864Y-99921927D01*
X186731864Y-99921927D01*
G37*
G36*
X187085418Y-100275481D02*
X186809646Y-99999709D01*
X187827880Y-98981475D01*
X188103652Y-99257247D01*
X187085418Y-100275481D01*
X187085418Y-100275481D01*
G37*
G36*
X187438971Y-100629034D02*
X187163199Y-100353262D01*
X188181433Y-99335028D01*
X188457205Y-99610800D01*
X187438971Y-100629034D01*
X187438971Y-100629034D01*
G37*
G36*
X187792524Y-100982587D02*
X187516752Y-100706815D01*
X188534986Y-99688581D01*
X188810758Y-99964353D01*
X187792524Y-100982587D01*
X187792524Y-100982587D01*
G37*
G36*
X188146078Y-101336141D02*
X187870306Y-101060369D01*
X188888540Y-100042135D01*
X189164312Y-100317907D01*
X188146078Y-101336141D01*
X188146078Y-101336141D01*
G37*
G36*
X188499631Y-101689694D02*
X188223859Y-101413922D01*
X189242093Y-100395688D01*
X189517865Y-100671460D01*
X188499631Y-101689694D01*
X188499631Y-101689694D01*
G37*
G36*
X188853185Y-102043248D02*
X188577413Y-101767476D01*
X189595647Y-100749242D01*
X189871419Y-101025014D01*
X188853185Y-102043248D01*
X188853185Y-102043248D01*
G37*
G36*
X189206738Y-102396801D02*
X188930966Y-102121029D01*
X189949200Y-101102795D01*
X190224972Y-101378567D01*
X189206738Y-102396801D01*
X189206738Y-102396801D01*
G37*
G36*
X189560291Y-102750354D02*
X189284519Y-102474582D01*
X190302753Y-101456348D01*
X190578525Y-101732120D01*
X189560291Y-102750354D01*
X189560291Y-102750354D01*
G37*
G36*
X189913845Y-103103908D02*
X189638073Y-102828136D01*
X190656307Y-101809902D01*
X190932079Y-102085674D01*
X189913845Y-103103908D01*
X189913845Y-103103908D01*
G37*
G36*
X190267398Y-103457461D02*
X189991626Y-103181689D01*
X191009860Y-102163455D01*
X191285632Y-102439227D01*
X190267398Y-103457461D01*
X190267398Y-103457461D01*
G37*
G36*
X192254368Y-102439227D02*
X192530140Y-102163455D01*
X193548374Y-103181689D01*
X193272602Y-103457461D01*
X192254368Y-102439227D01*
X192254368Y-102439227D01*
G37*
G36*
X192607921Y-102085674D02*
X192883693Y-101809902D01*
X193901927Y-102828136D01*
X193626155Y-103103908D01*
X192607921Y-102085674D01*
X192607921Y-102085674D01*
G37*
G36*
X192961475Y-101732120D02*
X193237247Y-101456348D01*
X194255481Y-102474582D01*
X193979709Y-102750354D01*
X192961475Y-101732120D01*
X192961475Y-101732120D01*
G37*
G36*
X193315028Y-101378567D02*
X193590800Y-101102795D01*
X194609034Y-102121029D01*
X194333262Y-102396801D01*
X193315028Y-101378567D01*
X193315028Y-101378567D01*
G37*
G36*
X193668581Y-101025014D02*
X193944353Y-100749242D01*
X194962587Y-101767476D01*
X194686815Y-102043248D01*
X193668581Y-101025014D01*
X193668581Y-101025014D01*
G37*
G36*
X194022135Y-100671460D02*
X194297907Y-100395688D01*
X195316141Y-101413922D01*
X195040369Y-101689694D01*
X194022135Y-100671460D01*
X194022135Y-100671460D01*
G37*
G36*
X194375688Y-100317907D02*
X194651460Y-100042135D01*
X195669694Y-101060369D01*
X195393922Y-101336141D01*
X194375688Y-100317907D01*
X194375688Y-100317907D01*
G37*
G36*
X194729242Y-99964353D02*
X195005014Y-99688581D01*
X196023248Y-100706815D01*
X195747476Y-100982587D01*
X194729242Y-99964353D01*
X194729242Y-99964353D01*
G37*
G36*
X195082795Y-99610800D02*
X195358567Y-99335028D01*
X196376801Y-100353262D01*
X196101029Y-100629034D01*
X195082795Y-99610800D01*
X195082795Y-99610800D01*
G37*
G36*
X195436348Y-99257247D02*
X195712120Y-98981475D01*
X196730354Y-99999709D01*
X196454582Y-100275481D01*
X195436348Y-99257247D01*
X195436348Y-99257247D01*
G37*
G36*
X195789902Y-98903693D02*
X196065674Y-98627921D01*
X197083908Y-99646155D01*
X196808136Y-99921927D01*
X195789902Y-98903693D01*
X195789902Y-98903693D01*
G37*
G36*
X196143455Y-98550140D02*
X196419227Y-98274368D01*
X197437461Y-99292602D01*
X197161689Y-99568374D01*
X196143455Y-98550140D01*
X196143455Y-98550140D01*
G37*
G36*
X196419227Y-97305632D02*
X196143455Y-97029860D01*
X197161689Y-96011626D01*
X197437461Y-96287398D01*
X196419227Y-97305632D01*
X196419227Y-97305632D01*
G37*
G36*
X196065674Y-96952079D02*
X195789902Y-96676307D01*
X196808136Y-95658073D01*
X197083908Y-95933845D01*
X196065674Y-96952079D01*
X196065674Y-96952079D01*
G37*
G36*
X195712120Y-96598525D02*
X195436348Y-96322753D01*
X196454582Y-95304519D01*
X196730354Y-95580291D01*
X195712120Y-96598525D01*
X195712120Y-96598525D01*
G37*
G36*
X195358567Y-96244972D02*
X195082795Y-95969200D01*
X196101029Y-94950966D01*
X196376801Y-95226738D01*
X195358567Y-96244972D01*
X195358567Y-96244972D01*
G37*
G36*
X195005014Y-95891419D02*
X194729242Y-95615647D01*
X195747476Y-94597413D01*
X196023248Y-94873185D01*
X195005014Y-95891419D01*
X195005014Y-95891419D01*
G37*
G36*
X194651460Y-95537865D02*
X194375688Y-95262093D01*
X195393922Y-94243859D01*
X195669694Y-94519631D01*
X194651460Y-95537865D01*
X194651460Y-95537865D01*
G37*
G36*
X194297907Y-95184312D02*
X194022135Y-94908540D01*
X195040369Y-93890306D01*
X195316141Y-94166078D01*
X194297907Y-95184312D01*
X194297907Y-95184312D01*
G37*
G36*
X193944353Y-94830758D02*
X193668581Y-94554986D01*
X194686815Y-93536752D01*
X194962587Y-93812524D01*
X193944353Y-94830758D01*
X193944353Y-94830758D01*
G37*
G36*
X193590800Y-94477205D02*
X193315028Y-94201433D01*
X194333262Y-93183199D01*
X194609034Y-93458971D01*
X193590800Y-94477205D01*
X193590800Y-94477205D01*
G37*
G36*
X193237247Y-94123652D02*
X192961475Y-93847880D01*
X193979709Y-92829646D01*
X194255481Y-93105418D01*
X193237247Y-94123652D01*
X193237247Y-94123652D01*
G37*
G36*
X192883693Y-93770098D02*
X192607921Y-93494326D01*
X193626155Y-92476092D01*
X193901927Y-92751864D01*
X192883693Y-93770098D01*
X192883693Y-93770098D01*
G37*
G36*
X192530140Y-93416545D02*
X192254368Y-93140773D01*
X193272602Y-92122539D01*
X193548374Y-92398311D01*
X192530140Y-93416545D01*
X192530140Y-93416545D01*
G37*
D17*
X195072000Y-117420000D03*
X195072000Y-121920000D03*
X188572000Y-117420000D03*
X188572000Y-121920000D03*
D18*
X182880000Y-81280000D03*
D19*
X182880000Y-83820000D03*
X182880000Y-86360000D03*
X182880000Y-88900000D03*
X182880000Y-91440000D03*
X182880000Y-93980000D03*
X182880000Y-96520000D03*
X182880000Y-99060000D03*
X182880000Y-101600000D03*
X182880000Y-104140000D03*
X182880000Y-106680000D03*
X182880000Y-109220000D03*
X182880000Y-111760000D03*
X182880000Y-114300000D03*
X182880000Y-116840000D03*
X182880000Y-119380000D03*
X182880000Y-121920000D03*
D18*
X200660000Y-81280000D03*
D19*
X200660000Y-83820000D03*
X200660000Y-86360000D03*
X200660000Y-88900000D03*
X200660000Y-91440000D03*
X200660000Y-93980000D03*
X200660000Y-96520000D03*
X200660000Y-99060000D03*
X200660000Y-101600000D03*
X200660000Y-104140000D03*
X200660000Y-106680000D03*
X200660000Y-109220000D03*
X200660000Y-111760000D03*
X200660000Y-114300000D03*
X200660000Y-116840000D03*
X200660000Y-119380000D03*
X200660000Y-121920000D03*
D20*
X192250000Y-89850000D03*
X191350000Y-89850000D03*
X191320000Y-105664000D03*
X192220000Y-105664000D03*
D21*
X192819020Y-109220000D03*
X190720980Y-109220000D03*
M02*
