G04 #@! TF.FileFunction,Copper,L2,Bot,Signal*
%FSLAX46Y46*%
G04 Gerber Fmt 4.6, Leading zero omitted, Abs format (unit mm)*
G04 Created by KiCad (PCBNEW 4.0.4+e1-6308~48~ubuntu16.04.1-stable) date Wed Oct 26 20:07:28 2016*
%MOMM*%
%LPD*%
G01*
G04 APERTURE LIST*
%ADD10C,0.101600*%
%ADD11R,1.727200X2.032000*%
%ADD12O,1.727200X2.032000*%
%ADD13R,1.500000X1.250000*%
%ADD14C,2.000000*%
%ADD15R,2.032000X1.727200*%
%ADD16O,2.032000X1.727200*%
%ADD17R,1.500000X1.300000*%
%ADD18C,0.762000*%
%ADD19C,0.400000*%
%ADD20C,0.254000*%
%ADD21C,0.500000*%
G04 APERTURE END LIST*
D10*
D11*
X198120000Y-81280000D03*
D12*
X195580000Y-81280000D03*
X193040000Y-81280000D03*
X190500000Y-81280000D03*
X187960000Y-81280000D03*
X185420000Y-81280000D03*
D13*
X193040000Y-85090000D03*
X195540000Y-85090000D03*
X190460000Y-85090000D03*
X187960000Y-85090000D03*
D10*
G36*
X189956155Y-94572271D02*
X189072271Y-95456155D01*
X188011611Y-94395495D01*
X188895495Y-93511611D01*
X189956155Y-94572271D01*
X189956155Y-94572271D01*
G37*
G36*
X188188389Y-92804505D02*
X187304505Y-93688389D01*
X186243845Y-92627729D01*
X187127729Y-91743845D01*
X188188389Y-92804505D01*
X188188389Y-92804505D01*
G37*
G36*
X186643845Y-90627729D02*
X187527729Y-89743845D01*
X188588389Y-90804505D01*
X187704505Y-91688389D01*
X186643845Y-90627729D01*
X186643845Y-90627729D01*
G37*
G36*
X188411611Y-92395495D02*
X189295495Y-91511611D01*
X190356155Y-92572271D01*
X189472271Y-93456155D01*
X188411611Y-92395495D01*
X188411611Y-92395495D01*
G37*
G36*
X194300695Y-95162543D02*
X193381457Y-94243305D01*
X194442117Y-93182645D01*
X195361355Y-94101883D01*
X194300695Y-95162543D01*
X194300695Y-95162543D01*
G37*
G36*
X196209883Y-93253355D02*
X195290645Y-92334117D01*
X196351305Y-91273457D01*
X197270543Y-92192695D01*
X196209883Y-93253355D01*
X196209883Y-93253355D01*
G37*
G36*
X190710271Y-101902845D02*
X191594155Y-102786729D01*
X190533495Y-103847389D01*
X189649611Y-102963505D01*
X190710271Y-101902845D01*
X190710271Y-101902845D01*
G37*
G36*
X188942505Y-103670611D02*
X189826389Y-104554495D01*
X188765729Y-105615155D01*
X187881845Y-104731271D01*
X188942505Y-103670611D01*
X188942505Y-103670611D01*
G37*
D13*
X193050000Y-88800000D03*
X190550000Y-88800000D03*
D14*
X195072000Y-117420000D03*
X195072000Y-121920000D03*
X188572000Y-117420000D03*
X188572000Y-121920000D03*
D10*
G36*
X193727729Y-93256155D02*
X192843845Y-92372271D01*
X193904505Y-91311611D01*
X194788389Y-92195495D01*
X193727729Y-93256155D01*
X193727729Y-93256155D01*
G37*
G36*
X195495495Y-91488389D02*
X194611611Y-90604505D01*
X195672271Y-89543845D01*
X196556155Y-90427729D01*
X195495495Y-91488389D01*
X195495495Y-91488389D01*
G37*
G36*
X188800155Y-95714271D02*
X187916271Y-96598155D01*
X186855611Y-95537495D01*
X187739495Y-94653611D01*
X188800155Y-95714271D01*
X188800155Y-95714271D01*
G37*
G36*
X187032389Y-93946505D02*
X186148505Y-94830389D01*
X185087845Y-93769729D01*
X185971729Y-92885845D01*
X187032389Y-93946505D01*
X187032389Y-93946505D01*
G37*
D15*
X182880000Y-81280000D03*
D16*
X182880000Y-83820000D03*
X182880000Y-86360000D03*
X182880000Y-88900000D03*
X182880000Y-91440000D03*
X182880000Y-93980000D03*
X182880000Y-96520000D03*
X182880000Y-99060000D03*
X182880000Y-101600000D03*
X182880000Y-104140000D03*
X182880000Y-106680000D03*
X182880000Y-109220000D03*
X182880000Y-111760000D03*
X182880000Y-114300000D03*
X182880000Y-116840000D03*
X182880000Y-119380000D03*
X182880000Y-121920000D03*
D15*
X200660000Y-81280000D03*
D16*
X200660000Y-83820000D03*
X200660000Y-86360000D03*
X200660000Y-88900000D03*
X200660000Y-91440000D03*
X200660000Y-93980000D03*
X200660000Y-96520000D03*
X200660000Y-99060000D03*
X200660000Y-101600000D03*
X200660000Y-104140000D03*
X200660000Y-106680000D03*
X200660000Y-109220000D03*
X200660000Y-111760000D03*
X200660000Y-114300000D03*
X200660000Y-116840000D03*
X200660000Y-119380000D03*
X200660000Y-121920000D03*
D17*
X190420000Y-110490000D03*
X193120000Y-110490000D03*
D18*
X188700000Y-97300000D03*
X193025000Y-87325000D03*
X195525000Y-88450000D03*
X191850000Y-100730000D03*
X191810000Y-94250000D03*
X188620400Y-109220000D03*
X195834000Y-86614000D03*
X192531994Y-95758000D03*
X190410000Y-96960000D03*
X197800000Y-97850000D03*
X198200000Y-100150000D03*
X184775000Y-91200000D03*
X186075000Y-84675000D03*
X194680000Y-97350000D03*
X188484781Y-98523522D03*
X193701990Y-96062294D03*
X185950000Y-88625000D03*
X187850000Y-86580000D03*
X191680000Y-86530000D03*
X186000000Y-89700000D03*
X189700000Y-90500000D03*
X195326000Y-106680000D03*
X195790000Y-97820000D03*
X190120000Y-95740000D03*
X194919600Y-109220000D03*
D19*
X191810000Y-94250000D02*
X191810000Y-94811380D01*
X191810000Y-94811380D02*
X191550000Y-95071380D01*
X191550000Y-95071380D02*
X191550000Y-98150000D01*
X191550000Y-98150000D02*
X191750000Y-98350000D01*
X191750000Y-98350000D02*
X191750000Y-100630000D01*
X191750000Y-100630000D02*
X191810000Y-100690000D01*
X191690000Y-100730000D02*
X191690000Y-100290000D01*
X191690000Y-100290000D02*
X189080999Y-97680999D01*
D20*
X187827883Y-95625883D02*
X188700000Y-96498000D01*
D19*
X189080999Y-97680999D02*
X188700000Y-97300000D01*
D20*
X188700000Y-96761185D02*
X188700000Y-97300000D01*
X188700000Y-96498000D02*
X188700000Y-96761185D01*
D21*
X193025000Y-87325000D02*
X193025000Y-88775000D01*
D20*
X193025000Y-88775000D02*
X193050000Y-88800000D01*
D19*
X193075000Y-88900000D02*
X193075000Y-90325000D01*
X193075000Y-90325000D02*
X191850000Y-91550000D01*
X191850000Y-91550000D02*
X191850000Y-94210000D01*
X191850000Y-94210000D02*
X191831210Y-94228790D01*
X193050000Y-88800000D02*
X195175000Y-88800000D01*
X195175000Y-88800000D02*
X195525000Y-88450000D01*
D20*
X191850000Y-101647000D02*
X191850000Y-101268815D01*
X190621883Y-102875117D02*
X191850000Y-101647000D01*
X191690000Y-100730000D02*
X191850000Y-100730000D01*
X191810000Y-100690000D02*
X191850000Y-100730000D01*
X191850000Y-101268815D02*
X191850000Y-100730000D01*
X191831210Y-94228790D02*
X191810000Y-94250000D01*
X191810000Y-94250000D02*
X193776117Y-92283883D01*
X193776117Y-92283883D02*
X193816117Y-92283883D01*
X193816117Y-92283883D02*
X193106117Y-92283883D01*
X188854117Y-104642883D02*
X187960000Y-105537000D01*
X187960000Y-105537000D02*
X187960000Y-108559600D01*
X187960000Y-108559600D02*
X188620400Y-109220000D01*
X188620400Y-112471200D02*
X188620400Y-109758815D01*
X192000000Y-115850800D02*
X188620400Y-112471200D01*
X192000000Y-121920000D02*
X192000000Y-115850800D01*
X188620400Y-109758815D02*
X188620400Y-109220000D01*
D19*
X185050000Y-90250000D02*
X185050000Y-87875000D01*
X185050000Y-87875000D02*
X187835000Y-85090000D01*
D20*
X187835000Y-85090000D02*
X187960000Y-85090000D01*
X186615077Y-91815077D02*
X185050000Y-90250000D01*
X187216117Y-92716117D02*
X186615077Y-92115077D01*
X186615077Y-92115077D02*
X186615077Y-91815077D01*
X195540000Y-85090000D02*
X195415000Y-85090000D01*
D19*
X195415000Y-85090000D02*
X194325000Y-84000000D01*
X194325000Y-84000000D02*
X189175000Y-84000000D01*
X189175000Y-84000000D02*
X188085000Y-85090000D01*
D20*
X188085000Y-85090000D02*
X187960000Y-85090000D01*
D19*
X187960000Y-85090000D02*
X187850000Y-84980000D01*
X183250000Y-83825000D02*
X183650000Y-83425000D01*
X187850000Y-84980000D02*
X187850000Y-84150000D01*
X187850000Y-84150000D02*
X187525000Y-83825000D01*
X187525000Y-83825000D02*
X183250000Y-83825000D01*
X183650000Y-83425000D02*
X187100000Y-83425000D01*
X187100000Y-83425000D02*
X187450000Y-83775000D01*
D20*
X190975000Y-89100000D02*
X190980000Y-89105000D01*
X190980000Y-89105000D02*
X190980000Y-94891549D01*
X190980000Y-94891549D02*
X190963587Y-94907962D01*
X190963587Y-94907962D02*
X190963587Y-96406413D01*
X190963587Y-96406413D02*
X190790999Y-96579001D01*
X190790999Y-96579001D02*
X190410000Y-96960000D01*
X195583883Y-90516117D02*
X196625000Y-89475000D01*
X196625000Y-89475000D02*
X196625000Y-87405000D01*
X196625000Y-87405000D02*
X195834000Y-86614000D01*
X190550000Y-88800000D02*
X190675000Y-88800000D01*
X195540000Y-86320000D02*
X195834000Y-86614000D01*
X195540000Y-85090000D02*
X195540000Y-86320000D01*
X193838799Y-97001201D02*
X193236380Y-97001201D01*
X196280594Y-94559406D02*
X193838799Y-97001201D01*
X196280594Y-92263406D02*
X196280594Y-94559406D01*
X192531994Y-96296815D02*
X192531994Y-95758000D01*
X193236380Y-97001201D02*
X192531994Y-96296815D01*
X193657787Y-121920000D02*
X192000000Y-121920000D01*
X192000000Y-121920000D02*
X188572000Y-121920000D01*
X195072000Y-121920000D02*
X193657787Y-121920000D01*
X186060117Y-93858117D02*
X186060117Y-101848883D01*
X186060117Y-101848883D02*
X188854117Y-104642883D01*
X187216117Y-92716117D02*
X187202117Y-92716117D01*
X187202117Y-92716117D02*
X186060117Y-93858117D01*
X187616117Y-90716117D02*
X187616117Y-92316117D01*
X187616117Y-92316117D02*
X187216117Y-92716117D01*
X190550000Y-88800000D02*
X189532234Y-88800000D01*
X189532234Y-88800000D02*
X187616117Y-90716117D01*
X196280594Y-92263406D02*
X196280594Y-91212828D01*
X196280594Y-91212828D02*
X195583883Y-90516117D01*
X198180999Y-97469001D02*
X197800000Y-97850000D01*
X198692962Y-84545362D02*
X198692962Y-96957038D01*
X195580000Y-81432400D02*
X198692962Y-84545362D01*
X198692962Y-96957038D02*
X198180999Y-97469001D01*
X195580000Y-81280000D02*
X195580000Y-81432400D01*
X198057964Y-84807964D02*
X196205578Y-82955578D01*
X196205578Y-82955578D02*
X192023178Y-82955578D01*
X197088799Y-97508623D02*
X198057964Y-96539458D01*
X198057964Y-96539458D02*
X198057964Y-84807964D01*
X197088799Y-99038799D02*
X197088799Y-97508623D01*
X198200000Y-100150000D02*
X197088799Y-99038799D01*
X192023178Y-82955578D02*
X190500000Y-81432400D01*
X190500000Y-81432400D02*
X190500000Y-81280000D01*
X188572000Y-117420000D02*
X184500000Y-113348000D01*
X184500000Y-113348000D02*
X184500000Y-91475000D01*
X184500000Y-91475000D02*
X184775000Y-91200000D01*
X186075000Y-84675000D02*
X184475000Y-86275000D01*
X184475000Y-86275000D02*
X184475000Y-90900000D01*
X184475000Y-90900000D02*
X184775000Y-91200000D01*
X197600753Y-94429247D02*
X195060999Y-96969001D01*
X197600753Y-85050753D02*
X197600753Y-94429247D01*
X195962789Y-83412789D02*
X197600753Y-85050753D01*
X187994935Y-83412789D02*
X195962789Y-83412789D01*
X186537600Y-82550000D02*
X187132146Y-82550000D01*
X185420000Y-81432400D02*
X186537600Y-82550000D01*
X195060999Y-96969001D02*
X194680000Y-97350000D01*
X185420000Y-81280000D02*
X185420000Y-81432400D01*
X187132146Y-82550000D02*
X187994935Y-83412789D01*
X188484781Y-98523522D02*
X188484781Y-102484781D01*
X188484781Y-102484781D02*
X190373000Y-104373000D01*
X190373000Y-104373000D02*
X190373000Y-110388400D01*
X193701990Y-94842010D02*
X193701990Y-95523479D01*
X194371406Y-94172594D02*
X193701990Y-94842010D01*
X193701990Y-95523479D02*
X193701990Y-96062294D01*
X185950000Y-88480000D02*
X185950000Y-88625000D01*
X187850000Y-86580000D02*
X185950000Y-88480000D01*
X189300000Y-86125000D02*
X189225000Y-86125000D01*
X190335000Y-85090000D02*
X189300000Y-86125000D01*
X189225000Y-86125000D02*
X188770000Y-86580000D01*
X190460000Y-85090000D02*
X190335000Y-85090000D01*
X188770000Y-86580000D02*
X187850000Y-86580000D01*
X191141185Y-86530000D02*
X191680000Y-86530000D01*
X190230000Y-86530000D02*
X191141185Y-86530000D01*
X186000000Y-89700000D02*
X187060000Y-89700000D01*
X187060000Y-89700000D02*
X190230000Y-86530000D01*
X193040000Y-85090000D02*
X193040000Y-85170000D01*
X193040000Y-85170000D02*
X191680000Y-86530000D01*
X189700000Y-90500000D02*
X189975000Y-90775000D01*
X189975000Y-91892766D02*
X189383883Y-92483883D01*
X189975000Y-90775000D02*
X189975000Y-91892766D01*
X195790000Y-97820000D02*
X195790000Y-106216000D01*
X195706999Y-106299001D02*
X195326000Y-106680000D01*
X195790000Y-106216000D02*
X195706999Y-106299001D01*
X188983883Y-94483883D02*
X190120000Y-95620000D01*
X190120000Y-95620000D02*
X190120000Y-95740000D01*
X194919600Y-109220000D02*
X194919600Y-109804200D01*
X194919600Y-109804200D02*
X194233800Y-110490000D01*
X194233800Y-110490000D02*
X193120000Y-110490000D01*
G36*
X192923648Y-94701114D02*
X192960655Y-94738121D01*
X192939990Y-94842010D01*
X192939990Y-95387376D01*
X192841169Y-95486025D01*
X192686166Y-95859312D01*
X192685814Y-96263502D01*
X192840165Y-96637060D01*
X193125721Y-96923115D01*
X193499008Y-97078118D01*
X193692716Y-97078287D01*
X193664176Y-97147018D01*
X193663824Y-97551208D01*
X193818175Y-97924766D01*
X194103731Y-98210821D01*
X194477018Y-98365824D01*
X194881208Y-98366176D01*
X194911235Y-98353769D01*
X194928175Y-98394766D01*
X195028000Y-98494765D01*
X195028000Y-105703818D01*
X194751234Y-105818175D01*
X194465179Y-106103731D01*
X194310176Y-106477018D01*
X194309824Y-106881208D01*
X194464175Y-107254766D01*
X194749731Y-107540821D01*
X195123018Y-107695824D01*
X195527208Y-107696176D01*
X195900766Y-107541825D01*
X196186821Y-107256269D01*
X196341824Y-106882982D01*
X196341953Y-106735153D01*
X196493996Y-106507605D01*
X196517708Y-106388396D01*
X196552000Y-106216000D01*
X196552000Y-99579630D01*
X197183946Y-100211576D01*
X197183824Y-100351208D01*
X197338175Y-100724766D01*
X197623731Y-101010821D01*
X197997018Y-101165824D01*
X198401208Y-101166176D01*
X198774766Y-101011825D01*
X199060821Y-100726269D01*
X199215824Y-100352982D01*
X199216176Y-99948792D01*
X199061825Y-99575234D01*
X198776269Y-99289179D01*
X198402982Y-99134176D01*
X198261684Y-99134053D01*
X197993800Y-98866170D01*
X198001208Y-98866176D01*
X198374766Y-98711825D01*
X198660821Y-98426269D01*
X198815824Y-98052982D01*
X198815947Y-97911683D01*
X199231777Y-97495853D01*
X199295679Y-97400217D01*
X199415585Y-97579670D01*
X199730366Y-97790000D01*
X199415585Y-98000330D01*
X199090729Y-98486511D01*
X198976655Y-99060000D01*
X199090729Y-99633489D01*
X199415585Y-100119670D01*
X199730366Y-100330000D01*
X199415585Y-100540330D01*
X199090729Y-101026511D01*
X198976655Y-101600000D01*
X199090729Y-102173489D01*
X199415585Y-102659670D01*
X199730366Y-102870000D01*
X199415585Y-103080330D01*
X199090729Y-103566511D01*
X198976655Y-104140000D01*
X199090729Y-104713489D01*
X199415585Y-105199670D01*
X199730366Y-105410000D01*
X199415585Y-105620330D01*
X199090729Y-106106511D01*
X198976655Y-106680000D01*
X199090729Y-107253489D01*
X199415585Y-107739670D01*
X199730366Y-107950000D01*
X199415585Y-108160330D01*
X199090729Y-108646511D01*
X198976655Y-109220000D01*
X199090729Y-109793489D01*
X199415585Y-110279670D01*
X199730366Y-110490000D01*
X199415585Y-110700330D01*
X199090729Y-111186511D01*
X198976655Y-111760000D01*
X199090729Y-112333489D01*
X199415585Y-112819670D01*
X199730366Y-113030000D01*
X199415585Y-113240330D01*
X199090729Y-113726511D01*
X198976655Y-114300000D01*
X199090729Y-114873489D01*
X199415585Y-115359670D01*
X199730366Y-115570000D01*
X199415585Y-115780330D01*
X199090729Y-116266511D01*
X198976655Y-116840000D01*
X199090729Y-117413489D01*
X199415585Y-117899670D01*
X199730366Y-118110000D01*
X199415585Y-118320330D01*
X199090729Y-118806511D01*
X198976655Y-119380000D01*
X199090729Y-119953489D01*
X199415585Y-120439670D01*
X199730366Y-120650000D01*
X199415585Y-120860330D01*
X199090729Y-121346511D01*
X198976655Y-121920000D01*
X199090729Y-122493489D01*
X199251433Y-122734000D01*
X196513776Y-122734000D01*
X196717908Y-122184539D01*
X196693856Y-121534540D01*
X196491387Y-121045736D01*
X196224532Y-120947073D01*
X195251605Y-121920000D01*
X195265748Y-121934143D01*
X195086143Y-122113748D01*
X195072000Y-122099605D01*
X195057858Y-122113748D01*
X194878253Y-121934143D01*
X194892395Y-121920000D01*
X193919468Y-120947073D01*
X193652613Y-121045736D01*
X193426092Y-121655461D01*
X193450144Y-122305460D01*
X193627651Y-122734000D01*
X190013776Y-122734000D01*
X190217908Y-122184539D01*
X190193856Y-121534540D01*
X189991387Y-121045736D01*
X189724532Y-120947073D01*
X188751605Y-121920000D01*
X188765748Y-121934143D01*
X188586143Y-122113748D01*
X188572000Y-122099605D01*
X188557858Y-122113748D01*
X188378253Y-121934143D01*
X188392395Y-121920000D01*
X187419468Y-120947073D01*
X187152613Y-121045736D01*
X186926092Y-121655461D01*
X186950144Y-122305460D01*
X187127651Y-122734000D01*
X184288567Y-122734000D01*
X184449271Y-122493489D01*
X184563345Y-121920000D01*
X184449271Y-121346511D01*
X184124415Y-120860330D01*
X183985438Y-120767468D01*
X187599073Y-120767468D01*
X188572000Y-121740395D01*
X189544927Y-120767468D01*
X194099073Y-120767468D01*
X195072000Y-121740395D01*
X196044927Y-120767468D01*
X195946264Y-120500613D01*
X195336539Y-120274092D01*
X194686540Y-120298144D01*
X194197736Y-120500613D01*
X194099073Y-120767468D01*
X189544927Y-120767468D01*
X189446264Y-120500613D01*
X188836539Y-120274092D01*
X188186540Y-120298144D01*
X187697736Y-120500613D01*
X187599073Y-120767468D01*
X183985438Y-120767468D01*
X183809634Y-120650000D01*
X184124415Y-120439670D01*
X184449271Y-119953489D01*
X184563345Y-119380000D01*
X184449271Y-118806511D01*
X184124415Y-118320330D01*
X183809634Y-118110000D01*
X184124415Y-117899670D01*
X184449271Y-117413489D01*
X184563345Y-116840000D01*
X184449271Y-116266511D01*
X184124415Y-115780330D01*
X183809634Y-115570000D01*
X184124415Y-115359670D01*
X184449271Y-114873489D01*
X184531992Y-114457622D01*
X187004895Y-116930526D01*
X186937284Y-117093352D01*
X186936716Y-117743795D01*
X187185106Y-118344943D01*
X187644637Y-118805278D01*
X188245352Y-119054716D01*
X188895795Y-119055284D01*
X189496943Y-118806894D01*
X189957278Y-118347363D01*
X190206716Y-117746648D01*
X190206718Y-117743795D01*
X193436716Y-117743795D01*
X193685106Y-118344943D01*
X194144637Y-118805278D01*
X194745352Y-119054716D01*
X195395795Y-119055284D01*
X195996943Y-118806894D01*
X196457278Y-118347363D01*
X196706716Y-117746648D01*
X196707284Y-117096205D01*
X196458894Y-116495057D01*
X195999363Y-116034722D01*
X195398648Y-115785284D01*
X194748205Y-115784716D01*
X194147057Y-116033106D01*
X193686722Y-116492637D01*
X193437284Y-117093352D01*
X193436716Y-117743795D01*
X190206718Y-117743795D01*
X190207284Y-117096205D01*
X189958894Y-116495057D01*
X189499363Y-116034722D01*
X188898648Y-115785284D01*
X188248205Y-115784716D01*
X188082723Y-115853092D01*
X185262000Y-113032370D01*
X185262000Y-104857580D01*
X187246845Y-104857580D01*
X187343518Y-105090969D01*
X187522146Y-105269598D01*
X187672718Y-105420170D01*
X187897225Y-105420170D01*
X188674512Y-104642883D01*
X187985613Y-103953984D01*
X187761107Y-103953984D01*
X187343518Y-104371572D01*
X187246846Y-104604962D01*
X187246845Y-104857580D01*
X185262000Y-104857580D01*
X185262000Y-94835842D01*
X185371218Y-94726624D01*
X185371218Y-94951127D01*
X185788806Y-95368716D01*
X186022196Y-95465388D01*
X186221935Y-95465389D01*
X186208233Y-95528551D01*
X186255757Y-95781122D01*
X186397802Y-95995304D01*
X187458462Y-97055964D01*
X187656165Y-97191049D01*
X187684089Y-97197106D01*
X187683824Y-97501208D01*
X187796824Y-97774690D01*
X187623960Y-97947253D01*
X187468957Y-98320540D01*
X187468605Y-98724730D01*
X187622956Y-99098288D01*
X187722781Y-99198287D01*
X187722781Y-102484781D01*
X187780785Y-102776386D01*
X187899838Y-102954561D01*
X187945966Y-103023596D01*
X188318730Y-103396360D01*
X188165218Y-103549873D01*
X188165218Y-103774379D01*
X188854117Y-104463278D01*
X188868260Y-104449136D01*
X189047865Y-104628741D01*
X189033722Y-104642883D01*
X189047865Y-104657026D01*
X188868260Y-104836631D01*
X188854117Y-104822488D01*
X188076830Y-105599775D01*
X188076830Y-105824282D01*
X188227402Y-105974854D01*
X188406031Y-106153482D01*
X188639420Y-106250155D01*
X188892038Y-106250154D01*
X189125428Y-106153482D01*
X189543016Y-105735893D01*
X189543016Y-105511390D01*
X189611000Y-105579374D01*
X189611000Y-109203662D01*
X189434683Y-109236838D01*
X189218559Y-109375910D01*
X189073569Y-109588110D01*
X189022560Y-109840000D01*
X189022560Y-111140000D01*
X189066838Y-111375317D01*
X189205910Y-111591441D01*
X189418110Y-111736431D01*
X189670000Y-111787440D01*
X191170000Y-111787440D01*
X191405317Y-111743162D01*
X191621441Y-111604090D01*
X191766431Y-111391890D01*
X191769081Y-111378803D01*
X191905910Y-111591441D01*
X192118110Y-111736431D01*
X192370000Y-111787440D01*
X193870000Y-111787440D01*
X194105317Y-111743162D01*
X194321441Y-111604090D01*
X194466431Y-111391890D01*
X194505712Y-111197913D01*
X194525405Y-111193996D01*
X194772615Y-111028815D01*
X195458416Y-110343015D01*
X195557434Y-110194823D01*
X195623596Y-110095805D01*
X195659084Y-109917394D01*
X195780421Y-109796269D01*
X195935424Y-109422982D01*
X195935776Y-109018792D01*
X195781425Y-108645234D01*
X195495869Y-108359179D01*
X195122582Y-108204176D01*
X194718392Y-108203824D01*
X194344834Y-108358175D01*
X194058779Y-108643731D01*
X193903776Y-109017018D01*
X193903617Y-109199368D01*
X193870000Y-109192560D01*
X192370000Y-109192560D01*
X192134683Y-109236838D01*
X191918559Y-109375910D01*
X191773569Y-109588110D01*
X191770919Y-109601197D01*
X191634090Y-109388559D01*
X191421890Y-109243569D01*
X191170000Y-109192560D01*
X191135000Y-109192560D01*
X191135000Y-104373000D01*
X191099910Y-104196592D01*
X192051964Y-103244538D01*
X192187049Y-103046835D01*
X192241533Y-102795673D01*
X192194009Y-102543102D01*
X192129220Y-102445411D01*
X192388816Y-102185815D01*
X192531140Y-101972811D01*
X192553996Y-101938605D01*
X192612000Y-101647000D01*
X192612000Y-101404918D01*
X192710821Y-101306269D01*
X192865824Y-100932982D01*
X192866176Y-100528792D01*
X192711825Y-100155234D01*
X192585000Y-100028187D01*
X192585000Y-98350000D01*
X192561512Y-98231917D01*
X192521440Y-98030460D01*
X192385000Y-97826264D01*
X192385000Y-95417248D01*
X192400434Y-95401814D01*
X192581440Y-95130920D01*
X192634907Y-94862120D01*
X192670821Y-94826269D01*
X192800128Y-94514865D01*
X192923648Y-94701114D01*
X192923648Y-94701114D01*
G37*
X192923648Y-94701114D02*
X192960655Y-94738121D01*
X192939990Y-94842010D01*
X192939990Y-95387376D01*
X192841169Y-95486025D01*
X192686166Y-95859312D01*
X192685814Y-96263502D01*
X192840165Y-96637060D01*
X193125721Y-96923115D01*
X193499008Y-97078118D01*
X193692716Y-97078287D01*
X193664176Y-97147018D01*
X193663824Y-97551208D01*
X193818175Y-97924766D01*
X194103731Y-98210821D01*
X194477018Y-98365824D01*
X194881208Y-98366176D01*
X194911235Y-98353769D01*
X194928175Y-98394766D01*
X195028000Y-98494765D01*
X195028000Y-105703818D01*
X194751234Y-105818175D01*
X194465179Y-106103731D01*
X194310176Y-106477018D01*
X194309824Y-106881208D01*
X194464175Y-107254766D01*
X194749731Y-107540821D01*
X195123018Y-107695824D01*
X195527208Y-107696176D01*
X195900766Y-107541825D01*
X196186821Y-107256269D01*
X196341824Y-106882982D01*
X196341953Y-106735153D01*
X196493996Y-106507605D01*
X196517708Y-106388396D01*
X196552000Y-106216000D01*
X196552000Y-99579630D01*
X197183946Y-100211576D01*
X197183824Y-100351208D01*
X197338175Y-100724766D01*
X197623731Y-101010821D01*
X197997018Y-101165824D01*
X198401208Y-101166176D01*
X198774766Y-101011825D01*
X199060821Y-100726269D01*
X199215824Y-100352982D01*
X199216176Y-99948792D01*
X199061825Y-99575234D01*
X198776269Y-99289179D01*
X198402982Y-99134176D01*
X198261684Y-99134053D01*
X197993800Y-98866170D01*
X198001208Y-98866176D01*
X198374766Y-98711825D01*
X198660821Y-98426269D01*
X198815824Y-98052982D01*
X198815947Y-97911683D01*
X199231777Y-97495853D01*
X199295679Y-97400217D01*
X199415585Y-97579670D01*
X199730366Y-97790000D01*
X199415585Y-98000330D01*
X199090729Y-98486511D01*
X198976655Y-99060000D01*
X199090729Y-99633489D01*
X199415585Y-100119670D01*
X199730366Y-100330000D01*
X199415585Y-100540330D01*
X199090729Y-101026511D01*
X198976655Y-101600000D01*
X199090729Y-102173489D01*
X199415585Y-102659670D01*
X199730366Y-102870000D01*
X199415585Y-103080330D01*
X199090729Y-103566511D01*
X198976655Y-104140000D01*
X199090729Y-104713489D01*
X199415585Y-105199670D01*
X199730366Y-105410000D01*
X199415585Y-105620330D01*
X199090729Y-106106511D01*
X198976655Y-106680000D01*
X199090729Y-107253489D01*
X199415585Y-107739670D01*
X199730366Y-107950000D01*
X199415585Y-108160330D01*
X199090729Y-108646511D01*
X198976655Y-109220000D01*
X199090729Y-109793489D01*
X199415585Y-110279670D01*
X199730366Y-110490000D01*
X199415585Y-110700330D01*
X199090729Y-111186511D01*
X198976655Y-111760000D01*
X199090729Y-112333489D01*
X199415585Y-112819670D01*
X199730366Y-113030000D01*
X199415585Y-113240330D01*
X199090729Y-113726511D01*
X198976655Y-114300000D01*
X199090729Y-114873489D01*
X199415585Y-115359670D01*
X199730366Y-115570000D01*
X199415585Y-115780330D01*
X199090729Y-116266511D01*
X198976655Y-116840000D01*
X199090729Y-117413489D01*
X199415585Y-117899670D01*
X199730366Y-118110000D01*
X199415585Y-118320330D01*
X199090729Y-118806511D01*
X198976655Y-119380000D01*
X199090729Y-119953489D01*
X199415585Y-120439670D01*
X199730366Y-120650000D01*
X199415585Y-120860330D01*
X199090729Y-121346511D01*
X198976655Y-121920000D01*
X199090729Y-122493489D01*
X199251433Y-122734000D01*
X196513776Y-122734000D01*
X196717908Y-122184539D01*
X196693856Y-121534540D01*
X196491387Y-121045736D01*
X196224532Y-120947073D01*
X195251605Y-121920000D01*
X195265748Y-121934143D01*
X195086143Y-122113748D01*
X195072000Y-122099605D01*
X195057858Y-122113748D01*
X194878253Y-121934143D01*
X194892395Y-121920000D01*
X193919468Y-120947073D01*
X193652613Y-121045736D01*
X193426092Y-121655461D01*
X193450144Y-122305460D01*
X193627651Y-122734000D01*
X190013776Y-122734000D01*
X190217908Y-122184539D01*
X190193856Y-121534540D01*
X189991387Y-121045736D01*
X189724532Y-120947073D01*
X188751605Y-121920000D01*
X188765748Y-121934143D01*
X188586143Y-122113748D01*
X188572000Y-122099605D01*
X188557858Y-122113748D01*
X188378253Y-121934143D01*
X188392395Y-121920000D01*
X187419468Y-120947073D01*
X187152613Y-121045736D01*
X186926092Y-121655461D01*
X186950144Y-122305460D01*
X187127651Y-122734000D01*
X184288567Y-122734000D01*
X184449271Y-122493489D01*
X184563345Y-121920000D01*
X184449271Y-121346511D01*
X184124415Y-120860330D01*
X183985438Y-120767468D01*
X187599073Y-120767468D01*
X188572000Y-121740395D01*
X189544927Y-120767468D01*
X194099073Y-120767468D01*
X195072000Y-121740395D01*
X196044927Y-120767468D01*
X195946264Y-120500613D01*
X195336539Y-120274092D01*
X194686540Y-120298144D01*
X194197736Y-120500613D01*
X194099073Y-120767468D01*
X189544927Y-120767468D01*
X189446264Y-120500613D01*
X188836539Y-120274092D01*
X188186540Y-120298144D01*
X187697736Y-120500613D01*
X187599073Y-120767468D01*
X183985438Y-120767468D01*
X183809634Y-120650000D01*
X184124415Y-120439670D01*
X184449271Y-119953489D01*
X184563345Y-119380000D01*
X184449271Y-118806511D01*
X184124415Y-118320330D01*
X183809634Y-118110000D01*
X184124415Y-117899670D01*
X184449271Y-117413489D01*
X184563345Y-116840000D01*
X184449271Y-116266511D01*
X184124415Y-115780330D01*
X183809634Y-115570000D01*
X184124415Y-115359670D01*
X184449271Y-114873489D01*
X184531992Y-114457622D01*
X187004895Y-116930526D01*
X186937284Y-117093352D01*
X186936716Y-117743795D01*
X187185106Y-118344943D01*
X187644637Y-118805278D01*
X188245352Y-119054716D01*
X188895795Y-119055284D01*
X189496943Y-118806894D01*
X189957278Y-118347363D01*
X190206716Y-117746648D01*
X190206718Y-117743795D01*
X193436716Y-117743795D01*
X193685106Y-118344943D01*
X194144637Y-118805278D01*
X194745352Y-119054716D01*
X195395795Y-119055284D01*
X195996943Y-118806894D01*
X196457278Y-118347363D01*
X196706716Y-117746648D01*
X196707284Y-117096205D01*
X196458894Y-116495057D01*
X195999363Y-116034722D01*
X195398648Y-115785284D01*
X194748205Y-115784716D01*
X194147057Y-116033106D01*
X193686722Y-116492637D01*
X193437284Y-117093352D01*
X193436716Y-117743795D01*
X190206718Y-117743795D01*
X190207284Y-117096205D01*
X189958894Y-116495057D01*
X189499363Y-116034722D01*
X188898648Y-115785284D01*
X188248205Y-115784716D01*
X188082723Y-115853092D01*
X185262000Y-113032370D01*
X185262000Y-104857580D01*
X187246845Y-104857580D01*
X187343518Y-105090969D01*
X187522146Y-105269598D01*
X187672718Y-105420170D01*
X187897225Y-105420170D01*
X188674512Y-104642883D01*
X187985613Y-103953984D01*
X187761107Y-103953984D01*
X187343518Y-104371572D01*
X187246846Y-104604962D01*
X187246845Y-104857580D01*
X185262000Y-104857580D01*
X185262000Y-94835842D01*
X185371218Y-94726624D01*
X185371218Y-94951127D01*
X185788806Y-95368716D01*
X186022196Y-95465388D01*
X186221935Y-95465389D01*
X186208233Y-95528551D01*
X186255757Y-95781122D01*
X186397802Y-95995304D01*
X187458462Y-97055964D01*
X187656165Y-97191049D01*
X187684089Y-97197106D01*
X187683824Y-97501208D01*
X187796824Y-97774690D01*
X187623960Y-97947253D01*
X187468957Y-98320540D01*
X187468605Y-98724730D01*
X187622956Y-99098288D01*
X187722781Y-99198287D01*
X187722781Y-102484781D01*
X187780785Y-102776386D01*
X187899838Y-102954561D01*
X187945966Y-103023596D01*
X188318730Y-103396360D01*
X188165218Y-103549873D01*
X188165218Y-103774379D01*
X188854117Y-104463278D01*
X188868260Y-104449136D01*
X189047865Y-104628741D01*
X189033722Y-104642883D01*
X189047865Y-104657026D01*
X188868260Y-104836631D01*
X188854117Y-104822488D01*
X188076830Y-105599775D01*
X188076830Y-105824282D01*
X188227402Y-105974854D01*
X188406031Y-106153482D01*
X188639420Y-106250155D01*
X188892038Y-106250154D01*
X189125428Y-106153482D01*
X189543016Y-105735893D01*
X189543016Y-105511390D01*
X189611000Y-105579374D01*
X189611000Y-109203662D01*
X189434683Y-109236838D01*
X189218559Y-109375910D01*
X189073569Y-109588110D01*
X189022560Y-109840000D01*
X189022560Y-111140000D01*
X189066838Y-111375317D01*
X189205910Y-111591441D01*
X189418110Y-111736431D01*
X189670000Y-111787440D01*
X191170000Y-111787440D01*
X191405317Y-111743162D01*
X191621441Y-111604090D01*
X191766431Y-111391890D01*
X191769081Y-111378803D01*
X191905910Y-111591441D01*
X192118110Y-111736431D01*
X192370000Y-111787440D01*
X193870000Y-111787440D01*
X194105317Y-111743162D01*
X194321441Y-111604090D01*
X194466431Y-111391890D01*
X194505712Y-111197913D01*
X194525405Y-111193996D01*
X194772615Y-111028815D01*
X195458416Y-110343015D01*
X195557434Y-110194823D01*
X195623596Y-110095805D01*
X195659084Y-109917394D01*
X195780421Y-109796269D01*
X195935424Y-109422982D01*
X195935776Y-109018792D01*
X195781425Y-108645234D01*
X195495869Y-108359179D01*
X195122582Y-108204176D01*
X194718392Y-108203824D01*
X194344834Y-108358175D01*
X194058779Y-108643731D01*
X193903776Y-109017018D01*
X193903617Y-109199368D01*
X193870000Y-109192560D01*
X192370000Y-109192560D01*
X192134683Y-109236838D01*
X191918559Y-109375910D01*
X191773569Y-109588110D01*
X191770919Y-109601197D01*
X191634090Y-109388559D01*
X191421890Y-109243569D01*
X191170000Y-109192560D01*
X191135000Y-109192560D01*
X191135000Y-104373000D01*
X191099910Y-104196592D01*
X192051964Y-103244538D01*
X192187049Y-103046835D01*
X192241533Y-102795673D01*
X192194009Y-102543102D01*
X192129220Y-102445411D01*
X192388816Y-102185815D01*
X192531140Y-101972811D01*
X192553996Y-101938605D01*
X192612000Y-101647000D01*
X192612000Y-101404918D01*
X192710821Y-101306269D01*
X192865824Y-100932982D01*
X192866176Y-100528792D01*
X192711825Y-100155234D01*
X192585000Y-100028187D01*
X192585000Y-98350000D01*
X192561512Y-98231917D01*
X192521440Y-98030460D01*
X192385000Y-97826264D01*
X192385000Y-95417248D01*
X192400434Y-95401814D01*
X192581440Y-95130920D01*
X192634907Y-94862120D01*
X192670821Y-94826269D01*
X192800128Y-94514865D01*
X192923648Y-94701114D01*
G36*
X189543731Y-96600821D02*
X189917018Y-96755824D01*
X190321208Y-96756176D01*
X190694766Y-96601825D01*
X190715000Y-96581626D01*
X190715000Y-98134132D01*
X189716144Y-97135276D01*
X189716176Y-97098792D01*
X189561825Y-96725234D01*
X189462000Y-96625235D01*
X189462000Y-96518947D01*
X189543731Y-96600821D01*
X189543731Y-96600821D01*
G37*
X189543731Y-96600821D02*
X189917018Y-96755824D01*
X190321208Y-96756176D01*
X190694766Y-96601825D01*
X190715000Y-96581626D01*
X190715000Y-98134132D01*
X189716144Y-97135276D01*
X189716176Y-97098792D01*
X189561825Y-96725234D01*
X189462000Y-96625235D01*
X189462000Y-96518947D01*
X189543731Y-96600821D01*
G36*
X196838753Y-94113616D02*
X194717841Y-96234529D01*
X194718166Y-95861086D01*
X194648768Y-95693129D01*
X194758504Y-95620352D01*
X195819164Y-94559692D01*
X195954249Y-94361989D01*
X196008733Y-94110827D01*
X195961209Y-93858256D01*
X195942386Y-93829874D01*
X196083574Y-93888356D01*
X196336193Y-93888355D01*
X196569582Y-93791682D01*
X196838753Y-93522511D01*
X196838753Y-94113616D01*
X196838753Y-94113616D01*
G37*
X196838753Y-94113616D02*
X194717841Y-96234529D01*
X194718166Y-95861086D01*
X194648768Y-95693129D01*
X194758504Y-95620352D01*
X195819164Y-94559692D01*
X195954249Y-94361989D01*
X196008733Y-94110827D01*
X195961209Y-93858256D01*
X195942386Y-93829874D01*
X196083574Y-93888356D01*
X196336193Y-93888355D01*
X196569582Y-93791682D01*
X196838753Y-93522511D01*
X196838753Y-94113616D01*
G36*
X185797018Y-90715824D02*
X186008846Y-90716008D01*
X186008846Y-90754038D01*
X186105518Y-90987428D01*
X186523107Y-91405016D01*
X186568532Y-91405016D01*
X186438830Y-91534718D01*
X186438830Y-91759225D01*
X187216117Y-92536512D01*
X187230260Y-92522370D01*
X187409865Y-92701975D01*
X187395722Y-92716117D01*
X187409865Y-92730260D01*
X187230260Y-92909865D01*
X187216117Y-92895722D01*
X186942621Y-93169218D01*
X186928621Y-93169218D01*
X186239722Y-93858117D01*
X186253865Y-93872260D01*
X186074260Y-94051865D01*
X186060117Y-94037722D01*
X186045975Y-94051865D01*
X185866370Y-93872260D01*
X185880512Y-93858117D01*
X185866370Y-93843975D01*
X186045975Y-93664370D01*
X186060117Y-93678512D01*
X186333613Y-93405016D01*
X186347613Y-93405016D01*
X187036512Y-92716117D01*
X186259225Y-91938830D01*
X186034718Y-91938830D01*
X185884146Y-92089402D01*
X185705518Y-92268031D01*
X185685136Y-92317237D01*
X185612031Y-92347518D01*
X185433402Y-92526146D01*
X185282830Y-92676718D01*
X185282830Y-92901222D01*
X185262000Y-92880392D01*
X185262000Y-92098089D01*
X185349766Y-92061825D01*
X185635821Y-91776269D01*
X185790824Y-91402982D01*
X185791176Y-90998792D01*
X185648831Y-90654291D01*
X185797018Y-90715824D01*
X185797018Y-90715824D01*
G37*
X185797018Y-90715824D02*
X186008846Y-90716008D01*
X186008846Y-90754038D01*
X186105518Y-90987428D01*
X186523107Y-91405016D01*
X186568532Y-91405016D01*
X186438830Y-91534718D01*
X186438830Y-91759225D01*
X187216117Y-92536512D01*
X187230260Y-92522370D01*
X187409865Y-92701975D01*
X187395722Y-92716117D01*
X187409865Y-92730260D01*
X187230260Y-92909865D01*
X187216117Y-92895722D01*
X186942621Y-93169218D01*
X186928621Y-93169218D01*
X186239722Y-93858117D01*
X186253865Y-93872260D01*
X186074260Y-94051865D01*
X186060117Y-94037722D01*
X186045975Y-94051865D01*
X185866370Y-93872260D01*
X185880512Y-93858117D01*
X185866370Y-93843975D01*
X186045975Y-93664370D01*
X186060117Y-93678512D01*
X186333613Y-93405016D01*
X186347613Y-93405016D01*
X187036512Y-92716117D01*
X186259225Y-91938830D01*
X186034718Y-91938830D01*
X185884146Y-92089402D01*
X185705518Y-92268031D01*
X185685136Y-92317237D01*
X185612031Y-92347518D01*
X185433402Y-92526146D01*
X185282830Y-92676718D01*
X185282830Y-92901222D01*
X185262000Y-92880392D01*
X185262000Y-92098089D01*
X185349766Y-92061825D01*
X185635821Y-91776269D01*
X185790824Y-91402982D01*
X185791176Y-90998792D01*
X185648831Y-90654291D01*
X185797018Y-90715824D01*
G36*
X196474342Y-92249264D02*
X196460199Y-92263406D01*
X196474342Y-92277548D01*
X196294736Y-92457154D01*
X196280594Y-92443011D01*
X196266452Y-92457154D01*
X196086847Y-92277549D01*
X196100989Y-92263406D01*
X196086846Y-92249264D01*
X196266452Y-92069659D01*
X196280594Y-92083801D01*
X196294737Y-92069659D01*
X196474342Y-92249264D01*
X196474342Y-92249264D01*
G37*
X196474342Y-92249264D02*
X196460199Y-92263406D01*
X196474342Y-92277548D01*
X196294736Y-92457154D01*
X196280594Y-92443011D01*
X196266452Y-92457154D01*
X196086847Y-92277549D01*
X196100989Y-92263406D01*
X196086846Y-92249264D01*
X196266452Y-92069659D01*
X196280594Y-92083801D01*
X196294737Y-92069659D01*
X196474342Y-92249264D01*
G36*
X191103731Y-87390821D02*
X191477018Y-87545824D01*
X191881208Y-87546176D01*
X192008853Y-87493434D01*
X192008824Y-87526208D01*
X192035450Y-87590649D01*
X191848559Y-87710910D01*
X191802031Y-87779006D01*
X191659698Y-87636673D01*
X191426309Y-87540000D01*
X190835750Y-87540000D01*
X190677000Y-87698750D01*
X190677000Y-88673000D01*
X190697000Y-88673000D01*
X190697000Y-88927000D01*
X190677000Y-88927000D01*
X190677000Y-88947000D01*
X190423000Y-88947000D01*
X190423000Y-88927000D01*
X189323750Y-88927000D01*
X189165000Y-89085750D01*
X189165000Y-89551310D01*
X189189911Y-89611451D01*
X189125234Y-89638175D01*
X188839179Y-89923731D01*
X188770658Y-90088748D01*
X188709127Y-90027218D01*
X188484621Y-90027218D01*
X187795722Y-90716117D01*
X187809865Y-90730260D01*
X187630260Y-90909865D01*
X187616117Y-90895722D01*
X187601975Y-90909865D01*
X187422370Y-90730260D01*
X187436512Y-90716117D01*
X187422370Y-90701975D01*
X187601975Y-90522370D01*
X187616117Y-90536512D01*
X188305016Y-89847613D01*
X188305016Y-89623107D01*
X188259770Y-89577860D01*
X189244190Y-88593440D01*
X189323750Y-88673000D01*
X190423000Y-88673000D01*
X190423000Y-87698750D01*
X190280940Y-87556690D01*
X190545630Y-87292000D01*
X191005082Y-87292000D01*
X191103731Y-87390821D01*
X191103731Y-87390821D01*
G37*
X191103731Y-87390821D02*
X191477018Y-87545824D01*
X191881208Y-87546176D01*
X192008853Y-87493434D01*
X192008824Y-87526208D01*
X192035450Y-87590649D01*
X191848559Y-87710910D01*
X191802031Y-87779006D01*
X191659698Y-87636673D01*
X191426309Y-87540000D01*
X190835750Y-87540000D01*
X190677000Y-87698750D01*
X190677000Y-88673000D01*
X190697000Y-88673000D01*
X190697000Y-88927000D01*
X190677000Y-88927000D01*
X190677000Y-88947000D01*
X190423000Y-88947000D01*
X190423000Y-88927000D01*
X189323750Y-88927000D01*
X189165000Y-89085750D01*
X189165000Y-89551310D01*
X189189911Y-89611451D01*
X189125234Y-89638175D01*
X188839179Y-89923731D01*
X188770658Y-90088748D01*
X188709127Y-90027218D01*
X188484621Y-90027218D01*
X187795722Y-90716117D01*
X187809865Y-90730260D01*
X187630260Y-90909865D01*
X187616117Y-90895722D01*
X187601975Y-90909865D01*
X187422370Y-90730260D01*
X187436512Y-90716117D01*
X187422370Y-90701975D01*
X187601975Y-90522370D01*
X187616117Y-90536512D01*
X188305016Y-89847613D01*
X188305016Y-89623107D01*
X188259770Y-89577860D01*
X189244190Y-88593440D01*
X189323750Y-88673000D01*
X190423000Y-88673000D01*
X190423000Y-87698750D01*
X190280940Y-87556690D01*
X190545630Y-87292000D01*
X191005082Y-87292000D01*
X191103731Y-87390821D01*
G36*
X195667000Y-84963000D02*
X195687000Y-84963000D01*
X195687000Y-85217000D01*
X195667000Y-85217000D01*
X195667000Y-86191250D01*
X195825750Y-86350000D01*
X196416309Y-86350000D01*
X196649698Y-86253327D01*
X196828327Y-86074699D01*
X196838753Y-86049528D01*
X196838753Y-89812301D01*
X196765282Y-89738830D01*
X196540775Y-89738830D01*
X195763488Y-90516117D01*
X195777631Y-90530260D01*
X195598026Y-90709865D01*
X195583883Y-90695722D01*
X195569741Y-90709865D01*
X195390136Y-90530260D01*
X195404278Y-90516117D01*
X195390136Y-90501975D01*
X195569741Y-90322370D01*
X195583883Y-90336512D01*
X196361170Y-89559225D01*
X196361170Y-89334718D01*
X196219126Y-89192674D01*
X196385821Y-89026269D01*
X196540824Y-88652982D01*
X196541176Y-88248792D01*
X196386825Y-87875234D01*
X196101269Y-87589179D01*
X195727982Y-87434176D01*
X195323792Y-87433824D01*
X194950234Y-87588175D01*
X194664179Y-87873731D01*
X194626281Y-87965000D01*
X194407926Y-87965000D01*
X194403162Y-87939683D01*
X194264090Y-87723559D01*
X194051890Y-87578569D01*
X194022306Y-87572578D01*
X194040824Y-87527982D01*
X194041176Y-87123792D01*
X193886825Y-86750234D01*
X193601269Y-86464179D01*
X193356255Y-86362440D01*
X193790000Y-86362440D01*
X194025317Y-86318162D01*
X194241441Y-86179090D01*
X194287969Y-86110994D01*
X194430302Y-86253327D01*
X194663691Y-86350000D01*
X195254250Y-86350000D01*
X195413000Y-86191250D01*
X195413000Y-85217000D01*
X195393000Y-85217000D01*
X195393000Y-84963000D01*
X195413000Y-84963000D01*
X195413000Y-84943000D01*
X195667000Y-84943000D01*
X195667000Y-84963000D01*
X195667000Y-84963000D01*
G37*
X195667000Y-84963000D02*
X195687000Y-84963000D01*
X195687000Y-85217000D01*
X195667000Y-85217000D01*
X195667000Y-86191250D01*
X195825750Y-86350000D01*
X196416309Y-86350000D01*
X196649698Y-86253327D01*
X196828327Y-86074699D01*
X196838753Y-86049528D01*
X196838753Y-89812301D01*
X196765282Y-89738830D01*
X196540775Y-89738830D01*
X195763488Y-90516117D01*
X195777631Y-90530260D01*
X195598026Y-90709865D01*
X195583883Y-90695722D01*
X195569741Y-90709865D01*
X195390136Y-90530260D01*
X195404278Y-90516117D01*
X195390136Y-90501975D01*
X195569741Y-90322370D01*
X195583883Y-90336512D01*
X196361170Y-89559225D01*
X196361170Y-89334718D01*
X196219126Y-89192674D01*
X196385821Y-89026269D01*
X196540824Y-88652982D01*
X196541176Y-88248792D01*
X196386825Y-87875234D01*
X196101269Y-87589179D01*
X195727982Y-87434176D01*
X195323792Y-87433824D01*
X194950234Y-87588175D01*
X194664179Y-87873731D01*
X194626281Y-87965000D01*
X194407926Y-87965000D01*
X194403162Y-87939683D01*
X194264090Y-87723559D01*
X194051890Y-87578569D01*
X194022306Y-87572578D01*
X194040824Y-87527982D01*
X194041176Y-87123792D01*
X193886825Y-86750234D01*
X193601269Y-86464179D01*
X193356255Y-86362440D01*
X193790000Y-86362440D01*
X194025317Y-86318162D01*
X194241441Y-86179090D01*
X194287969Y-86110994D01*
X194430302Y-86253327D01*
X194663691Y-86350000D01*
X195254250Y-86350000D01*
X195413000Y-86191250D01*
X195413000Y-85217000D01*
X195393000Y-85217000D01*
X195393000Y-84963000D01*
X195413000Y-84963000D01*
X195413000Y-84943000D01*
X195667000Y-84943000D01*
X195667000Y-84963000D01*
G36*
X184846511Y-82849271D02*
X185420000Y-82963345D01*
X185798105Y-82888135D01*
X185998785Y-83088815D01*
X186245995Y-83253996D01*
X186537600Y-83312000D01*
X186816516Y-83312000D01*
X187334516Y-83830000D01*
X187083691Y-83830000D01*
X186850302Y-83926673D01*
X186806896Y-83970078D01*
X186651269Y-83814179D01*
X186277982Y-83659176D01*
X185873792Y-83658824D01*
X185500234Y-83813175D01*
X185214179Y-84098731D01*
X185059176Y-84472018D01*
X185059053Y-84613316D01*
X184223600Y-85448770D01*
X184124415Y-85300330D01*
X183814931Y-85093539D01*
X184230732Y-84722036D01*
X184484709Y-84194791D01*
X184487358Y-84179026D01*
X184366217Y-83947000D01*
X183007000Y-83947000D01*
X183007000Y-83967000D01*
X182753000Y-83967000D01*
X182753000Y-83947000D01*
X182733000Y-83947000D01*
X182733000Y-83693000D01*
X182753000Y-83693000D01*
X182753000Y-83673000D01*
X183007000Y-83673000D01*
X183007000Y-83693000D01*
X184366217Y-83693000D01*
X184487358Y-83460974D01*
X184484709Y-83445209D01*
X184230732Y-82917964D01*
X184055155Y-82761093D01*
X184131317Y-82746762D01*
X184347441Y-82607690D01*
X184390546Y-82544604D01*
X184846511Y-82849271D01*
X184846511Y-82849271D01*
G37*
X184846511Y-82849271D02*
X185420000Y-82963345D01*
X185798105Y-82888135D01*
X185998785Y-83088815D01*
X186245995Y-83253996D01*
X186537600Y-83312000D01*
X186816516Y-83312000D01*
X187334516Y-83830000D01*
X187083691Y-83830000D01*
X186850302Y-83926673D01*
X186806896Y-83970078D01*
X186651269Y-83814179D01*
X186277982Y-83659176D01*
X185873792Y-83658824D01*
X185500234Y-83813175D01*
X185214179Y-84098731D01*
X185059176Y-84472018D01*
X185059053Y-84613316D01*
X184223600Y-85448770D01*
X184124415Y-85300330D01*
X183814931Y-85093539D01*
X184230732Y-84722036D01*
X184484709Y-84194791D01*
X184487358Y-84179026D01*
X184366217Y-83947000D01*
X183007000Y-83947000D01*
X183007000Y-83967000D01*
X182753000Y-83967000D01*
X182753000Y-83947000D01*
X182733000Y-83947000D01*
X182733000Y-83693000D01*
X182753000Y-83693000D01*
X182753000Y-83673000D01*
X183007000Y-83673000D01*
X183007000Y-83693000D01*
X184366217Y-83693000D01*
X184487358Y-83460974D01*
X184484709Y-83445209D01*
X184230732Y-82917964D01*
X184055155Y-82761093D01*
X184131317Y-82746762D01*
X184347441Y-82607690D01*
X184390546Y-82544604D01*
X184846511Y-82849271D01*
G36*
X188087000Y-84963000D02*
X188107000Y-84963000D01*
X188107000Y-85217000D01*
X188087000Y-85217000D01*
X188087000Y-85237000D01*
X187833000Y-85237000D01*
X187833000Y-85217000D01*
X187813000Y-85217000D01*
X187813000Y-84963000D01*
X187833000Y-84963000D01*
X187833000Y-84943000D01*
X188087000Y-84943000D01*
X188087000Y-84963000D01*
X188087000Y-84963000D01*
G37*
X188087000Y-84963000D02*
X188107000Y-84963000D01*
X188107000Y-85217000D01*
X188087000Y-85217000D01*
X188087000Y-85237000D01*
X187833000Y-85237000D01*
X187833000Y-85217000D01*
X187813000Y-85217000D01*
X187813000Y-84963000D01*
X187833000Y-84963000D01*
X187833000Y-84943000D01*
X188087000Y-84943000D01*
X188087000Y-84963000D01*
G36*
X193167000Y-81153000D02*
X193187000Y-81153000D01*
X193187000Y-81407000D01*
X193167000Y-81407000D01*
X193167000Y-81427000D01*
X192913000Y-81427000D01*
X192913000Y-81407000D01*
X192893000Y-81407000D01*
X192893000Y-81153000D01*
X192913000Y-81153000D01*
X192913000Y-81133000D01*
X193167000Y-81133000D01*
X193167000Y-81153000D01*
X193167000Y-81153000D01*
G37*
X193167000Y-81153000D02*
X193187000Y-81153000D01*
X193187000Y-81407000D01*
X193167000Y-81407000D01*
X193167000Y-81427000D01*
X192913000Y-81427000D01*
X192913000Y-81407000D01*
X192893000Y-81407000D01*
X192893000Y-81153000D01*
X192913000Y-81153000D01*
X192913000Y-81133000D01*
X193167000Y-81133000D01*
X193167000Y-81153000D01*
M02*
