G04 #@! TF.FileFunction,Soldermask,Bot*
%FSLAX46Y46*%
G04 Gerber Fmt 4.6, Leading zero omitted, Abs format (unit mm)*
G04 Created by KiCad (PCBNEW 4.0.4+e1-6308~48~ubuntu16.04.1-stable) date Wed Oct 26 20:07:28 2016*
%MOMM*%
%LPD*%
G01*
G04 APERTURE LIST*
%ADD10C,0.101600*%
%ADD11R,2.127200X2.432000*%
%ADD12O,2.127200X2.432000*%
%ADD13R,1.900000X1.650000*%
%ADD14C,2.400000*%
%ADD15R,2.432000X2.127200*%
%ADD16O,2.432000X2.127200*%
%ADD17R,1.900000X1.700000*%
G04 APERTURE END LIST*
D10*
D11*
X198120000Y-81280000D03*
D12*
X195580000Y-81280000D03*
X193040000Y-81280000D03*
X190500000Y-81280000D03*
X187960000Y-81280000D03*
X185420000Y-81280000D03*
D13*
X193040000Y-85090000D03*
X195540000Y-85090000D03*
X190460000Y-85090000D03*
X187960000Y-85090000D03*
D10*
G36*
X190238998Y-94572271D02*
X189072271Y-95738998D01*
X187728768Y-94395495D01*
X188895495Y-93228768D01*
X190238998Y-94572271D01*
X190238998Y-94572271D01*
G37*
G36*
X188471232Y-92804505D02*
X187304505Y-93971232D01*
X185961002Y-92627729D01*
X187127729Y-91461002D01*
X188471232Y-92804505D01*
X188471232Y-92804505D01*
G37*
G36*
X186361002Y-90627729D02*
X187527729Y-89461002D01*
X188871232Y-90804505D01*
X187704505Y-91971232D01*
X186361002Y-90627729D01*
X186361002Y-90627729D01*
G37*
G36*
X188128768Y-92395495D02*
X189295495Y-91228768D01*
X190638998Y-92572271D01*
X189472271Y-93738998D01*
X188128768Y-92395495D01*
X188128768Y-92395495D01*
G37*
G36*
X194300695Y-95445386D02*
X193098614Y-94243305D01*
X194442117Y-92899802D01*
X195644198Y-94101883D01*
X194300695Y-95445386D01*
X194300695Y-95445386D01*
G37*
G36*
X196209883Y-93536198D02*
X195007802Y-92334117D01*
X196351305Y-90990614D01*
X197553386Y-92192695D01*
X196209883Y-93536198D01*
X196209883Y-93536198D01*
G37*
G36*
X190710271Y-101620002D02*
X191876998Y-102786729D01*
X190533495Y-104130232D01*
X189366768Y-102963505D01*
X190710271Y-101620002D01*
X190710271Y-101620002D01*
G37*
G36*
X188942505Y-103387768D02*
X190109232Y-104554495D01*
X188765729Y-105897998D01*
X187599002Y-104731271D01*
X188942505Y-103387768D01*
X188942505Y-103387768D01*
G37*
D13*
X193050000Y-88800000D03*
X190550000Y-88800000D03*
D14*
X195072000Y-117420000D03*
X195072000Y-121920000D03*
X188572000Y-117420000D03*
X188572000Y-121920000D03*
D10*
G36*
X193727729Y-93538998D02*
X192561002Y-92372271D01*
X193904505Y-91028768D01*
X195071232Y-92195495D01*
X193727729Y-93538998D01*
X193727729Y-93538998D01*
G37*
G36*
X195495495Y-91771232D02*
X194328768Y-90604505D01*
X195672271Y-89261002D01*
X196838998Y-90427729D01*
X195495495Y-91771232D01*
X195495495Y-91771232D01*
G37*
G36*
X189082998Y-95714271D02*
X187916271Y-96880998D01*
X186572768Y-95537495D01*
X187739495Y-94370768D01*
X189082998Y-95714271D01*
X189082998Y-95714271D01*
G37*
G36*
X187315232Y-93946505D02*
X186148505Y-95113232D01*
X184805002Y-93769729D01*
X185971729Y-92603002D01*
X187315232Y-93946505D01*
X187315232Y-93946505D01*
G37*
D15*
X182880000Y-81280000D03*
D16*
X182880000Y-83820000D03*
X182880000Y-86360000D03*
X182880000Y-88900000D03*
X182880000Y-91440000D03*
X182880000Y-93980000D03*
X182880000Y-96520000D03*
X182880000Y-99060000D03*
X182880000Y-101600000D03*
X182880000Y-104140000D03*
X182880000Y-106680000D03*
X182880000Y-109220000D03*
X182880000Y-111760000D03*
X182880000Y-114300000D03*
X182880000Y-116840000D03*
X182880000Y-119380000D03*
X182880000Y-121920000D03*
D15*
X200660000Y-81280000D03*
D16*
X200660000Y-83820000D03*
X200660000Y-86360000D03*
X200660000Y-88900000D03*
X200660000Y-91440000D03*
X200660000Y-93980000D03*
X200660000Y-96520000D03*
X200660000Y-99060000D03*
X200660000Y-101600000D03*
X200660000Y-104140000D03*
X200660000Y-106680000D03*
X200660000Y-109220000D03*
X200660000Y-111760000D03*
X200660000Y-114300000D03*
X200660000Y-116840000D03*
X200660000Y-119380000D03*
X200660000Y-121920000D03*
D17*
X190420000Y-110490000D03*
X193120000Y-110490000D03*
M02*
