G04 #@! TF.FileFunction,Legend,Bot*
%FSLAX46Y46*%
G04 Gerber Fmt 4.6, Leading zero omitted, Abs format (unit mm)*
G04 Created by KiCad (PCBNEW 4.0.4+e1-6308~48~ubuntu16.04.1-stable) date Wed Oct 26 20:07:28 2016*
%MOMM*%
%LPD*%
G01*
G04 APERTURE LIST*
%ADD10C,0.101600*%
%ADD11C,0.150000*%
G04 APERTURE END LIST*
D10*
D11*
X198204429Y-122064290D02*
X197556810Y-122064290D01*
X197480619Y-122102385D01*
X197442524Y-122140480D01*
X197404429Y-122216671D01*
X197404429Y-122330956D01*
X197442524Y-122407147D01*
X197709190Y-122064290D02*
X197671095Y-122140480D01*
X197671095Y-122292861D01*
X197709190Y-122369052D01*
X197747286Y-122407147D01*
X197823476Y-122445242D01*
X198052048Y-122445242D01*
X198128238Y-122407147D01*
X198166333Y-122369052D01*
X198204429Y-122292861D01*
X198204429Y-122140480D01*
X198166333Y-122064290D01*
X197671095Y-121683337D02*
X198204429Y-121683337D01*
X198471095Y-121683337D02*
X198433000Y-121721432D01*
X198394905Y-121683337D01*
X198433000Y-121645242D01*
X198471095Y-121683337D01*
X198394905Y-121683337D01*
X198204429Y-121416671D02*
X198204429Y-121111909D01*
X198471095Y-121302385D02*
X197785381Y-121302385D01*
X197709190Y-121264290D01*
X197671095Y-121188099D01*
X197671095Y-121111909D01*
X197671095Y-120845242D02*
X198471095Y-120845242D01*
X197671095Y-120502385D02*
X198090143Y-120502385D01*
X198166333Y-120540480D01*
X198204429Y-120616670D01*
X198204429Y-120730956D01*
X198166333Y-120807147D01*
X198128238Y-120845242D01*
X198204429Y-119778575D02*
X197671095Y-119778575D01*
X198204429Y-120121432D02*
X197785381Y-120121432D01*
X197709190Y-120083337D01*
X197671095Y-120007146D01*
X197671095Y-119892860D01*
X197709190Y-119816670D01*
X197747286Y-119778575D01*
X197671095Y-119397622D02*
X198471095Y-119397622D01*
X198166333Y-119397622D02*
X198204429Y-119321431D01*
X198204429Y-119169050D01*
X198166333Y-119092860D01*
X198128238Y-119054765D01*
X198052048Y-119016669D01*
X197823476Y-119016669D01*
X197747286Y-119054765D01*
X197709190Y-119092860D01*
X197671095Y-119169050D01*
X197671095Y-119321431D01*
X197709190Y-119397622D01*
X197747286Y-118673812D02*
X197709190Y-118635717D01*
X197671095Y-118673812D01*
X197709190Y-118711907D01*
X197747286Y-118673812D01*
X197671095Y-118673812D01*
X197709190Y-117950003D02*
X197671095Y-118026193D01*
X197671095Y-118178574D01*
X197709190Y-118254765D01*
X197747286Y-118292860D01*
X197823476Y-118330955D01*
X198052048Y-118330955D01*
X198128238Y-118292860D01*
X198166333Y-118254765D01*
X198204429Y-118178574D01*
X198204429Y-118026193D01*
X198166333Y-117950003D01*
X197671095Y-117492860D02*
X197709190Y-117569051D01*
X197747286Y-117607146D01*
X197823476Y-117645241D01*
X198052048Y-117645241D01*
X198128238Y-117607146D01*
X198166333Y-117569051D01*
X198204429Y-117492860D01*
X198204429Y-117378574D01*
X198166333Y-117302384D01*
X198128238Y-117264289D01*
X198052048Y-117226193D01*
X197823476Y-117226193D01*
X197747286Y-117264289D01*
X197709190Y-117302384D01*
X197671095Y-117378574D01*
X197671095Y-117492860D01*
X197671095Y-116883336D02*
X198204429Y-116883336D01*
X198128238Y-116883336D02*
X198166333Y-116845241D01*
X198204429Y-116769050D01*
X198204429Y-116654764D01*
X198166333Y-116578574D01*
X198090143Y-116540479D01*
X197671095Y-116540479D01*
X198090143Y-116540479D02*
X198166333Y-116502383D01*
X198204429Y-116426193D01*
X198204429Y-116311907D01*
X198166333Y-116235717D01*
X198090143Y-116197622D01*
X197671095Y-116197622D01*
X198509190Y-115245240D02*
X197480619Y-115930955D01*
X198204429Y-115092860D02*
X198204429Y-114788098D01*
X198471095Y-114978574D02*
X197785381Y-114978574D01*
X197709190Y-114940479D01*
X197671095Y-114864288D01*
X197671095Y-114788098D01*
X197671095Y-114521431D02*
X198471095Y-114521431D01*
X197671095Y-114178574D02*
X198090143Y-114178574D01*
X198166333Y-114216669D01*
X198204429Y-114292859D01*
X198204429Y-114407145D01*
X198166333Y-114483336D01*
X198128238Y-114521431D01*
X197709190Y-113492859D02*
X197671095Y-113569049D01*
X197671095Y-113721430D01*
X197709190Y-113797621D01*
X197785381Y-113835716D01*
X198090143Y-113835716D01*
X198166333Y-113797621D01*
X198204429Y-113721430D01*
X198204429Y-113569049D01*
X198166333Y-113492859D01*
X198090143Y-113454764D01*
X198013952Y-113454764D01*
X197937762Y-113835716D01*
X197671095Y-112769050D02*
X198090143Y-112769050D01*
X198166333Y-112807145D01*
X198204429Y-112883335D01*
X198204429Y-113035716D01*
X198166333Y-113111907D01*
X197709190Y-112769050D02*
X197671095Y-112845240D01*
X197671095Y-113035716D01*
X197709190Y-113111907D01*
X197785381Y-113150002D01*
X197861571Y-113150002D01*
X197937762Y-113111907D01*
X197975857Y-113035716D01*
X197975857Y-112845240D01*
X198013952Y-112769050D01*
X198204429Y-112388097D02*
X197404429Y-112388097D01*
X198166333Y-112388097D02*
X198204429Y-112311906D01*
X198204429Y-112159525D01*
X198166333Y-112083335D01*
X198128238Y-112045240D01*
X198052048Y-112007144D01*
X197823476Y-112007144D01*
X197747286Y-112045240D01*
X197709190Y-112083335D01*
X197671095Y-112159525D01*
X197671095Y-112311906D01*
X197709190Y-112388097D01*
X197671095Y-111664287D02*
X198204429Y-111664287D01*
X198471095Y-111664287D02*
X198433000Y-111702382D01*
X198394905Y-111664287D01*
X198433000Y-111626192D01*
X198471095Y-111664287D01*
X198394905Y-111664287D01*
X198509190Y-110711906D02*
X197480619Y-111397621D01*
X197709190Y-110483335D02*
X197671095Y-110369049D01*
X197671095Y-110178573D01*
X197709190Y-110102383D01*
X197747286Y-110064287D01*
X197823476Y-110026192D01*
X197899667Y-110026192D01*
X197975857Y-110064287D01*
X198013952Y-110102383D01*
X198052048Y-110178573D01*
X198090143Y-110330954D01*
X198128238Y-110407145D01*
X198166333Y-110445240D01*
X198242524Y-110483335D01*
X198318714Y-110483335D01*
X198394905Y-110445240D01*
X198433000Y-110407145D01*
X198471095Y-110330954D01*
X198471095Y-110140478D01*
X198433000Y-110026192D01*
X198471095Y-109797621D02*
X198471095Y-109340478D01*
X197671095Y-109569049D02*
X198471095Y-109569049D01*
X197671095Y-109073811D02*
X198471095Y-109073811D01*
X197899667Y-108807144D01*
X198471095Y-108540477D01*
X197671095Y-108540477D01*
X198471095Y-108235715D02*
X198471095Y-107740477D01*
X198166333Y-108007144D01*
X198166333Y-107892858D01*
X198128238Y-107816668D01*
X198090143Y-107778572D01*
X198013952Y-107740477D01*
X197823476Y-107740477D01*
X197747286Y-107778572D01*
X197709190Y-107816668D01*
X197671095Y-107892858D01*
X197671095Y-108121430D01*
X197709190Y-108197620D01*
X197747286Y-108235715D01*
X198394905Y-107435715D02*
X198433000Y-107397620D01*
X198471095Y-107321429D01*
X198471095Y-107130953D01*
X198433000Y-107054763D01*
X198394905Y-107016667D01*
X198318714Y-106978572D01*
X198242524Y-106978572D01*
X198128238Y-107016667D01*
X197671095Y-107473810D01*
X197671095Y-106978572D01*
X197671095Y-106254762D02*
X197671095Y-106635715D01*
X198471095Y-106635715D01*
X198471095Y-105835715D02*
X198471095Y-105759524D01*
X198433000Y-105683334D01*
X198394905Y-105645239D01*
X198318714Y-105607143D01*
X198166333Y-105569048D01*
X197975857Y-105569048D01*
X197823476Y-105607143D01*
X197747286Y-105645239D01*
X197709190Y-105683334D01*
X197671095Y-105759524D01*
X197671095Y-105835715D01*
X197709190Y-105911905D01*
X197747286Y-105950001D01*
X197823476Y-105988096D01*
X197975857Y-106026191D01*
X198166333Y-106026191D01*
X198318714Y-105988096D01*
X198394905Y-105950001D01*
X198433000Y-105911905D01*
X198471095Y-105835715D01*
X198471095Y-104845238D02*
X198471095Y-105226191D01*
X198090143Y-105264286D01*
X198128238Y-105226191D01*
X198166333Y-105150000D01*
X198166333Y-104959524D01*
X198128238Y-104883334D01*
X198090143Y-104845238D01*
X198013952Y-104807143D01*
X197823476Y-104807143D01*
X197747286Y-104845238D01*
X197709190Y-104883334D01*
X197671095Y-104959524D01*
X197671095Y-105150000D01*
X197709190Y-105226191D01*
X197747286Y-105264286D01*
X198471095Y-104540476D02*
X198471095Y-104045238D01*
X198166333Y-104311905D01*
X198166333Y-104197619D01*
X198128238Y-104121429D01*
X198090143Y-104083333D01*
X198013952Y-104045238D01*
X197823476Y-104045238D01*
X197747286Y-104083333D01*
X197709190Y-104121429D01*
X197671095Y-104197619D01*
X197671095Y-104426191D01*
X197709190Y-104502381D01*
X197747286Y-104540476D01*
X197747286Y-103245238D02*
X197709190Y-103283333D01*
X197671095Y-103397619D01*
X197671095Y-103473809D01*
X197709190Y-103588095D01*
X197785381Y-103664286D01*
X197861571Y-103702381D01*
X198013952Y-103740476D01*
X198128238Y-103740476D01*
X198280619Y-103702381D01*
X198356810Y-103664286D01*
X198433000Y-103588095D01*
X198471095Y-103473809D01*
X198471095Y-103397619D01*
X198433000Y-103283333D01*
X198394905Y-103245238D01*
X197594905Y-103092857D02*
X197594905Y-102483333D01*
X197671095Y-102292857D02*
X198471095Y-102292857D01*
X198166333Y-102292857D02*
X198204429Y-102216666D01*
X198204429Y-102064285D01*
X198166333Y-101988095D01*
X198128238Y-101950000D01*
X198052048Y-101911904D01*
X197823476Y-101911904D01*
X197747286Y-101950000D01*
X197709190Y-101988095D01*
X197671095Y-102064285D01*
X197671095Y-102216666D01*
X197709190Y-102292857D01*
X197671095Y-101569047D02*
X198204429Y-101569047D01*
X198052048Y-101569047D02*
X198128238Y-101530952D01*
X198166333Y-101492856D01*
X198204429Y-101416666D01*
X198204429Y-101340475D01*
X197709190Y-100769047D02*
X197671095Y-100845237D01*
X197671095Y-100997618D01*
X197709190Y-101073809D01*
X197785381Y-101111904D01*
X198090143Y-101111904D01*
X198166333Y-101073809D01*
X198204429Y-100997618D01*
X198204429Y-100845237D01*
X198166333Y-100769047D01*
X198090143Y-100730952D01*
X198013952Y-100730952D01*
X197937762Y-101111904D01*
X197671095Y-100045238D02*
X198090143Y-100045238D01*
X198166333Y-100083333D01*
X198204429Y-100159523D01*
X198204429Y-100311904D01*
X198166333Y-100388095D01*
X197709190Y-100045238D02*
X197671095Y-100121428D01*
X197671095Y-100311904D01*
X197709190Y-100388095D01*
X197785381Y-100426190D01*
X197861571Y-100426190D01*
X197937762Y-100388095D01*
X197975857Y-100311904D01*
X197975857Y-100121428D01*
X198013952Y-100045238D01*
X197671095Y-99664285D02*
X198471095Y-99664285D01*
X197975857Y-99588094D02*
X197671095Y-99359523D01*
X198204429Y-99359523D02*
X197899667Y-99664285D01*
X197671095Y-98902380D02*
X197709190Y-98978571D01*
X197747286Y-99016666D01*
X197823476Y-99054761D01*
X198052048Y-99054761D01*
X198128238Y-99016666D01*
X198166333Y-98978571D01*
X198204429Y-98902380D01*
X198204429Y-98788094D01*
X198166333Y-98711904D01*
X198128238Y-98673809D01*
X198052048Y-98635713D01*
X197823476Y-98635713D01*
X197747286Y-98673809D01*
X197709190Y-98711904D01*
X197671095Y-98788094D01*
X197671095Y-98902380D01*
X198204429Y-97949999D02*
X197671095Y-97949999D01*
X198204429Y-98292856D02*
X197785381Y-98292856D01*
X197709190Y-98254761D01*
X197671095Y-98178570D01*
X197671095Y-98064284D01*
X197709190Y-97988094D01*
X197747286Y-97949999D01*
X198204429Y-97683332D02*
X198204429Y-97378570D01*
X198471095Y-97569046D02*
X197785381Y-97569046D01*
X197709190Y-97530951D01*
X197671095Y-97454760D01*
X197671095Y-97378570D01*
X197594905Y-97302379D02*
X197594905Y-96692855D01*
X197671095Y-96502379D02*
X198471095Y-96502379D01*
X198166333Y-96502379D02*
X198204429Y-96426188D01*
X198204429Y-96273807D01*
X198166333Y-96197617D01*
X198128238Y-96159522D01*
X198052048Y-96121426D01*
X197823476Y-96121426D01*
X197747286Y-96159522D01*
X197709190Y-96197617D01*
X197671095Y-96273807D01*
X197671095Y-96426188D01*
X197709190Y-96502379D01*
X197671095Y-95664283D02*
X197709190Y-95740474D01*
X197747286Y-95778569D01*
X197823476Y-95816664D01*
X198052048Y-95816664D01*
X198128238Y-95778569D01*
X198166333Y-95740474D01*
X198204429Y-95664283D01*
X198204429Y-95549997D01*
X198166333Y-95473807D01*
X198128238Y-95435712D01*
X198052048Y-95397616D01*
X197823476Y-95397616D01*
X197747286Y-95435712D01*
X197709190Y-95473807D01*
X197671095Y-95549997D01*
X197671095Y-95664283D01*
X197671095Y-94711902D02*
X198090143Y-94711902D01*
X198166333Y-94749997D01*
X198204429Y-94826187D01*
X198204429Y-94978568D01*
X198166333Y-95054759D01*
X197709190Y-94711902D02*
X197671095Y-94788092D01*
X197671095Y-94978568D01*
X197709190Y-95054759D01*
X197785381Y-95092854D01*
X197861571Y-95092854D01*
X197937762Y-95054759D01*
X197975857Y-94978568D01*
X197975857Y-94788092D01*
X198013952Y-94711902D01*
X197671095Y-94330949D02*
X198204429Y-94330949D01*
X198052048Y-94330949D02*
X198128238Y-94292854D01*
X198166333Y-94254758D01*
X198204429Y-94178568D01*
X198204429Y-94102377D01*
X197671095Y-93492854D02*
X198471095Y-93492854D01*
X197709190Y-93492854D02*
X197671095Y-93569044D01*
X197671095Y-93721425D01*
X197709190Y-93797616D01*
X197747286Y-93835711D01*
X197823476Y-93873806D01*
X198052048Y-93873806D01*
X198128238Y-93835711D01*
X198166333Y-93797616D01*
X198204429Y-93721425D01*
X198204429Y-93569044D01*
X198166333Y-93492854D01*
X196854429Y-109092857D02*
X196321095Y-108902381D01*
X196854429Y-108711905D01*
X196321095Y-107988095D02*
X196321095Y-108445238D01*
X196321095Y-108216667D02*
X197121095Y-108216667D01*
X197006810Y-108292857D01*
X196930619Y-108369048D01*
X196892524Y-108445238D01*
X196397286Y-107645238D02*
X196359190Y-107607143D01*
X196321095Y-107645238D01*
X196359190Y-107683333D01*
X196397286Y-107645238D01*
X196321095Y-107645238D01*
X197121095Y-107111905D02*
X197121095Y-107035714D01*
X197083000Y-106959524D01*
X197044905Y-106921429D01*
X196968714Y-106883333D01*
X196816333Y-106845238D01*
X196625857Y-106845238D01*
X196473476Y-106883333D01*
X196397286Y-106921429D01*
X196359190Y-106959524D01*
X196321095Y-107035714D01*
X196321095Y-107111905D01*
X196359190Y-107188095D01*
X196397286Y-107226191D01*
X196473476Y-107264286D01*
X196625857Y-107302381D01*
X196816333Y-107302381D01*
X196968714Y-107264286D01*
X197044905Y-107226191D01*
X197083000Y-107188095D01*
X197121095Y-107111905D01*
X194790000Y-85940000D02*
X193790000Y-85940000D01*
X193790000Y-84240000D02*
X194790000Y-84240000D01*
X188710000Y-84240000D02*
X189710000Y-84240000D01*
X189710000Y-85940000D02*
X188710000Y-85940000D01*
X188347487Y-92645406D02*
X189054594Y-93352513D01*
X187852513Y-94554594D02*
X187145406Y-93847487D01*
X188252513Y-92554594D02*
X187545406Y-91847487D01*
X188747487Y-90645406D02*
X189454594Y-91352513D01*
X195131546Y-92175017D02*
X194283017Y-93023546D01*
X195520454Y-94260983D02*
X196368983Y-93412454D01*
X188783406Y-103511513D02*
X189490513Y-102804406D01*
X190692594Y-104006487D02*
X189985487Y-104713594D01*
X191300000Y-87950000D02*
X192300000Y-87950000D01*
X192300000Y-89650000D02*
X191300000Y-89650000D01*
X195654594Y-91647487D02*
X194947487Y-92354594D01*
X193745406Y-91152513D02*
X194452513Y-90445406D01*
X187191487Y-93787406D02*
X187898594Y-94494513D01*
X186696513Y-95696594D02*
X185989406Y-94989487D01*
X181610000Y-82550000D02*
X181610000Y-123190000D01*
X181610000Y-123190000D02*
X184150000Y-123190000D01*
X184150000Y-123190000D02*
X184150000Y-82550000D01*
X181330000Y-79730000D02*
X181330000Y-81280000D01*
X181610000Y-82550000D02*
X184150000Y-82550000D01*
X184430000Y-81280000D02*
X184430000Y-79730000D01*
X184430000Y-79730000D02*
X181330000Y-79730000D01*
X199390000Y-82550000D02*
X199390000Y-123190000D01*
X199390000Y-123190000D02*
X201930000Y-123190000D01*
X201930000Y-123190000D02*
X201930000Y-82550000D01*
X199110000Y-79730000D02*
X199110000Y-81280000D01*
X199390000Y-82550000D02*
X201930000Y-82550000D01*
X202210000Y-81280000D02*
X202210000Y-79730000D01*
X202210000Y-79730000D02*
X199110000Y-79730000D01*
X192370000Y-109615000D02*
X191170000Y-109615000D01*
X191170000Y-111365000D02*
X192370000Y-111365000D01*
X190904000Y-121294000D02*
X190764000Y-121024000D01*
X190764000Y-121024000D02*
X190644000Y-120834000D01*
X190644000Y-120834000D02*
X190474000Y-120644000D01*
X190474000Y-120644000D02*
X190294000Y-120474000D01*
X190294000Y-120474000D02*
X190614000Y-120514000D01*
X190614000Y-120514000D02*
X190734000Y-120644000D01*
X190734000Y-120644000D02*
X190934000Y-120884000D01*
X191824000Y-116754000D02*
X191374000Y-117814000D01*
X191374000Y-117814000D02*
X191094000Y-118264000D01*
X191094000Y-118264000D02*
X190934000Y-118714000D01*
X190934000Y-118714000D02*
X190934000Y-119154000D01*
X190934000Y-119154000D02*
X190934000Y-119664000D01*
X190934000Y-119664000D02*
X191094000Y-120224000D01*
X191094000Y-120224000D02*
X191094000Y-120614000D01*
X191094000Y-120614000D02*
X190874000Y-121564000D01*
X190874000Y-121564000D02*
X190764000Y-122004000D01*
X190764000Y-122004000D02*
X190814000Y-122004000D01*
X191814000Y-114224000D02*
X191964000Y-114344000D01*
X191964000Y-114344000D02*
X192054000Y-114534000D01*
X192054000Y-114534000D02*
X191954000Y-114634000D01*
X191954000Y-114634000D02*
X191794000Y-114694000D01*
X191794000Y-114694000D02*
X191614000Y-114654000D01*
X191614000Y-114654000D02*
X191494000Y-114484000D01*
X191494000Y-114484000D02*
X191524000Y-114364000D01*
X191524000Y-114364000D02*
X191614000Y-114254000D01*
X191614000Y-114254000D02*
X191794000Y-114214000D01*
X193034000Y-114344000D02*
X193154000Y-114564000D01*
X193154000Y-114564000D02*
X193174000Y-114714000D01*
X193174000Y-114714000D02*
X193074000Y-114804000D01*
X193074000Y-114804000D02*
X192924000Y-114884000D01*
X192924000Y-114884000D02*
X192774000Y-114784000D01*
X192774000Y-114784000D02*
X192654000Y-114634000D01*
X192654000Y-114634000D02*
X192634000Y-114534000D01*
X192634000Y-114534000D02*
X192744000Y-114454000D01*
X192744000Y-114454000D02*
X193004000Y-114394000D01*
X192884000Y-115384000D02*
X192544000Y-115654000D01*
X192544000Y-115654000D02*
X192394000Y-115724000D01*
X192394000Y-115724000D02*
X192204000Y-115724000D01*
X192204000Y-115724000D02*
X192054000Y-115724000D01*
X192054000Y-115724000D02*
X191894000Y-115724000D01*
X191894000Y-115724000D02*
X191744000Y-115654000D01*
X191744000Y-115654000D02*
X191514000Y-115464000D01*
X191514000Y-115464000D02*
X191404000Y-115264000D01*
X191404000Y-115264000D02*
X191284000Y-115044000D01*
X191284000Y-115044000D02*
X191364000Y-115114000D01*
X190754000Y-115304000D02*
X190334000Y-115804000D01*
X190334000Y-115804000D02*
X190104000Y-116334000D01*
X190104000Y-116334000D02*
X190104000Y-116794000D01*
X190104000Y-116794000D02*
X190294000Y-117064000D01*
X190294000Y-117064000D02*
X190644000Y-117324000D01*
X190644000Y-117324000D02*
X190984000Y-117324000D01*
X190984000Y-117324000D02*
X191284000Y-117174000D01*
X191284000Y-117174000D02*
X191474000Y-116984000D01*
X191474000Y-116984000D02*
X191704000Y-116604000D01*
X191704000Y-116604000D02*
X191864000Y-116374000D01*
X191094000Y-114084000D02*
X190454000Y-113894000D01*
X190454000Y-113894000D02*
X189954000Y-113864000D01*
X189954000Y-113864000D02*
X189424000Y-114204000D01*
X189424000Y-114204000D02*
X189344000Y-114624000D01*
X189344000Y-114624000D02*
X189344000Y-114924000D01*
X189344000Y-114924000D02*
X189494000Y-115234000D01*
X189494000Y-115234000D02*
X189844000Y-115344000D01*
X189844000Y-115344000D02*
X190144000Y-115424000D01*
X190144000Y-115424000D02*
X190484000Y-115384000D01*
X190484000Y-115384000D02*
X190714000Y-115304000D01*
X190714000Y-115304000D02*
X190874000Y-115234000D01*
X193424000Y-115804000D02*
X193574000Y-116374000D01*
X193574000Y-116374000D02*
X193614000Y-116944000D01*
X193614000Y-116944000D02*
X193344000Y-117474000D01*
X193344000Y-117474000D02*
X192854000Y-117784000D01*
X192854000Y-117784000D02*
X192274000Y-117674000D01*
X192274000Y-117674000D02*
X192054000Y-117324000D01*
X192054000Y-117324000D02*
X191934000Y-116984000D01*
X191934000Y-116984000D02*
X191864000Y-116644000D01*
X191864000Y-116644000D02*
X191864000Y-116374000D01*
X193574000Y-114354000D02*
X194104000Y-114584000D01*
X194104000Y-114584000D02*
X194524000Y-114854000D01*
X194524000Y-114854000D02*
X194684000Y-115154000D01*
X194684000Y-115154000D02*
X194754000Y-115424000D01*
X194754000Y-115424000D02*
X194754000Y-115684000D01*
X194754000Y-115684000D02*
X194684000Y-115914000D01*
X194684000Y-115914000D02*
X194334000Y-116224000D01*
X194334000Y-116224000D02*
X193954000Y-116224000D01*
X193954000Y-116224000D02*
X193764000Y-116104000D01*
X193764000Y-116104000D02*
X193494000Y-115804000D01*
X193494000Y-115804000D02*
X193424000Y-115804000D01*
X192204000Y-113554000D02*
X192544000Y-112944000D01*
X192544000Y-112944000D02*
X192884000Y-112754000D01*
X192884000Y-112754000D02*
X193464000Y-112674000D01*
X193464000Y-112674000D02*
X193884000Y-112834000D01*
X193884000Y-112834000D02*
X194184000Y-113134000D01*
X194184000Y-113134000D02*
X194294000Y-113744000D01*
X194294000Y-113744000D02*
X194104000Y-114164000D01*
X194104000Y-114164000D02*
X193844000Y-114314000D01*
X193844000Y-114314000D02*
X193614000Y-114354000D01*
X193614000Y-114354000D02*
X193534000Y-114354000D01*
X193534000Y-114354000D02*
X193534000Y-114394000D01*
X192204000Y-113514000D02*
X192054000Y-113134000D01*
X192054000Y-113134000D02*
X191824000Y-112944000D01*
X191824000Y-112944000D02*
X191474000Y-112644000D01*
X191474000Y-112644000D02*
X191094000Y-112604000D01*
X191094000Y-112604000D02*
X190714000Y-112754000D01*
X190714000Y-112754000D02*
X190564000Y-113054000D01*
X190564000Y-113054000D02*
X190524000Y-113404000D01*
X190524000Y-113404000D02*
X190564000Y-113594000D01*
X190564000Y-113594000D02*
X190714000Y-113744000D01*
X190714000Y-113744000D02*
X190904000Y-113824000D01*
X190904000Y-113824000D02*
X191134000Y-113934000D01*
X193608214Y-114954000D02*
G75*
G03X193608214Y-114954000I-1414214J0D01*
G01*
X194476666Y-83669143D02*
X194524285Y-83716762D01*
X194667142Y-83764381D01*
X194762380Y-83764381D01*
X194905238Y-83716762D01*
X195000476Y-83621524D01*
X195048095Y-83526286D01*
X195095714Y-83335810D01*
X195095714Y-83192952D01*
X195048095Y-83002476D01*
X195000476Y-82907238D01*
X194905238Y-82812000D01*
X194762380Y-82764381D01*
X194667142Y-82764381D01*
X194524285Y-82812000D01*
X194476666Y-82859619D01*
X193524285Y-83764381D02*
X194095714Y-83764381D01*
X193810000Y-83764381D02*
X193810000Y-82764381D01*
X193905238Y-82907238D01*
X194000476Y-83002476D01*
X194095714Y-83050095D01*
X189396666Y-83669143D02*
X189444285Y-83716762D01*
X189587142Y-83764381D01*
X189682380Y-83764381D01*
X189825238Y-83716762D01*
X189920476Y-83621524D01*
X189968095Y-83526286D01*
X190015714Y-83335810D01*
X190015714Y-83192952D01*
X189968095Y-83002476D01*
X189920476Y-82907238D01*
X189825238Y-82812000D01*
X189682380Y-82764381D01*
X189587142Y-82764381D01*
X189444285Y-82812000D01*
X189396666Y-82859619D01*
X189015714Y-82859619D02*
X188968095Y-82812000D01*
X188872857Y-82764381D01*
X188634761Y-82764381D01*
X188539523Y-82812000D01*
X188491904Y-82859619D01*
X188444285Y-82954857D01*
X188444285Y-83050095D01*
X188491904Y-83192952D01*
X189063333Y-83764381D01*
X188444285Y-83764381D01*
X190365312Y-96255389D02*
X190365312Y-96322732D01*
X190432656Y-96457419D01*
X190499999Y-96524763D01*
X190634687Y-96592107D01*
X190769374Y-96592107D01*
X190870389Y-96558435D01*
X191038747Y-96457420D01*
X191139763Y-96356404D01*
X191240778Y-96188045D01*
X191274450Y-96087030D01*
X191274450Y-95952343D01*
X191207106Y-95817656D01*
X191139763Y-95750312D01*
X191005076Y-95682969D01*
X190937732Y-95682969D01*
X190769374Y-95379924D02*
X190331641Y-94942190D01*
X190297970Y-95447267D01*
X190196954Y-95346251D01*
X190095939Y-95312579D01*
X190028595Y-95312579D01*
X189927579Y-95346252D01*
X189759221Y-95514610D01*
X189725549Y-95615626D01*
X189725549Y-95682969D01*
X189759221Y-95783984D01*
X189961252Y-95986015D01*
X190062267Y-96019687D01*
X190129610Y-96019687D01*
X190873312Y-94223389D02*
X190873312Y-94290732D01*
X190940656Y-94425419D01*
X191007999Y-94492763D01*
X191142687Y-94560107D01*
X191277374Y-94560107D01*
X191378389Y-94526435D01*
X191546747Y-94425420D01*
X191647763Y-94324404D01*
X191748778Y-94156045D01*
X191782450Y-94055030D01*
X191782450Y-93920343D01*
X191715106Y-93785656D01*
X191647763Y-93718312D01*
X191513076Y-93650969D01*
X191445732Y-93650969D01*
X190671282Y-93213236D02*
X190199877Y-93684641D01*
X191109015Y-93112222D02*
X190772297Y-93785657D01*
X190334564Y-93347924D01*
X198176732Y-91134031D02*
X198075717Y-90561610D01*
X198580794Y-90729970D02*
X197873687Y-90022863D01*
X197604312Y-90292237D01*
X197570641Y-90393253D01*
X197570641Y-90460596D01*
X197604312Y-90561611D01*
X197705328Y-90662626D01*
X197806343Y-90696298D01*
X197873686Y-90696298D01*
X197974701Y-90662626D01*
X198244076Y-90393252D01*
X197503297Y-91807466D02*
X197907359Y-91403405D01*
X197705328Y-91605435D02*
X196998222Y-90898328D01*
X197166580Y-90932000D01*
X197301267Y-90932000D01*
X197402282Y-90898328D01*
X192521389Y-101480688D02*
X192588732Y-101480688D01*
X192723419Y-101413344D01*
X192790763Y-101346001D01*
X192858107Y-101211313D01*
X192858107Y-101076626D01*
X192824435Y-100975611D01*
X192723420Y-100807253D01*
X192622404Y-100706237D01*
X192454045Y-100605222D01*
X192353030Y-100571550D01*
X192218343Y-100571550D01*
X192083656Y-100638894D01*
X192016312Y-100706237D01*
X191948969Y-100840924D01*
X191948969Y-100908268D01*
X191241862Y-101480688D02*
X191578580Y-101143970D01*
X191948969Y-101447015D01*
X191881626Y-101447015D01*
X191780610Y-101480687D01*
X191612251Y-101649046D01*
X191578579Y-101750061D01*
X191578579Y-101817405D01*
X191612252Y-101918421D01*
X191780610Y-102086779D01*
X191881626Y-102120451D01*
X191948969Y-102120451D01*
X192049984Y-102086779D01*
X192218343Y-101918420D01*
X192252015Y-101817405D01*
X192252015Y-101750061D01*
X191936666Y-87606143D02*
X191984285Y-87653762D01*
X192127142Y-87701381D01*
X192222380Y-87701381D01*
X192365238Y-87653762D01*
X192460476Y-87558524D01*
X192508095Y-87463286D01*
X192555714Y-87272810D01*
X192555714Y-87129952D01*
X192508095Y-86939476D01*
X192460476Y-86844238D01*
X192365238Y-86749000D01*
X192222380Y-86701381D01*
X192127142Y-86701381D01*
X191984285Y-86749000D01*
X191936666Y-86796619D01*
X191079523Y-86701381D02*
X191270000Y-86701381D01*
X191365238Y-86749000D01*
X191412857Y-86796619D01*
X191508095Y-86939476D01*
X191555714Y-87129952D01*
X191555714Y-87510905D01*
X191508095Y-87606143D01*
X191460476Y-87653762D01*
X191365238Y-87701381D01*
X191174761Y-87701381D01*
X191079523Y-87653762D01*
X191031904Y-87606143D01*
X190984285Y-87510905D01*
X190984285Y-87272810D01*
X191031904Y-87177571D01*
X191079523Y-87129952D01*
X191174761Y-87082333D01*
X191365238Y-87082333D01*
X191460476Y-87129952D01*
X191508095Y-87177571D01*
X191555714Y-87272810D01*
X197601389Y-89161688D02*
X197668732Y-89161688D01*
X197803419Y-89094344D01*
X197870763Y-89027001D01*
X197938107Y-88892313D01*
X197938107Y-88757626D01*
X197904435Y-88656611D01*
X197803420Y-88488253D01*
X197702404Y-88387237D01*
X197534045Y-88286222D01*
X197433030Y-88252550D01*
X197298343Y-88252550D01*
X197163656Y-88319894D01*
X197096312Y-88387237D01*
X197028969Y-88521924D01*
X197028969Y-88589268D01*
X196725924Y-88757626D02*
X196254519Y-89229031D01*
X197264672Y-89633092D01*
X189222312Y-97271389D02*
X189222312Y-97338732D01*
X189289656Y-97473419D01*
X189356999Y-97540763D01*
X189491687Y-97608107D01*
X189626374Y-97608107D01*
X189727389Y-97574435D01*
X189895747Y-97473420D01*
X189996763Y-97372404D01*
X190097778Y-97204045D01*
X190131450Y-97103030D01*
X190131450Y-96968343D01*
X190064106Y-96833656D01*
X189996763Y-96766312D01*
X189862076Y-96698969D01*
X189794732Y-96698969D01*
X189154970Y-96530610D02*
X189255985Y-96564282D01*
X189323328Y-96564282D01*
X189424343Y-96530610D01*
X189458015Y-96496939D01*
X189491687Y-96395924D01*
X189491687Y-96328580D01*
X189458015Y-96227565D01*
X189323328Y-96092877D01*
X189222312Y-96059206D01*
X189154969Y-96059206D01*
X189053954Y-96092877D01*
X189020282Y-96126549D01*
X188986610Y-96227564D01*
X188986610Y-96294908D01*
X189020282Y-96395923D01*
X189154970Y-96530610D01*
X189188641Y-96631626D01*
X189188641Y-96698969D01*
X189154969Y-96799985D01*
X189020282Y-96934672D01*
X188919267Y-96968343D01*
X188851924Y-96968343D01*
X188750908Y-96934672D01*
X188616221Y-96799984D01*
X188582549Y-96698969D01*
X188582549Y-96631626D01*
X188616221Y-96530610D01*
X188750908Y-96395924D01*
X188851924Y-96362251D01*
X188919267Y-96362251D01*
X189020282Y-96395923D01*
X191936666Y-109291381D02*
X192270000Y-108815190D01*
X192508095Y-109291381D02*
X192508095Y-108291381D01*
X192127142Y-108291381D01*
X192031904Y-108339000D01*
X191984285Y-108386619D01*
X191936666Y-108481857D01*
X191936666Y-108624714D01*
X191984285Y-108719952D01*
X192031904Y-108767571D01*
X192127142Y-108815190D01*
X192508095Y-108815190D01*
X191079523Y-108624714D02*
X191079523Y-109291381D01*
X191317619Y-108243762D02*
X191555714Y-108958048D01*
X190936666Y-108958048D01*
M02*
