M48
;DRILL file {KiCad 4.0.4+e1-6308~48~ubuntu16.04.1-stable} date Wed Oct 26 20:21:18 2016
;FORMAT={-:-/ absolute / inch / decimal}
FMAT,2
INCH,TZ
T1C0.016
T2C0.040
T3C0.043
%
G90
G05
M72
T1
X7.2746Y-3.5906
X7.3209Y-3.4892
X7.3228Y-3.5315
X7.3258Y-3.3337
X7.3957Y-3.4087
X7.4207Y-3.8789
X7.426Y-4.3
X7.4291Y-3.8307
X7.4685Y-3.563
X7.485Y-3.7693
X7.4965Y-3.8173
X7.5465Y-3.4067
X7.5516Y-3.7106
X7.5531Y-3.9657
X7.58Y-3.77
X7.5994Y-3.438
X7.6261Y-3.782
X7.6646Y-3.8327
X7.674Y-4.3
X7.69Y-4.2
X7.6978Y-3.4823
X7.7083Y-3.8512
X7.71Y-3.41
X7.7874Y-3.8524
X7.8031Y-3.9429
T2
X7.2Y-3.2
X7.2Y-3.3
X7.2Y-3.4
X7.2Y-3.5
X7.2Y-3.6
X7.2Y-3.7
X7.2Y-3.8
X7.2Y-3.9
X7.2Y-4.
X7.2Y-4.1
X7.2Y-4.2
X7.2Y-4.3
X7.2Y-4.4
X7.2Y-4.5
X7.2Y-4.6
X7.2Y-4.7
X7.2Y-4.8
X7.3Y-3.2
X7.4Y-3.2
X7.5Y-3.2
X7.6Y-3.2
X7.7Y-3.2
X7.8Y-3.2
X7.9Y-3.2
X7.9Y-3.3
X7.9Y-3.4
X7.9Y-3.5
X7.9Y-3.6
X7.9Y-3.7
X7.9Y-3.8
X7.9Y-3.9
X7.9Y-4.
X7.9Y-4.1
X7.9Y-4.2
X7.9Y-4.3
X7.9Y-4.4
X7.9Y-4.5
X7.9Y-4.6
X7.9Y-4.7
X7.9Y-4.8
T3
X7.4241Y-4.6228
X7.4241Y-4.8
X7.68Y-4.6228
X7.68Y-4.8
T0
M30
